<svg width="25" height="25" viewBox="0 0 25 25" fill="none" xmlns="http://www.w3.org/2000/svg">
<g clip-path="url(#clip0_898_257)">
<path fill-rule="evenodd" clip-rule="evenodd" d="M20.3073 3.26361C20.538 3.12466 20.8135 3.08046 21.0761 3.14028C21.3387 3.2001 21.5679 3.35928 21.7156 3.58444L22.7469 5.15736C22.8816 5.36293 22.9393 5.60952 22.9097 5.85352C22.8802 6.09752 22.7653 6.32321 22.5854 6.49069L22.5823 6.49486L22.5677 6.5084L22.5083 6.56361L22.274 6.78756C20.9771 8.04548 19.7195 9.34333 18.5031 10.6792C16.2146 13.1959 13.4969 16.4896 11.6677 19.6855C11.1573 20.5771 9.91043 20.7688 9.17085 19.999L2.41564 12.9803C2.31883 12.8797 2.24324 12.7606 2.19336 12.6302C2.14348 12.4998 2.12033 12.3606 2.12529 12.2211C2.13025 12.0816 2.16321 11.9444 2.22221 11.8179C2.28121 11.6913 2.36506 11.5779 2.46876 11.4844L4.51043 9.64277C4.68985 9.48101 4.91991 9.38664 5.16124 9.37581C5.40257 9.36498 5.64016 9.43836 5.83334 9.5834L9.28022 12.1678C14.6636 6.8584 17.7177 4.8209 20.3073 3.26361ZM20.5261 5.57194C18.1406 7.06361 15.1636 9.22715 10.1115 14.2782C9.93419 14.4555 9.69891 14.5629 9.44882 14.5807C9.19873 14.5985 8.95061 14.5255 8.75001 14.3751L5.26876 11.7646L4.66355 12.3105L10.2021 18.0667C12.125 14.8688 14.7719 11.6855 16.9625 9.27715C18.1161 8.00991 19.3058 6.77607 20.5302 5.57715L20.5261 5.57194Z" fill="white"/>
</g>
<defs>
<clipPath id="clip0_898_257">
<rect width="25" height="25" fill="white"/>
</clipPath>
</defs>
</svg>
