<svg width="25" height="25" viewBox="0 0 25 25" fill="none" xmlns="http://www.w3.org/2000/svg">
<g clip-path="url(#clip0_915_27)">
<path fill-rule="evenodd" clip-rule="evenodd" d="M20.3073 3.26348C20.538 3.12454 20.8135 3.08034 21.0761 3.14016C21.3387 3.19998 21.5679 3.35916 21.7156 3.58432L22.7469 5.15723C22.8816 5.36281 22.9393 5.6094 22.9097 5.8534C22.8802 6.0974 22.7653 6.32309 22.5854 6.49057L22.5823 6.49473L22.5677 6.50828L22.5083 6.56348L22.274 6.78744C20.9771 8.04536 19.7195 9.3432 18.5031 10.6791C16.2146 13.1958 13.4969 16.4895 11.6677 19.6854C11.1573 20.577 9.91043 20.7687 9.17085 19.9989L2.41564 12.9802C2.31883 12.8795 2.24324 12.7605 2.19336 12.6301C2.14348 12.4996 2.12033 12.3605 2.12529 12.221C2.13025 12.0814 2.16321 11.9443 2.22221 11.8178C2.28121 11.6912 2.36506 11.5778 2.46876 11.4843L4.51043 9.64265C4.68985 9.48089 4.91991 9.38652 5.16124 9.37569C5.40257 9.36486 5.64016 9.43824 5.83334 9.58328L9.28022 12.1677C14.6636 6.85827 17.7177 4.82078 20.3073 3.26348ZM20.5261 5.57182C18.1406 7.06348 15.1636 9.22703 10.1115 14.2781C9.93419 14.4554 9.69891 14.5628 9.44882 14.5806C9.19873 14.5983 8.95061 14.5253 8.75001 14.3749L5.26876 11.7645L4.66355 12.3104L10.2021 18.0666C12.125 14.8687 14.7719 11.6854 16.9625 9.27703C18.1161 8.00979 19.3058 6.77594 20.5302 5.57703L20.5261 5.57182Z" fill="#0B6E85"/>
</g>
<defs>
<clipPath id="clip0_915_27">
<rect width="25" height="25" fill="white"/>
</clipPath>
</defs>
</svg>
