<svg width="20" height="20" viewBox="0 0 20 20" fill="none" xmlns="http://www.w3.org/2000/svg">
<path d="M17.5 7.89148V15.1204C17.5 15.7595 17.2366 16.3724 16.7678 16.8243C16.2989 17.2762 15.663 17.53 15 17.53H4.16666C3.50362 17.53 2.86773 17.2762 2.39889 16.8243C1.93005 16.3724 1.66666 15.7595 1.66666 15.1204V7.89148C1.66666 6.99992 2.16666 6.2208 2.91666 5.80313L9.58332 2.09229L16.25 5.80313C17 6.2208 17.5 6.99992 17.5 7.89148ZM3.09999 6.66257L9.58332 10.7027L16.0667 6.66257L9.58332 3.01598L3.09999 6.66257ZM9.58332 11.6746L2.60832 7.31317C2.54166 7.48988 2.49999 7.69068 2.49999 7.89148V15.1204C2.49999 15.5464 2.67558 15.955 2.98815 16.2563C3.30071 16.5576 3.72463 16.7268 4.16666 16.7268H15C15.442 16.7268 15.8659 16.5576 16.1785 16.2563C16.4911 15.955 16.6667 15.5464 16.6667 15.1204V7.89148C16.6667 7.69068 16.625 7.48988 16.5583 7.31317L9.58332 11.6746Z" fill="white"/>
</svg>
