<svg width="22" height="26" viewBox="0 0 22 26" fill="none" xmlns="http://www.w3.org/2000/svg">
<g clip-path="url(#clip0_997_245)">
<path d="M21.5263 21.273C21.5263 22.4682 21.1836 23.4934 20.4983 24.3487C19.813 25.2039 18.9879 25.6316 18.023 25.6316H3.97692C3.01201 25.6316 2.1869 25.2039 1.50159 24.3487C0.816286 23.4934 0.473633 22.4682 0.473633 21.273C0.473633 20.341 0.520234 19.4611 0.613435 18.6332C0.706637 17.8054 0.879335 16.972 1.13153 16.1332C1.38372 15.2944 1.70444 14.5762 2.0937 13.9786C2.48295 13.381 2.9983 12.8931 3.63975 12.5148C4.2812 12.1365 5.01859 11.9474 5.85192 11.9474C7.28833 13.3509 9.00433 14.0526 10.9999 14.0526C12.9956 14.0526 14.7116 13.3509 16.148 11.9474C16.9813 11.9474 17.7187 12.1365 18.3601 12.5148C19.0016 12.8931 19.5169 13.381 19.9062 13.9786C20.2955 14.5762 20.6162 15.2944 20.8684 16.1332C21.1206 16.972 21.2933 17.8054 21.3865 18.6332C21.4797 19.4611 21.5263 20.341 21.5263 21.273ZM17.3157 6.6842C17.3157 8.42762 16.699 9.91611 15.4654 11.1497C14.2319 12.3832 12.7434 13 10.9999 13C9.25653 13 7.76804 12.3832 6.53449 11.1497C5.30094 9.91611 4.68416 8.42762 4.68416 6.6842C4.68416 4.94078 5.30094 3.45229 6.53449 2.21874C7.76804 0.985185 9.25653 0.368408 10.9999 0.368408C12.7434 0.368408 14.2319 0.985185 15.4654 2.21874C16.699 3.45229 17.3157 4.94078 17.3157 6.6842Z" fill="#E5E9E9"/>
</g>
<defs>
<clipPath id="clip0_997_245">
<rect width="21.0526" height="25.2632" fill="white" transform="translate(0.473633 0.368408)"/>
</clipPath>
</defs>
</svg>
