<svg width="48" height="48" viewBox="0 0 48 48" fill="none" xmlns="http://www.w3.org/2000/svg">
<path d="M16.6743 39.951C16.5002 39.7769 16.362 39.5702 16.2678 39.3426C16.1735 39.1151 16.125 38.8713 16.125 38.625C16.125 38.3787 16.1735 38.1349 16.2678 37.9074C16.362 37.6798 16.5002 37.4731 16.6743 37.299L29.9733 24L16.6743 10.701C16.3227 10.3493 16.1251 9.87235 16.1251 9.375C16.1251 8.87766 16.3227 8.40068 16.6743 8.049C17.026 7.69733 17.503 7.49976 18.0003 7.49976C18.4977 7.49976 18.9747 7.69733 19.3263 8.049L33.9514 22.674C34.1255 22.8481 34.2637 23.0548 34.3579 23.2824C34.4522 23.5099 34.5007 23.7537 34.5007 24C34.5007 24.2463 34.4522 24.4901 34.3579 24.7176C34.2637 24.9452 34.1255 25.1519 33.9514 25.326L19.3263 39.951C19.1522 40.1252 18.9455 40.2633 18.718 40.3576C18.4905 40.4518 18.2466 40.5004 18.0003 40.5004C17.7541 40.5004 17.5102 40.4518 17.2827 40.3576C17.0552 40.2633 16.8485 40.1252 16.6743 39.951Z" fill="white"/>
</svg>
