<svg width="48" height="48" viewBox="0 0 48 48" fill="none" xmlns="http://www.w3.org/2000/svg">
<path d="M30.8998 33.04L24.8798 27.02C24.6598 26.8 24.3998 26.76 24.2598 26.76C24.1198 26.76 23.8598 26.8 23.6398 27.02L17.5998 33.06C16.9198 33.74 15.8598 34.84 12.3198 34.84L19.7398 42.24C20.8648 43.3636 22.3898 43.9947 23.9798 43.9947C25.5698 43.9947 27.0948 43.3636 28.2198 42.24L35.6598 34.82C33.8398 34.82 32.3198 34.46 30.8998 33.04ZM17.5998 14.94L23.6398 20.98C23.7998 21.14 24.0398 21.24 24.2598 21.24C24.4798 21.24 24.7198 21.14 24.8798 20.98L30.8598 15C32.2798 13.52 33.8998 13.18 35.7198 13.18L28.2798 5.76C27.1548 4.6364 25.6298 4.00528 24.0398 4.00528C22.4498 4.00528 20.9248 4.6364 19.7998 5.76L12.3798 13.16C15.8998 13.16 16.9798 14.32 17.5998 14.94Z" fill="#0B6E85"/>
<path d="M42.2201 19.7L37.7201 15.18H35.2001C34.1201 15.18 33.0401 15.62 32.3001 16.4L26.3001 22.4C25.7401 22.96 25.0001 23.24 24.2601 23.24C23.4981 23.2293 22.7687 22.929 22.2201 22.4L16.1801 16.34C15.4201 15.58 14.3801 15.14 13.2801 15.14H10.3401L5.76009 19.74C4.63649 20.865 4.00537 22.39 4.00537 23.98C4.00537 25.57 4.63649 27.095 5.76009 28.22L10.3401 32.82H13.3001C14.3801 32.82 15.4201 32.38 16.2001 31.62L22.2401 25.58C22.8001 25.02 23.5401 24.74 24.2801 24.74C25.0201 24.74 25.7601 25.02 26.3201 25.58L32.3401 31.6C33.1001 32.36 34.1401 32.8 35.2401 32.8H37.7601L42.2601 28.28C43.3884 27.1348 44.0176 25.5895 44.0101 23.9818C44.0026 22.3741 43.359 20.8347 42.2201 19.7Z" fill="#0B6E85"/>
</svg>
