<svg width="40" height="40" viewBox="0 0 40 40" fill="none" xmlns="http://www.w3.org/2000/svg">
<path d="M31.2 24.6C31.7833 23.1833 32.1 21.6666 32.1 20C32.1 18.8 31.9167 17.65 31.6 16.5833C30.5167 16.8333 29.3833 16.9666 28.2 16.9666C25.7766 16.9692 23.3881 16.3892 21.2359 15.2753C19.0836 14.1615 17.2307 12.5465 15.8333 10.5666C14.3385 14.1836 11.5185 17.093 7.95001 18.7C7.88334 19.1166 7.88334 19.5666 7.88334 20C7.88334 21.5911 8.19675 23.1667 8.80567 24.6368C9.41459 26.1069 10.3071 27.4426 11.4322 28.5677C13.7045 30.84 16.7865 32.1166 20 32.1166C21.75 32.1166 23.4333 31.7333 24.95 31.05C25.9 32.8666 26.3333 33.7666 26.3 33.7666C23.5667 34.6833 21.45 35.1333 20 35.1333C15.9667 35.1333 12.1167 33.55 9.28334 30.7C7.56001 28.9819 6.27896 26.8716 5.55001 24.55H3.33334V16.9666H5.15001C5.70041 14.2875 6.96583 11.8073 8.81199 9.78927C10.6582 7.77124 13.0162 6.29063 15.6359 5.50455C18.2556 4.71847 21.0392 4.65624 23.6915 5.32446C26.3437 5.99269 28.7655 7.36644 30.7 9.29995C32.8004 11.392 34.233 14.0601 34.8167 16.9666H36.6667V24.55H36.5667L30.6333 30L21.8 29V26.2166H29.85L31.2 24.6ZM15.45 19.6166C15.95 19.6166 16.4333 19.8166 16.7833 20.1833C17.1351 20.5379 17.3325 21.0171 17.3325 21.5166C17.3325 22.0161 17.1351 22.4953 16.7833 22.85C16.4333 23.2 15.95 23.4 15.45 23.4C14.4 23.4 13.55 22.5666 13.55 21.5166C13.55 20.4666 14.4 19.6166 15.45 19.6166ZM24.5333 19.6166C25.5833 19.6166 26.4167 20.4666 26.4167 21.5166C26.4167 22.5666 25.5833 23.4 24.5333 23.4C23.4833 23.4 22.6333 22.5666 22.6333 21.5166C22.6333 21.0127 22.8335 20.5294 23.1898 20.1731C23.5462 19.8168 24.0294 19.6166 24.5333 19.6166Z" fill="#0095B7"/>
</svg>
