<svg width="40" height="40" viewBox="0 0 40 40" fill="none" xmlns="http://www.w3.org/2000/svg">
<path d="M19.4211 37.6376C15.6492 37.7574 11.9283 36.7407 8.7414 34.7194C5.55451 32.698 3.04878 29.7654 1.54942 26.3022C0.0500519 22.839 -0.373709 19.005 0.333132 15.2979C1.03997 11.5909 2.84478 8.18183 5.5133 5.5133C8.18183 2.84478 11.5909 1.03997 15.2979 0.333132C19.005 -0.373709 22.839 0.0500519 26.3022 1.54942C29.7654 3.04878 32.698 5.55451 34.7194 8.7414C36.7407 11.9283 37.7574 15.6492 37.6376 19.4211C36.9062 18.8183 36.1109 18.2975 35.2659 17.8682C35.1705 16.1813 34.8149 14.5194 34.2118 12.9411H27.7812C27.9647 14.0941 28.0964 15.2941 28.1694 16.5294C27.3794 16.6047 26.598 16.7528 25.8353 16.9717C25.7697 15.6207 25.6235 14.2748 25.3976 12.9411H12.2494C11.9224 14.8848 11.7603 16.8526 11.7647 18.8235C11.7647 20.9011 11.9364 22.8823 12.2494 24.7059H17.3529C17.0558 25.4671 16.8321 26.255 16.6847 27.0588H12.7505C13.1105 28.447 13.5553 29.7082 14.0682 30.8047C15.1976 33.2235 16.5176 34.6023 17.7788 35.0894C18.2258 36.007 18.7788 36.8588 19.4211 37.6376ZM23.5811 6.8423C22.1341 3.74112 20.3694 2.35288 18.8235 2.35288C17.2776 2.35288 15.5129 3.74112 14.0658 6.8423C13.515 8.04834 13.0755 9.30218 12.7529 10.5882H24.8988C24.5747 9.302 24.1336 8.04815 23.5811 6.8423ZM10.327 10.5882C10.7411 8.83995 11.2847 7.2423 11.9341 5.847C12.3717 4.90818 12.8776 4.02818 13.4447 3.2517C9.69695 4.55088 6.54169 7.15493 4.55524 10.5882H10.327ZM9.41171 18.8235C9.41171 16.7764 9.56936 14.7953 9.86583 12.9411H3.43523C2.71765 14.8192 2.35079 16.813 2.35288 18.8235C2.35288 20.8941 2.73641 22.88 3.43523 24.7059H9.86583C9.56052 22.76 9.40867 20.7932 9.41171 18.8235ZM11.9341 31.8C11.2393 30.2781 10.7008 28.6895 10.327 27.0588H4.55524C6.54169 30.4921 9.69695 33.0961 13.4447 34.3953C12.8588 33.5808 12.353 32.7116 11.9341 31.8ZM33.0918 10.5882C31.1055 7.1548 27.9501 4.5507 24.2023 3.2517C24.7694 4.02818 25.2753 4.90818 25.7129 5.847C26.3623 7.2423 26.9059 8.83995 27.32 10.5882H33.0918ZM29.4117 40C32.2199 40 34.9131 38.8845 36.8988 36.8988C38.8845 34.9131 40 32.2199 40 29.4117C40 26.6036 38.8845 23.9104 36.8988 21.9247C34.9131 19.939 32.2199 18.8235 29.4117 18.8235C26.6036 18.8235 23.9104 19.939 21.9247 21.9247C19.939 23.9104 18.8235 26.6036 18.8235 29.4117C18.8235 32.2199 19.939 34.9131 21.9247 36.8988C23.9104 38.8845 26.6036 40 29.4117 40ZM31.6565 26.8047H35.2894C36.4306 26.8047 36.9059 28.327 35.9835 29.0259L33.0423 31.2541L34.1647 34.8588C34.5176 35.9882 33.2753 36.9294 32.3529 36.2306L29.4117 34.0023L26.4706 36.2306C25.5482 36.9294 24.3059 35.9882 24.6588 34.8588L25.7812 31.2541L22.84 29.0259C21.9176 28.327 22.3929 26.8047 23.5317 26.8047H27.1694L28.2917 23.2023C28.3597 22.9575 28.506 22.7417 28.7083 22.5879C28.9106 22.4341 29.1577 22.3509 29.4117 22.3509C29.6658 22.3509 29.9129 22.4341 30.1152 22.5879C30.3175 22.7417 30.4638 22.9575 30.5317 23.2023L31.6541 26.8047H31.6565Z" fill="#0095B7"/>
</svg>
