<svg width="40" height="40" viewBox="0 0 40 40" fill="none" xmlns="http://www.w3.org/2000/svg">
<path d="M30.805 27.945C28.5269 28.492 26.1488 28.4655 23.8835 27.8678C21.6182 27.2702 19.5365 26.1201 17.8247 24.5205C16.113 22.9209 14.8247 20.9217 14.0752 18.7021C13.3257 16.4824 13.1384 14.1115 13.53 11.8016C13.4704 11.8592 13.4076 11.9131 13.3417 11.9633C12.875 12.3183 12.2917 12.45 11.125 12.7133L10.0667 12.9533C5.96667 13.8816 3.91667 14.345 3.42833 15.9133C2.94167 17.48 4.33833 19.115 7.13333 22.3833L7.85667 23.2283C8.65 24.1566 9.04833 24.6216 9.22667 25.195C9.405 25.77 9.345 26.39 9.225 27.6283L9.115 28.7566C8.69333 33.1183 8.48167 35.2983 9.75833 36.2666C11.035 37.2366 12.955 36.3533 16.7917 34.585L17.7867 34.1283C18.8767 33.625 19.4217 33.375 20 33.375C20.5783 33.375 21.1233 33.625 22.215 34.1283L23.2067 34.585C27.045 36.3516 28.965 37.235 30.24 36.2683C31.5183 35.2983 31.3067 33.1183 30.885 28.7566L30.805 27.945Z" fill="#0095B7"/>
<path opacity="0.5" d="M15.255 9.01337L14.7083 9.99337C14.1083 11.07 13.8083 11.6084 13.3417 11.9634C13.4083 11.9134 13.47 11.86 13.53 11.8017C13.1383 14.1117 13.3256 16.4828 14.0752 18.7027C14.8248 20.9225 16.1132 22.9218 17.8252 24.5214C19.5371 26.1211 21.6191 27.2712 23.8846 27.8686C26.1501 28.4661 28.5285 28.4924 30.8067 27.945L30.7733 27.6284C30.655 26.39 30.595 25.77 30.7733 25.195C30.9517 24.6217 31.3483 24.1567 32.1433 23.2284L32.8667 22.3834C35.6617 19.1167 37.0583 17.4817 36.57 15.9134C36.0833 14.345 34.0333 13.88 29.9333 12.9534L28.8733 12.7134C27.7083 12.45 27.125 12.3184 26.6567 11.9634C26.19 11.6084 25.89 11.07 25.29 9.99337L24.745 9.01337C22.6333 5.22671 21.5783 3.33337 20 3.33337C18.4217 3.33337 17.3667 5.22671 15.255 9.01337Z" fill="#0095B7"/>
</svg>
