<svg width="180" height="20" viewBox="0 0 180 20" fill="none" xmlns="http://www.w3.org/2000/svg">
<path d="M80.0823 14.3572H73.1187L76.6005 19.4139L80.0823 14.3572Z" fill="white"/>
<path d="M13.7035 5.65873C13.5689 5.53431 13.3189 5.36544 12.9534 5.15214C12.6073 4.93884 12.1745 4.73443 11.6552 4.5389C11.1552 4.34337 10.607 4.17451 10.0108 4.03231C9.41457 3.87233 8.80873 3.79234 8.19327 3.79234C7.11622 3.79234 6.29882 3.97898 5.74106 4.35226C5.20254 4.72554 4.93327 5.2499 4.93327 5.92536C4.93327 6.44084 5.10637 6.84966 5.45257 7.15184C5.79876 7.45402 6.31805 7.71176 7.01044 7.92506C7.70283 8.13836 8.56832 8.36944 9.6069 8.61829C10.9532 8.92046 12.1168 9.29374 13.0977 9.73812C14.0978 10.1647 14.8575 10.7335 15.3768 11.4445C15.9153 12.1378 16.1846 13.0621 16.1846 14.2174C16.1846 15.2306 15.9826 16.1016 15.5788 16.8304C15.1749 17.5414 14.6171 18.1191 13.9055 18.5635C13.1939 19.0078 12.3861 19.3367 11.4821 19.55C10.5782 19.7455 9.61652 19.8433 8.59717 19.8433C7.57781 19.8433 6.55846 19.7455 5.53911 19.55C4.51976 19.3545 3.53888 19.0789 2.59646 18.7234C1.65404 18.3502 0.788554 17.9058 0 17.3903L1.75982 14.2174C1.93292 14.3774 2.24065 14.5907 2.68301 14.8574C3.12537 15.1062 3.66389 15.3639 4.29858 15.6306C4.93327 15.8794 5.62566 16.0927 6.37575 16.2705C7.12584 16.4482 7.88554 16.5371 8.65487 16.5371C9.73191 16.5371 10.5493 16.3682 11.1071 16.0305C11.6648 15.6928 11.9437 15.2129 11.9437 14.5907C11.9437 14.0219 11.7225 13.5775 11.2802 13.2576C10.8378 12.9376 10.2224 12.6621 9.4338 12.431C8.64525 12.1822 7.71245 11.9156 6.6354 11.6312C5.34678 11.2934 4.26973 10.9202 3.40425 10.5113C2.53876 10.0847 1.89445 9.55148 1.47133 8.91158C1.0482 8.27167 0.836637 7.47179 0.836637 6.51194C0.836637 5.21435 1.1636 4.13007 1.81752 3.25909C2.49068 2.37034 3.39463 1.70377 4.52938 1.25939C5.66413 0.797239 6.92389 0.566162 8.30867 0.566162C9.27032 0.566162 10.1743 0.663925 11.0205 0.859451C11.886 1.05498 12.6938 1.31272 13.4439 1.63267C14.194 1.95262 14.8671 2.29924 15.4634 2.67251L13.7035 5.65873Z" fill="white"/>
<path d="M27.9345 19.7633C26.4343 19.7633 25.0688 19.4967 23.8378 18.9634C22.6262 18.4301 21.578 17.7103 20.6932 16.8037C19.8278 15.8794 19.1546 14.8485 18.6738 13.7109C18.1929 12.5555 17.9525 11.3734 17.9525 10.1647C17.9525 8.90269 18.2026 7.70287 18.7026 6.56526C19.2219 5.40988 19.9239 4.38781 20.8086 3.49906C21.7126 2.59253 22.7704 1.88152 23.9821 1.36604C25.213 0.832789 26.5593 0.566162 28.021 0.566162C29.502 0.566162 30.8483 0.841676 32.06 1.39271C33.2909 1.94373 34.3391 2.6814 35.2046 3.60571C36.07 4.53001 36.7432 5.56097 37.224 6.69858C37.7049 7.83618 37.9453 9.00934 37.9453 10.218C37.9453 11.4623 37.6952 12.6621 37.1952 13.8175C36.6951 14.9551 35.9931 15.9772 35.0892 16.8837C34.2044 17.7725 33.1466 18.4746 31.9157 18.9901C30.704 19.5055 29.377 19.7633 27.9345 19.7633ZM21.9915 10.1647C21.9915 10.9824 22.1261 11.7734 22.3954 12.5377C22.6646 13.302 23.0493 13.9864 23.5493 14.5907C24.0686 15.1773 24.6937 15.6483 25.4246 16.0038C26.1747 16.3416 27.0209 16.5104 27.9633 16.5104C28.925 16.5104 29.7808 16.3327 30.5309 15.9772C31.281 15.6039 31.9061 15.1151 32.4062 14.5107C32.9062 13.8886 33.2813 13.2043 33.5313 12.4577C33.8006 11.6934 33.9352 10.9291 33.9352 10.1647C33.9352 9.34707 33.7909 8.56496 33.5024 7.81841C33.2332 7.05408 32.8389 6.37862 32.3196 5.79204C31.8196 5.18769 31.1945 4.71665 30.4444 4.37892C29.7135 4.02342 28.8865 3.84567 27.9633 3.84567C26.9824 3.84567 26.117 4.03231 25.3669 4.40559C24.636 4.76109 24.0206 5.24102 23.5205 5.84537C23.0204 6.44972 22.6358 7.12518 22.3665 7.87173C22.1165 8.61829 21.9915 9.38262 21.9915 10.1647Z" fill="white"/>
<path d="M39.7587 10.0314C39.7587 8.87603 39.9799 7.74731 40.4223 6.64525C40.8839 5.52542 41.5474 4.51224 42.4129 3.60571C43.2784 2.6814 44.3362 1.95262 45.5863 1.41937C46.8365 0.868339 48.2597 0.592824 49.8561 0.592824C51.7409 0.592824 53.3661 0.97499 54.7317 1.73932C56.1164 2.50365 57.1454 3.49906 57.8186 4.72554L54.7605 6.67191C54.4143 5.96091 53.9623 5.40099 53.4046 4.99217C52.8468 4.56556 52.2506 4.27227 51.6159 4.1123C50.9812 3.93455 50.3561 3.84567 49.7407 3.84567C48.7406 3.84567 47.8655 4.03231 47.1154 4.40559C46.3845 4.77886 45.7691 5.26768 45.269 5.87203C44.7689 6.47639 44.3939 7.15184 44.1439 7.8984C43.9131 8.64495 43.7977 9.39151 43.7977 10.1381C43.7977 10.9735 43.9419 11.7823 44.2304 12.5644C44.5189 13.3287 44.9228 14.013 45.4421 14.6174C45.9806 15.204 46.6153 15.675 47.3462 16.0305C48.0963 16.3682 48.9137 16.5371 49.7984 16.5371C50.4331 16.5371 51.0774 16.4393 51.7313 16.2438C52.3852 16.0483 52.9911 15.7372 53.5488 15.3106C54.1066 14.884 54.5393 14.333 54.847 13.6575L58.107 15.3906C57.7032 16.3327 57.0396 17.1326 56.1164 17.7902C55.2125 18.4479 54.1931 18.9456 53.0584 19.2834C51.9236 19.6211 50.7985 19.7899 49.683 19.7899C48.2213 19.7899 46.8846 19.5144 45.6729 18.9634C44.4612 18.3946 43.413 17.648 42.5283 16.7237C41.6628 15.7817 40.98 14.7329 40.48 13.5775C39.9991 12.4044 39.7587 11.2223 39.7587 10.0314Z" fill="white"/>
<path d="M60.777 19.63V2.67251L64.7582 0.699475V19.63H60.777Z" fill="white"/>
<path d="M74.5998 0.699475H78.6387L86.1684 19.63H82.0718L80.1677 14.9107L76.6192 4.51224L73.013 14.9107L71.1378 19.63H67.0412L74.5998 0.699475Z" fill="white"/>
<path d="M88.8589 0.699475L94.398 15.2573L99.8794 0.699475H104.063L96.302 19.63H92.4651L84.6757 0.699475H88.8589Z" fill="white"/>
<path d="M106.249 19.63V2.67251L110.23 0.699475V19.63H106.249Z" fill="white"/>
<path d="M126.707 5.65873C126.572 5.53431 126.322 5.36544 125.957 5.15214C125.611 4.93884 125.178 4.73443 124.659 4.5389C124.159 4.34337 123.61 4.17451 123.014 4.03231C122.418 3.87233 121.812 3.79234 121.197 3.79234C120.12 3.79234 119.302 3.97898 118.745 4.35226C118.206 4.72554 117.937 5.2499 117.937 5.92536C117.937 6.44084 118.11 6.84966 118.456 7.15184C118.802 7.45402 119.322 7.71176 120.014 7.92506C120.706 8.13836 121.572 8.36944 122.61 8.61829C123.957 8.92046 125.12 9.29374 126.101 9.73812C127.101 10.1647 127.861 10.7335 128.38 11.4445C128.919 12.1378 129.188 13.0621 129.188 14.2174C129.188 15.2306 128.986 16.1016 128.582 16.8304C128.178 17.5414 127.621 18.1191 126.909 18.5635C126.197 19.0078 125.39 19.3367 124.486 19.55C123.582 19.7455 122.62 19.8433 121.601 19.8433C120.581 19.8433 119.562 19.7455 118.543 19.55C117.523 19.3545 116.542 19.0789 115.6 18.7234C114.657 18.3502 113.792 17.9058 113.003 17.3903L114.763 14.2174C114.936 14.3774 115.244 14.5907 115.686 14.8574C116.129 15.1062 116.667 15.3639 117.302 15.6306C117.937 15.8794 118.629 16.0927 119.379 16.2705C120.129 16.4482 120.889 16.5371 121.658 16.5371C122.735 16.5371 123.553 16.3682 124.111 16.0305C124.668 15.6928 124.947 15.2129 124.947 14.5907C124.947 14.0219 124.726 13.5775 124.284 13.2576C123.841 12.9376 123.226 12.6621 122.437 12.431C121.649 12.1822 120.716 11.9156 119.639 11.6312C118.35 11.2934 117.273 10.9202 116.408 10.5113C115.542 10.0847 114.898 9.55148 114.475 8.91158C114.052 8.27167 113.84 7.47179 113.84 6.51194C113.84 5.21435 114.167 4.13007 114.821 3.25909C115.494 2.37034 116.398 1.70377 117.533 1.25939C118.668 0.797239 119.927 0.566162 121.312 0.566162C122.274 0.566162 123.178 0.663925 124.024 0.859451C124.889 1.05498 125.697 1.31272 126.447 1.63267C127.197 1.95262 127.871 2.29924 128.467 2.67251L126.707 5.65873Z" fill="white"/>
<path d="M132.197 19.63V2.67251L136.178 0.699475V19.63H132.197Z" fill="white"/>
<path d="M149.193 19.7633C147.693 19.7633 146.327 19.4967 145.096 18.9634C143.884 18.4301 142.836 17.7103 141.952 16.8037C141.086 15.8794 140.413 14.8485 139.932 13.7109C139.451 12.5555 139.211 11.3734 139.211 10.1647C139.211 8.90269 139.461 7.70287 139.961 6.56526C140.48 5.40988 141.182 4.38781 142.067 3.49906C142.971 2.59253 144.029 1.88152 145.24 1.36604C146.471 0.832789 147.818 0.566162 149.279 0.566162C150.76 0.566162 152.107 0.841676 153.318 1.39271C154.549 1.94373 155.597 2.6814 156.463 3.60571C157.328 4.53001 158.001 5.56097 158.482 6.69858C158.963 7.83618 159.204 9.00934 159.204 10.218C159.204 11.4623 158.954 12.6621 158.453 13.8175C157.953 14.9551 157.251 15.9772 156.347 16.8837C155.463 17.7725 154.405 18.4746 153.174 18.9901C151.962 19.5055 150.635 19.7633 149.193 19.7633ZM143.25 10.1647C143.25 10.9824 143.384 11.7734 143.654 12.5377C143.923 13.302 144.308 13.9864 144.808 14.5907C145.327 15.1773 145.952 15.6483 146.683 16.0038C147.433 16.3416 148.279 16.5104 149.222 16.5104C150.183 16.5104 151.039 16.3327 151.789 15.9772C152.539 15.6039 153.164 15.1151 153.664 14.5107C154.164 13.8886 154.54 13.2043 154.79 12.4577C155.059 11.6934 155.193 10.9291 155.193 10.1647C155.193 9.34707 155.049 8.56496 154.761 7.81841C154.491 7.05408 154.097 6.37862 153.578 5.79204C153.078 5.18769 152.453 4.71665 151.703 4.37892C150.972 4.02342 150.145 3.84567 149.222 3.84567C148.241 3.84567 147.375 4.03231 146.625 4.40559C145.894 4.76109 145.279 5.24102 144.779 5.84537C144.279 6.44972 143.894 7.12518 143.625 7.87173C143.375 8.61829 143.25 9.38262 143.25 10.1647Z" fill="white"/>
<path d="M166.239 7.47179V19.63H162.258V0.699475H165.431L176.019 13.1776V0.726138H180V19.63H176.682L166.239 7.47179Z" fill="white"/>
</svg>
