<svg width="181" height="20" viewBox="0 0 181 20" fill="none" xmlns="http://www.w3.org/2000/svg">
<path d="M80.5 14.6342H73.5L77 20L80.5 14.6342Z" fill="#0095B7"/>
<path d="M13.7797 5.15467C13.6443 5.02873 13.3929 4.85781 13.0254 4.64191C12.6773 4.426 12.2421 4.2191 11.72 4.02118C11.2171 3.82327 10.6659 3.65235 10.0664 3.50842C9.46687 3.34649 8.85767 3.26553 8.23879 3.26553C7.15576 3.26553 6.33381 3.45444 5.77296 3.83227C5.23144 4.2101 4.96068 4.74086 4.96068 5.42455C4.96068 5.94632 5.13474 6.36013 5.48286 6.66599C5.83098 6.97185 6.35315 7.23274 7.04939 7.44864C7.74562 7.66454 8.61592 7.89844 9.66027 8.15032C11.0141 8.45618 12.1841 8.83401 13.1705 9.28381C14.1761 9.71562 14.9401 10.2914 15.4622 11.011C16.0038 11.7127 16.2745 12.6483 16.2745 13.8178C16.2745 14.8433 16.0714 15.7249 15.6653 16.4626C15.2592 17.1822 14.6983 17.767 13.9827 18.2168C13.2672 18.6666 12.4549 18.9994 11.5459 19.2153C10.6369 19.4132 9.66994 19.5122 8.64493 19.5122C7.61991 19.5122 6.5949 19.4132 5.56989 19.2153C4.54487 19.0174 3.55854 18.7385 2.61088 18.3787C1.66323 18.0009 0.792935 17.5511 0 17.0293L1.7696 13.8178C1.94366 13.9797 2.2531 14.1956 2.69791 14.4655C3.14273 14.7174 3.68425 14.9782 4.32246 15.2481C4.96068 15.5 5.65692 15.7159 6.41117 15.8958C7.16543 16.0757 7.92935 16.1657 8.70295 16.1657C9.78598 16.1657 10.6079 15.9948 11.1688 15.6529C11.7296 15.3111 12.0101 14.8253 12.0101 14.1956C12.0101 13.6199 11.7877 13.1701 11.3428 12.8462C10.898 12.5224 10.2791 12.2435 9.48621 12.0096C8.69328 11.7577 7.75529 11.4878 6.67226 11.1999C5.37649 10.8581 4.29345 10.4803 3.42316 10.0665C2.55286 9.63465 1.90498 9.0949 1.4795 8.44719C1.05402 7.79948 0.841285 6.98985 0.841285 6.01828C0.841285 4.70488 1.17006 3.60737 1.82762 2.72577C2.50451 1.82618 3.41349 1.15148 4.55454 0.701684C5.6956 0.233895 6.96236 0 8.35483 0C9.32182 0 10.2308 0.0989551 11.0818 0.296865C11.952 0.494777 12.7643 0.755659 13.5186 1.07951C14.2728 1.40337 14.9497 1.75421 15.5493 2.13204L13.7797 5.15467Z" fill="#212121"/>
<path d="M28.0897 19.4312C26.5812 19.4312 25.208 19.1614 23.9703 18.6216C22.7519 18.0818 21.6978 17.3532 20.8082 16.4356C19.9379 15.5 19.261 14.4565 18.7775 13.305C18.294 12.1355 18.0523 10.9391 18.0523 9.71562C18.0523 8.43819 18.3037 7.22374 18.8065 6.07226C19.3287 4.90279 20.0346 3.86826 20.9242 2.96866C21.8332 2.05107 22.8969 1.3314 24.1153 0.809634C25.3531 0.269878 26.7069 0 28.1767 0C29.6659 0 31.0197 0.278874 32.2381 0.836623C33.4758 1.39437 34.5299 2.14103 35.4001 3.07661C36.2704 4.01219 36.9473 5.05572 37.4308 6.2072C37.9143 7.35868 38.1561 8.54614 38.1561 9.76959C38.1561 11.029 37.9047 12.2435 37.4018 13.4129C36.899 14.5644 36.1931 15.599 35.2841 16.5165C34.3945 17.4161 33.3308 18.1268 32.093 18.6486C30.8746 19.1704 29.5402 19.4312 28.0897 19.4312ZM22.1136 9.71562C22.1136 10.5432 22.249 11.3439 22.5198 12.1175C22.7905 12.8912 23.1773 13.5839 23.6802 14.1956C24.2024 14.7893 24.8309 15.2661 25.5658 15.6259C26.3201 15.9678 27.171 16.1387 28.1187 16.1387C29.0857 16.1387 29.9463 15.9588 30.7006 15.599C31.4548 15.2211 32.0834 14.7264 32.5862 14.1146C33.089 13.4849 33.4662 12.7922 33.7176 12.0366C33.9883 11.2629 34.1237 10.4893 34.1237 9.71562C34.1237 8.88799 33.9787 8.09635 33.6886 7.34069C33.4178 6.56704 33.0213 5.88335 32.4992 5.28961C31.9963 4.67789 31.3678 4.2011 30.6135 3.85926C29.8786 3.49942 29.047 3.3195 28.1187 3.3195C27.1323 3.3195 26.2621 3.50842 25.5078 3.88625C24.7729 4.24608 24.154 4.73187 23.6512 5.34359C23.1483 5.95531 22.7615 6.639 22.4908 7.39466C22.2394 8.15032 22.1136 8.92397 22.1136 9.71562Z" fill="#212121"/>
<path d="M39.9796 9.58068C39.9796 8.4112 40.202 7.26872 40.6468 6.15322C41.111 5.01974 41.7782 3.9942 42.6485 3.07661C43.5188 2.14103 44.5825 1.40337 45.8396 0.86361C47.0967 0.305862 48.5278 0.0269875 50.1331 0.0269875C52.0284 0.0269875 53.6626 0.413813 55.0357 1.18746C56.4282 1.96112 57.4629 2.96866 58.1398 4.2101L55.0647 6.18021C54.7166 5.46054 54.2621 4.89379 53.7013 4.47998C53.1404 4.04817 52.5409 3.75131 51.9027 3.58938C51.2644 3.40946 50.6359 3.3195 50.017 3.3195C49.0113 3.3195 48.1314 3.50842 47.3771 3.88625C46.6422 4.26408 46.0233 4.75885 45.5205 5.37058C45.0177 5.9823 44.6405 6.66599 44.3891 7.42165C44.157 8.17731 44.041 8.93297 44.041 9.68863C44.041 10.5342 44.186 11.3529 44.4761 12.1445C44.7662 12.9182 45.1724 13.6109 45.6946 14.2226C46.2361 14.8163 46.8743 15.2931 47.6092 15.6529C48.3635 15.9948 49.1854 16.1657 50.075 16.1657C50.7133 16.1657 51.3611 16.0667 52.0187 15.8688C52.6763 15.6709 53.2855 15.3561 53.8463 14.9243C54.4072 14.4925 54.8423 13.9347 55.1518 13.251L58.4299 15.0052C58.0237 15.9588 57.3565 16.7684 56.4282 17.4341C55.5192 18.0998 54.4942 18.6036 53.3531 18.9455C52.2121 19.2873 51.0807 19.4582 49.959 19.4582C48.4892 19.4582 47.145 19.1793 45.9266 18.6216C44.7082 18.0459 43.6542 17.2902 42.7646 16.3546C41.8943 15.4011 41.2077 14.3395 40.7049 13.1701C40.2214 11.9826 39.9796 10.7861 39.9796 9.58068Z" fill="#212121"/>
<path d="M61.1146 19.2963V2.13204L65.118 0.134939V19.2963H61.1146Z" fill="#212121"/>
<path d="M75.0142 0.134939H79.0756L86.6471 19.2963H82.5277L80.6131 14.5194L77.0449 3.9942L73.4187 14.5194L71.533 19.2963H67.4136L75.0142 0.134939Z" fill="#212121"/>
<path d="M89.3525 0.134939L94.9224 14.8703L100.434 0.134939H104.641L96.8371 19.2963H92.9788L85.1461 0.134939H89.3525Z" fill="#212121"/>
<path d="M106.839 19.2963V2.13204L110.842 0.134939V19.2963H106.839Z" fill="#212121"/>
<path d="M127.411 5.15467C127.276 5.02873 127.024 4.85781 126.657 4.64191C126.309 4.426 125.873 4.2191 125.351 4.02118C124.848 3.82327 124.297 3.65235 123.698 3.50842C123.098 3.34649 122.489 3.26553 121.87 3.26553C120.787 3.26553 119.965 3.45444 119.404 3.83227C118.863 4.2101 118.592 4.74086 118.592 5.42455C118.592 5.94632 118.766 6.36013 119.114 6.66599C119.462 6.97185 119.984 7.23274 120.681 7.44864C121.377 7.66454 122.247 7.89844 123.292 8.15032C124.645 8.45618 125.815 8.83401 126.802 9.28381C127.807 9.71562 128.571 10.2914 129.093 11.011C129.635 11.7127 129.906 12.6483 129.906 13.8178C129.906 14.8433 129.703 15.7249 129.297 16.4626C128.89 17.1822 128.33 17.767 127.614 18.2168C126.898 18.6666 126.086 18.9994 125.177 19.2153C124.268 19.4132 123.301 19.5122 122.276 19.5122C121.251 19.5122 120.226 19.4132 119.201 19.2153C118.176 19.0174 117.19 18.7385 116.242 18.3787C115.294 18.0009 114.424 17.5511 113.631 17.0293L115.401 13.8178C115.575 13.9797 115.884 14.1956 116.329 14.4655C116.774 14.7174 117.316 14.9782 117.954 15.2481C118.592 15.5 119.288 15.7159 120.042 15.8958C120.797 16.0757 121.561 16.1657 122.334 16.1657C123.417 16.1657 124.239 15.9948 124.8 15.6529C125.361 15.3111 125.641 14.8253 125.641 14.1956C125.641 13.6199 125.419 13.1701 124.974 12.8462C124.529 12.5224 123.91 12.2435 123.117 12.0096C122.325 11.7577 121.387 11.4878 120.304 11.1999C119.008 10.8581 117.925 10.4803 117.054 10.0665C116.184 9.63465 115.536 9.0949 115.111 8.44719C114.685 7.79948 114.473 6.98985 114.473 6.01828C114.473 4.70488 114.801 3.60737 115.459 2.72577C116.136 1.82618 117.045 1.15148 118.186 0.701684C119.327 0.233895 120.594 0 121.986 0C122.953 0 123.862 0.0989551 124.713 0.296865C125.583 0.494777 126.396 0.755659 127.15 1.07951C127.904 1.40337 128.581 1.75421 129.181 2.13204L127.411 5.15467Z" fill="#212121"/>
<path d="M132.931 19.2963V2.13204L136.934 0.134939V19.2963H132.931Z" fill="#212121"/>
<path d="M150.022 19.4312C148.513 19.4312 147.14 19.1614 145.902 18.6216C144.684 18.0818 143.63 17.3532 142.74 16.4356C141.87 15.5 141.193 14.4565 140.709 13.305C140.226 12.1355 139.984 10.9391 139.984 9.71562C139.984 8.43819 140.236 7.22374 140.738 6.07226C141.261 4.90279 141.967 3.86826 142.856 2.96866C143.765 2.05107 144.829 1.3314 146.047 0.809634C147.285 0.269878 148.639 0 150.109 0C151.598 0 152.952 0.278874 154.17 0.836623C155.408 1.39437 156.462 2.14103 157.332 3.07661C158.202 4.01219 158.879 5.05572 159.363 6.2072C159.846 7.35868 160.088 8.54614 160.088 9.76959C160.088 11.029 159.837 12.2435 159.334 13.4129C158.831 14.5644 158.125 15.599 157.216 16.5165C156.326 17.4161 155.263 18.1268 154.025 18.6486C152.807 19.1704 151.472 19.4312 150.022 19.4312ZM144.046 9.71562C144.046 10.5432 144.181 11.3439 144.452 12.1175C144.722 12.8912 145.109 13.5839 145.612 14.1956C146.134 14.7893 146.763 15.2661 147.498 15.6259C148.252 15.9678 149.103 16.1387 150.051 16.1387C151.018 16.1387 151.878 15.9588 152.632 15.599C153.387 15.2211 154.015 14.7264 154.518 14.1146C155.021 13.4849 155.398 12.7922 155.65 12.0366C155.92 11.2629 156.056 10.4893 156.056 9.71562C156.056 8.88799 155.911 8.09635 155.62 7.34069C155.35 6.56704 154.953 5.88335 154.431 5.28961C153.928 4.67789 153.3 4.2011 152.545 3.85926C151.811 3.49942 150.979 3.3195 150.051 3.3195C149.064 3.3195 148.194 3.50842 147.44 3.88625C146.705 4.24608 146.086 4.73187 145.583 5.34359C145.08 5.95531 144.693 6.639 144.423 7.39466C144.171 8.15032 144.046 8.92397 144.046 9.71562Z" fill="#212121"/>
<path d="M167.162 6.98985V19.2963H163.159V0.134939H166.35L176.997 12.7652V0.161926H181V19.2963H177.664L167.162 6.98985Z" fill="#212121"/>
</svg>
