<svg width="48" height="48" viewBox="0 0 48 48" fill="none" xmlns="http://www.w3.org/2000/svg">
<g clip-path="url(#clip0_845_286)">
<path fill-rule="evenodd" clip-rule="evenodd" d="M23.9999 28.242L34.6059 38.85C35.1687 39.4128 35.932 39.729 36.7279 39.729C37.5238 39.729 38.2871 39.4128 38.8499 38.85C39.4127 38.2872 39.7289 37.5239 39.7289 36.728C39.7289 35.9321 39.4127 35.1688 38.8499 34.606L28.2399 24L38.8479 13.394C39.1265 13.1153 39.3474 12.7845 39.4981 12.4205C39.6488 12.0565 39.7263 11.6663 39.7262 11.2723C39.7261 10.8783 39.6484 10.4882 39.4975 10.1242C39.3467 9.76023 39.1256 9.42954 38.8469 9.15101C38.5683 8.87247 38.2375 8.65155 37.8734 8.50086C37.5094 8.35017 37.1192 8.27266 36.7252 8.27275C36.3312 8.27285 35.9411 8.35054 35.5771 8.5014C35.2132 8.65227 34.8825 8.87334 34.6039 9.15201L23.9999 19.758L13.3939 9.15201C13.1173 8.86535 12.7864 8.63665 12.4205 8.47925C12.0545 8.32185 11.6609 8.23891 11.2626 8.23526C10.8642 8.23162 10.4692 8.30734 10.1004 8.458C9.73166 8.60867 9.3966 8.83127 9.11479 9.11282C8.83298 9.39436 8.61006 9.72921 8.45904 10.0978C8.30803 10.4664 8.23194 10.8614 8.23521 11.2598C8.23848 11.6581 8.32105 12.0518 8.4781 12.4179C8.63516 12.784 8.86354 13.1151 9.14994 13.392L19.7599 24L9.15194 34.606C8.58915 35.1688 8.27298 35.9321 8.27298 36.728C8.27298 37.5239 8.58915 38.2872 9.15194 38.85C9.71473 39.4128 10.478 39.729 11.2739 39.729C12.0698 39.729 12.8332 39.4128 13.3959 38.85L23.9999 28.24V28.242Z" fill="#3C3C3C"/>
</g>
<defs>
<clipPath id="clip0_845_286">
<rect width="48" height="48" fill="white"/>
</clipPath>
</defs>
</svg>
