<svg width="48" height="48" viewBox="0 0 48 48" fill="none" xmlns="http://www.w3.org/2000/svg">
<path d="M41.3404 12.66C41.7618 13.0819 41.9985 13.6537 41.9985 14.25C41.9985 14.8463 41.7618 15.4181 41.3404 15.84L19.5904 37.59C19.1686 38.0114 18.5967 38.248 18.0004 38.248C17.4042 38.248 16.8323 38.0114 16.4104 37.59L6.66044 27.84C6.26322 27.4132 6.04691 26.8491 6.05698 26.2661C6.06705 25.6832 6.30271 25.1268 6.71444 24.714C7.12725 24.3023 7.6836 24.0666 8.26655 24.0565C8.8495 24.0465 9.41366 24.2628 9.84044 24.66L18.0004 32.82L38.1604 12.66C38.5823 12.2386 39.1542 12.002 39.7504 12.002C40.3467 12.002 40.9186 12.2386 41.3404 12.66Z" fill="white"/>
</svg>
