<svg width="30" height="30" viewBox="0 0 30 30" fill="none" xmlns="http://www.w3.org/2000/svg">
<path d="M13.9324 15.6537C14.4074 14.8012 14.6449 14.375 14.9999 14.375C15.3549 14.375 15.5924 14.8 16.0674 15.6537L16.1899 15.8738C16.3249 16.1163 16.3924 16.2363 16.4974 16.3163C16.6036 16.3963 16.7349 16.4262 16.9974 16.485L17.2349 16.54C18.1574 16.7488 18.6186 16.8525 18.7286 17.205C18.8386 17.5587 18.5236 17.9262 17.8949 18.6612L17.7324 18.8513C17.5536 19.06 17.4636 19.1638 17.4236 19.2938C17.3836 19.4238 17.3974 19.5625 17.4236 19.8413L17.4486 20.095C17.5436 21.0763 17.5911 21.5675 17.3049 21.785C17.0174 22.0025 16.5849 21.8037 15.7211 21.4062L15.4986 21.3037C15.2524 21.1912 15.1299 21.1337 14.9999 21.1337C14.8699 21.1337 14.7474 21.1912 14.5011 21.3037L14.2786 21.4062C13.4149 21.805 12.9824 22.0025 12.6949 21.785C12.4074 21.5675 12.4561 21.0763 12.5511 20.095L12.5761 19.8413C12.6024 19.5625 12.6161 19.4238 12.5761 19.2938C12.5361 19.165 12.4461 19.06 12.2674 18.8513L12.1049 18.6612C11.4761 17.9262 11.1611 17.5587 11.2711 17.205C11.3811 16.8525 11.8424 16.7488 12.7649 16.54L13.0024 16.485C13.2649 16.4262 13.3961 16.3975 13.5024 16.3163C13.6074 16.2363 13.6749 16.1163 13.8099 15.8738L13.9324 15.6537Z" stroke="#0095B7" stroke-width="1.5"/>
<path d="M27.2973 13.9075C27.5223 11.5175 27.6348 10.3212 27.226 9.8275C27.123 9.69877 26.9952 9.59189 26.8504 9.51312C26.7055 9.43435 26.5464 9.38527 26.3823 9.36875C25.7873 9.31625 25.041 10.1663 23.5473 11.8663C22.7748 12.7463 22.3885 13.185 21.9585 13.2537C21.7184 13.2912 21.4725 13.2518 21.256 13.1412C20.8573 12.9412 20.5935 12.3975 20.0623 11.3112L17.266 5.58125C16.2635 3.5275 15.7623 2.5 14.9998 2.5C14.2373 2.5 13.736 3.5275 12.7335 5.58125L9.93728 11.3112C9.40728 12.3987 9.14228 12.9412 8.74353 13.1412C8.52701 13.2517 8.2812 13.291 8.04103 13.2537C7.61103 13.185 7.22478 12.7463 6.45228 11.8663C4.95853 10.1663 4.21228 9.31625 3.61728 9.36875C3.4532 9.38527 3.29407 9.43435 3.14919 9.51312C3.00431 9.59189 2.8766 9.69877 2.77353 9.8275C2.36478 10.3212 2.47728 11.5175 2.70228 13.9075L2.98853 16.9525C3.46103 21.9675 3.69603 24.4763 5.17603 25.9875C6.65228 27.5 8.86728 27.5 13.2998 27.5H16.6985C21.1298 27.5 23.3448 27.5 24.8235 25.9875C25.966 24.8188 26.366 23.0562 26.7073 20" stroke="#0095B7" stroke-width="1.5" stroke-linecap="round"/>
</svg>
