<svg width="30" height="30" viewBox="0 0 30 30" fill="none" xmlns="http://www.w3.org/2000/svg">
<path d="M10 11.25H20M10 15.625H16.875" stroke="#0095B7" stroke-width="1.5" stroke-linecap="round"/>
<path d="M1.5625 13.125C1.5625 13.3736 1.66127 13.6121 1.83709 13.7879C2.0129 13.9637 2.25136 14.0625 2.5 14.0625C2.74864 14.0625 2.9871 13.9637 3.16291 13.7879C3.33873 13.6121 3.4375 13.3736 3.4375 13.125H1.5625ZM3.8425 19.5325C3.74735 19.3028 3.56484 19.1202 3.33511 19.025C3.10537 18.9299 2.84724 18.9299 2.6175 19.025C2.38776 19.1201 2.20522 19.3027 2.11004 19.5324C2.01487 19.7621 2.01485 20.0203 2.11 20.25L3.8425 19.5325ZM17.165 27.2125L17.8425 26.0675L16.23 25.1125L15.5513 26.2575L17.165 27.2125ZM12.1575 26.0675L12.835 27.2125L14.4475 26.2575L13.7712 25.1125L12.1575 26.0675ZM15.5513 26.2575C15.4928 26.351 15.4116 26.4281 15.3151 26.4816C15.2187 26.535 15.1103 26.5631 15 26.5631C14.8897 26.5631 14.7813 26.535 14.6849 26.4816C14.5884 26.4281 14.5072 26.351 14.4487 26.2575L12.835 27.2125C13.8012 28.8463 16.1975 28.8463 17.165 27.2125L15.5525 26.2575H15.5513ZM13.125 3.4375H16.875V1.5625H13.125V3.4375ZM26.5625 13.125V14.375H28.4375V13.125H26.5625ZM9.75375 22.8025C8.18375 22.775 7.36125 22.675 6.71625 22.4075L6 24.14C7.00625 24.5575 8.15125 24.6513 9.72125 24.6787L9.75375 22.8025ZM2.11 20.25C2.47121 21.1221 3.00065 21.9145 3.6681 22.5819C4.33555 23.2493 5.12793 23.7788 6 24.14L6.71625 22.4075C5.4146 21.8683 4.38168 20.8342 3.8425 19.5325L2.11 20.25ZM26.5625 14.375C26.5625 15.8438 26.5625 16.8988 26.505 17.7313C26.4488 18.555 26.3412 19.0925 26.1588 19.5325L27.89 20.25C28.1838 19.5425 28.3125 18.7775 28.3763 17.8587C28.4388 16.9475 28.4375 15.8188 28.4375 14.375H26.5625ZM20.2787 24.6762C21.8487 24.65 22.9938 24.5575 24 24.14L23.2825 22.4075C22.6388 22.675 21.8162 22.775 20.2475 22.8025L20.2787 24.6775V24.6762ZM26.1588 19.5325C25.6196 20.8342 24.5854 21.8683 23.2838 22.4075L24 24.14C24.8721 23.7788 25.6645 23.2493 26.3319 22.5819C26.9993 21.9145 27.5288 21.1221 27.89 20.25L26.1588 19.5325ZM16.875 3.4375C18.9387 3.4375 20.4212 3.4375 21.5775 3.54875C22.72 3.6575 23.4463 3.865 24.0263 4.22L25.005 2.62125C24.0812 2.05625 23.0337 1.80375 21.755 1.68125C20.49 1.56125 18.9025 1.5625 16.875 1.5625V3.4375ZM28.4375 13.125C28.4375 11.0975 28.4375 9.51125 28.3175 8.245C28.1962 6.96625 27.9438 5.9175 27.3787 4.995L25.7787 5.97375C26.135 6.55375 26.3425 7.28 26.4512 8.42375C26.5612 9.57875 26.5625 11.0612 26.5625 13.125H28.4375ZM24.025 4.22C24.7402 4.65787 25.3416 5.25884 25.78 5.97375L27.3787 4.995C26.786 4.02747 25.9725 3.21404 25.005 2.62125L24.0263 4.22125L24.025 4.22ZM13.125 1.5625C11.0975 1.5625 9.51125 1.5625 8.245 1.68125C6.96625 1.80375 5.9175 2.05625 4.995 2.62125L5.97375 4.22125C6.55375 3.865 7.28 3.6575 8.42375 3.54875C9.57875 3.43875 11.0612 3.4375 13.125 3.4375V1.5625ZM3.4375 13.125C3.4375 11.0612 3.4375 9.57875 3.54875 8.4225C3.6575 7.28 3.865 6.55375 4.22 5.97375L2.62125 4.99625C2.05625 5.91875 1.80375 6.96625 1.68125 8.245C1.5625 9.5125 1.5625 11.0975 1.5625 13.125H3.4375ZM4.995 2.62125C4.02747 3.21404 3.21404 4.02872 2.62125 4.99625L4.22125 5.97375C4.65892 5.25913 5.25944 4.65818 5.97375 4.22L4.995 2.62125ZM13.77 25.1125C13.5175 24.6838 13.295 24.305 13.0775 24.0075C12.8538 23.6813 12.5632 23.4064 12.225 23.2013L11.2825 24.8225C11.3413 24.8575 11.4225 24.92 11.5625 25.1125C11.7137 25.32 11.885 25.6075 12.1575 26.0675L13.77 25.1125ZM9.72125 24.6762C10.2712 24.6862 10.6175 24.6938 10.8825 24.7225C11.13 24.75 11.2262 24.79 11.2825 24.8225L12.225 23.2013C11.875 23.0074 11.4876 22.8906 11.0888 22.8588C10.7163 22.8175 10.2688 22.8113 9.75375 22.8025L9.72125 24.6787V24.6762ZM17.8425 26.0675C18.115 25.6087 18.2862 25.32 18.4375 25.1125C18.5775 24.92 18.6588 24.8575 18.7175 24.8225L17.775 23.2013C17.4125 23.4138 17.15 23.695 16.9225 24.0075C16.7063 24.305 16.4825 24.6825 16.2288 25.1125L17.8425 26.0675ZM20.2475 22.8025C19.7325 22.8113 19.2838 22.8175 18.9112 22.8588C18.5225 22.9025 18.1413 22.9888 17.775 23.2013L18.7175 24.8225C18.7738 24.79 18.87 24.75 19.1175 24.7225C19.3825 24.6938 19.73 24.685 20.28 24.6762L20.2475 22.8012V22.8025Z" fill="#0095B7"/>
</svg>
