<svg width="20" height="20" viewBox="0 0 20 20" fill="none" xmlns="http://www.w3.org/2000/svg">
<path d="M10.0008 7.5C9.33777 7.5 8.70189 7.76339 8.23305 8.23223C7.76421 8.70107 7.50081 9.33696 7.50081 10C7.50081 10.663 7.76421 11.2989 8.23305 11.7678C8.70189 12.2366 9.33777 12.5 10.0008 12.5C10.6639 12.5 11.2997 12.2366 11.7686 11.7678C12.2374 11.2989 12.5008 10.663 12.5008 10C12.5008 9.33696 12.2374 8.70107 11.7686 8.23223C11.2997 7.76339 10.6639 7.5 10.0008 7.5ZM10.0008 5.83333C11.1059 5.83333 12.1657 6.27232 12.9471 7.05372C13.7285 7.83512 14.1675 8.89493 14.1675 10C14.1675 11.1051 13.7285 12.1649 12.9471 12.9463C12.1657 13.7277 11.1059 14.1667 10.0008 14.1667C8.89574 14.1667 7.83594 13.7277 7.05454 12.9463C6.27313 12.1649 5.83415 11.1051 5.83415 10C5.83415 8.89493 6.27313 7.83512 7.05454 7.05372C7.83594 6.27232 8.89574 5.83333 10.0008 5.83333ZM15.4175 5.625C15.4175 5.90127 15.3077 6.16622 15.1124 6.36157C14.917 6.55692 14.6521 6.66667 14.3758 6.66667C14.0995 6.66667 13.8346 6.55692 13.6392 6.36157C13.4439 6.16622 13.3341 5.90127 13.3341 5.625C13.3341 5.34873 13.4439 5.08378 13.6392 4.88843C13.8346 4.69308 14.0995 4.58333 14.3758 4.58333C14.6521 4.58333 14.917 4.69308 15.1124 4.88843C15.3077 5.08378 15.4175 5.34873 15.4175 5.625ZM10.0008 3.33333C7.93915 3.33333 7.60248 3.33917 6.64331 3.38167C5.98998 3.4125 5.55165 3.5 5.14498 3.65833C4.80466 3.78328 4.49699 3.98355 4.24498 4.24417C3.98415 4.49617 3.78361 4.80382 3.65831 5.14417C3.49998 5.5525 3.41248 5.99 3.38248 6.6425C3.33915 7.5625 3.33331 7.88417 3.33331 10C3.33331 12.0625 3.33915 12.3983 3.38165 13.3575C3.41248 14.01 3.49998 14.4492 3.65748 14.855C3.79915 15.2175 3.96581 15.4783 4.24248 15.755C4.52331 16.035 4.78415 16.2025 5.14248 16.3408C5.55415 16.5 5.99248 16.5883 6.64248 16.6183C7.56248 16.6617 7.88415 16.6667 9.99998 16.6667C12.0625 16.6667 12.3983 16.6608 13.3575 16.6183C14.0091 16.5875 14.4475 16.5 14.855 16.3425C15.195 16.2169 15.5025 16.0168 15.755 15.7567C16.0358 15.4767 16.2033 15.2158 16.3416 14.8567C16.5 14.4467 16.5883 14.0083 16.6183 13.3567C16.6616 12.4375 16.6666 12.115 16.6666 10C16.6666 7.93833 16.6608 7.60167 16.6183 6.6425C16.5875 5.99083 16.4991 5.55083 16.3416 5.14417C16.216 4.80418 16.0159 4.49665 15.7558 4.24417C15.5039 3.9832 15.1962 3.78264 14.8558 3.6575C14.4475 3.49917 14.0091 3.41167 13.3575 3.38167C12.4383 3.33833 12.1175 3.33333 10.0008 3.33333ZM10.0008 1.66667C12.265 1.66667 12.5475 1.675 13.4366 1.71667C14.3233 1.75833 14.9283 1.8975 15.4591 2.10417C16.0091 2.31583 16.4725 2.6025 16.9358 3.065C17.3596 3.48158 17.6874 3.98549 17.8966 4.54167C18.1025 5.0725 18.2425 5.6775 18.2841 6.565C18.3233 7.45333 18.3341 7.73583 18.3341 10C18.3341 12.2642 18.3258 12.5467 18.2841 13.435C18.2425 14.3225 18.1025 14.9267 17.8966 15.4583C17.688 16.0148 17.3601 16.5188 16.9358 16.935C16.5191 17.3586 16.0152 17.6865 15.4591 17.8958C14.9283 18.1017 14.3233 18.2417 13.4366 18.2833C12.5475 18.3225 12.265 18.3333 10.0008 18.3333C7.73665 18.3333 7.45415 18.325 6.56498 18.2833C5.67831 18.2417 5.07415 18.1017 4.54248 17.8958C3.98609 17.6871 3.48209 17.3591 3.06581 16.935C2.64201 16.5185 2.31411 16.0145 2.10498 15.4583C1.89831 14.9275 1.75915 14.3225 1.71748 13.435C1.67748 12.5467 1.66748 12.2642 1.66748 10C1.66748 7.73583 1.67581 7.45333 1.71748 6.565C1.75915 5.67667 1.89831 5.07333 2.10498 4.54167C2.31351 3.98515 2.64148 3.4811 3.06581 3.065C3.48221 2.64103 3.98617 2.31311 4.54248 2.10417C5.07331 1.8975 5.67748 1.75833 6.56498 1.71667C7.45415 1.6775 7.73665 1.66667 10.0008 1.66667Z" fill="#212121"/>
</svg>
