<svg width="776" height="447" viewBox="0 0 776 447" fill="none" xmlns="http://www.w3.org/2000/svg">
<g clip-path="url(#clip0_38_136)">
<g filter="url(#filter0_d_38_136)">
<path d="M71.8264 349.178C71.2111 349.206 70.6019 349.045 70.0815 348.715C69.5611 348.386 69.1545 347.905 68.9169 347.337C68.6793 346.769 68.6221 346.142 68.7531 345.541C68.8841 344.939 69.1969 344.392 69.6492 343.975C69.725 343.674 69.7793 343.458 69.855 343.157C69.8279 343.091 69.8007 343.026 69.7733 342.961C69.1534 341.497 68.1147 340.25 66.7876 339.375C65.4605 338.5 63.9043 338.036 62.3144 338.042C60.7244 338.048 59.1716 338.523 57.8511 339.408C56.5306 340.293 55.5012 341.548 54.8922 343.016C52.4584 348.874 49.3596 354.741 48.5966 360.935C48.2606 363.673 48.4023 366.448 49.0156 369.137C43.2991 356.676 40.3307 343.132 40.3116 329.424C40.3104 325.984 40.5016 322.547 40.8844 319.129C41.2008 316.326 41.6397 313.543 42.2012 310.781C45.2651 295.791 51.8435 281.742 61.396 269.786C66.0195 267.265 69.7585 263.389 72.1093 258.679C72.9609 256.986 73.5628 255.178 73.8962 253.313C73.3747 253.381 72.8446 253.424 72.3231 253.458C72.1606 253.467 71.9896 253.475 71.8271 253.484L71.7658 253.487C71.1926 253.512 70.6242 253.372 70.129 253.082C69.6338 252.793 69.2329 252.366 68.9747 251.854C68.7164 251.342 68.6117 250.766 68.6732 250.196C68.7347 249.626 68.9598 249.086 69.3214 248.641C69.5466 248.364 69.7719 248.087 69.9973 247.81C70.3394 247.383 70.6899 246.965 71.0319 246.537C71.0714 246.497 71.1085 246.454 71.1431 246.409C71.5364 245.922 71.9296 245.444 72.323 244.957C71.6051 243.843 70.6395 242.91 69.5015 242.231C65.5599 239.924 60.122 241.522 57.2748 245.085C54.4191 248.648 53.8805 253.646 54.8722 258.098C55.8476 261.885 57.461 265.48 59.6432 268.727C59.4294 269 59.2071 269.265 58.9934 269.538C55.086 274.559 51.6804 279.951 48.8254 285.636C49.5197 279.267 48.6911 272.825 46.4077 266.838C44.0935 261.259 39.7559 256.561 35.9361 251.738C31.3479 245.945 21.9393 248.473 21.131 255.817C21.1232 255.888 21.1155 255.959 21.1081 256.03C21.6754 256.35 22.2308 256.689 22.7742 257.048C23.4569 257.504 23.9858 258.155 24.2918 258.917C24.5977 259.678 24.6664 260.514 24.4888 261.315C24.3112 262.116 23.8957 262.845 23.2966 263.406C22.6975 263.967 21.9427 264.334 21.1313 264.459L21.0482 264.472C21.2504 266.515 21.6076 268.54 22.117 270.529C23.5929 276.083 26.2009 281.272 29.7776 285.771C33.3543 290.27 37.8225 293.982 42.9022 296.675C43.2356 296.845 43.5606 297.016 43.894 297.179C41.0257 305.302 39.2265 313.763 38.5417 322.35C38.154 327.416 38.1769 332.505 38.6101 337.567L38.5844 337.387C37.4899 331.758 34.485 326.679 30.0771 323.008C23.5302 317.633 14.2807 315.654 7.21781 311.334C6.4672 310.853 5.59441 310.596 4.7024 310.594C3.8104 310.591 2.93637 310.844 2.18341 311.322C1.43045 311.8 0.829966 312.483 0.452778 313.291C0.0755899 314.099 -0.0625742 314.997 0.0545915 315.881C0.064064 315.944 0.0736953 316.007 0.0834783 316.07C1.13634 316.498 2.16148 316.992 3.15293 317.548C3.7203 317.868 4.27568 318.207 4.81908 318.566C5.50173 319.022 6.03069 319.673 6.33665 320.435C6.6426 321.196 6.71129 322.032 6.5337 322.833C6.35612 323.634 5.94055 324.363 5.34144 324.924C4.74233 325.485 3.98763 325.852 3.17621 325.977L3.09306 325.989C3.0332 325.998 2.98191 326.007 2.92215 326.015C4.72112 330.308 7.24603 334.259 10.3863 337.695C14.2656 341.855 18.9542 345.179 24.1648 347.463C29.3753 349.748 34.9978 350.945 40.6877 350.981H40.6963C42.2409 357.688 44.4788 364.217 47.374 370.462H71.2286C71.3141 370.197 71.3911 369.923 71.468 369.659C69.26 369.797 67.0433 369.665 64.8673 369.266C66.6372 367.095 68.407 364.908 70.1769 362.738C70.2164 362.697 70.2535 362.654 70.2881 362.61C71.1858 361.499 72.0921 360.397 72.9899 359.286L72.9904 359.285C73.0382 355.88 72.6466 352.483 71.8264 349.178Z" fill="#1BBB99"/>
</g>
<g filter="url(#filter1_d_38_136)">
<path d="M365.618 370.784C365.618 370.914 365.593 371.043 365.543 371.163C365.494 371.283 365.421 371.392 365.329 371.484C365.237 371.576 365.128 371.649 365.007 371.698C364.887 371.748 364.758 371.773 364.628 371.773H1.05974C0.797341 371.773 0.545685 371.668 0.36014 371.483C0.174595 371.298 0.0703583 371.046 0.0703583 370.784C0.0703583 370.522 0.174595 370.27 0.36014 370.085C0.545685 369.899 0.797341 369.795 1.05974 369.795H364.628C364.758 369.795 364.887 369.82 365.007 369.87C365.128 369.919 365.237 369.992 365.329 370.084C365.421 370.176 365.494 370.285 365.543 370.405C365.593 370.525 365.618 370.654 365.618 370.784Z" fill="#C6C6C6"/>
</g>
<path d="M171.575 240.369C172.422 240.651 173.195 241.116 173.843 241.73C174.49 242.344 174.994 243.092 175.32 243.922C175.647 244.751 175.787 245.643 175.732 246.533C175.676 247.422 175.426 248.289 174.999 249.072L183.751 259.923L178.449 266.846L166.305 251.349C165.037 250.545 164.108 249.304 163.694 247.861C163.28 246.418 163.41 244.873 164.06 243.52C164.709 242.166 165.833 241.098 167.219 240.517C168.604 239.936 170.154 239.884 171.575 240.369Z" fill="#A0616A"/>
<path d="M175.489 269.923L170.546 257.635L179.69 251.146L183.964 258.801L190.205 263.055L198.495 270.412C200.742 268.568 217.985 254.759 223.501 260.63C224.171 261.289 224.691 262.086 225.024 262.965C225.358 263.844 225.496 264.784 225.431 265.722C225.087 270.191 220.344 273.942 220.165 274.081L209.697 283.903C209.306 284.568 205.192 291.411 200.49 292.601C199.819 292.785 199.118 292.828 198.43 292.726C197.742 292.625 197.083 292.382 196.494 292.013C185.793 285.447 178.951 278.985 176.438 273.121C175.991 272.098 175.672 271.024 175.489 269.923Z" fill="#212121"/>
<path d="M170.307 430.743L162.256 431.118L156.973 400.264L168.857 399.709L170.307 430.743Z" fill="#A0616A"/>
<path d="M174.624 445.851L168.911 446.118L167.639 440.776L165.279 446.288L150.127 446.996C149.401 447.03 148.682 446.831 148.077 446.429C147.472 446.026 147.012 445.44 146.763 444.757C146.514 444.075 146.491 443.33 146.696 442.633C146.9 441.936 147.323 441.322 147.901 440.882L159.611 431.965L159.356 426.516L172.118 426.681L174.624 445.851Z" fill="#212121"/>
<path d="M86.2466 364.494L83.3134 356.993L110.876 342.117L124.798 350.862L86.2466 364.494Z" fill="#A0616A"/>
<path d="M73.3044 373.417L71.2229 368.093L75.8808 365.179L69.8998 364.709L64.3793 350.59C64.1146 349.914 64.0733 349.17 64.2615 348.468C64.4497 347.766 64.8575 347.143 65.4253 346.689C65.9931 346.235 66.6912 345.975 67.4177 345.945C68.1442 345.916 68.8611 346.12 69.4636 346.526L81.6645 354.759L86.7491 352.773L90.6778 364.909L73.3044 373.417Z" fill="#212121"/>
<path d="M244.583 342.166C244.583 342.166 241.239 363.499 225.433 365.078C209.626 366.658 195.056 359.541 195.056 359.541L150.798 345.92C150.798 345.92 103.723 359.286 95.8201 361.393C95.8201 361.393 90.3687 349.028 90.5513 348.23C92.2322 340.881 94.422 345.852 94.422 345.852L144.476 323.738C144.476 323.738 152.379 321.632 166.078 327.424C179.777 333.216 216.476 347.177 216.476 347.177L244.583 342.166Z" fill="#212121"/>
<path d="M244.401 340.858C244.401 340.858 247.037 366.414 231.639 370.318C217.003 374.029 196.813 370.222 196.813 370.222L172.745 367.711C172.745 367.711 171.691 398.615 171.691 413.884C166.801 414.548 161.873 414.9 156.938 414.937C155.885 414.937 155.815 414.385 155.815 414.385L153.774 360.973C153.631 358.651 153.976 356.325 154.786 354.144C155.597 351.962 156.856 349.975 158.481 348.31C160.107 346.644 162.063 345.337 164.225 344.472C166.386 343.608 168.705 343.205 171.032 343.29C172.168 343.334 173.36 343.414 174.607 343.531C189.414 344.95 207.796 341.934 207.796 341.934L244.401 340.858Z" fill="#212121"/>
<path d="M201.692 303.785C201.692 303.785 195.442 341.56 199.666 344.575C203.89 347.591 209.683 347.602 209.683 347.602L211.03 326.746L201.692 303.785Z" fill="#212121"/>
<path d="M212.118 257.393L203.76 265.33C199.876 269.019 197.301 273.873 196.426 279.156C195.551 284.439 196.424 289.863 198.913 294.606L202.908 302.219L212.118 257.393Z" fill="#212121"/>
<path d="M213.987 258.728L202.662 271.618C200.177 274.447 198.637 277.98 198.256 281.726C198.084 283.427 198.153 285.143 198.463 286.824L202.73 310.009L205.938 343.491C205.938 343.491 230.703 350.989 233.238 339.411C235.773 327.832 213.987 258.728 213.987 258.728Z" fill="#0095B7"/>
<path d="M207.53 332.535L203.909 324.213L200.837 302.517C200.669 301.254 204.108 280.598 209.086 258.436L215.137 249.972L218.627 246.774L228.569 253.287C232.155 255.183 239.997 279.927 235.17 297.437C233.51 303.461 236.412 310.96 236.86 316.494L243.75 333.414L245.382 343.199L245.133 343.293C244.884 343.388 240.897 343.927 224.617 346.638C211.128 348.884 218.514 337.831 207.53 332.535Z" fill="#212121"/>
<path d="M175.663 323.444C176.158 322.702 176.81 322.077 177.572 321.614C178.335 321.151 179.189 320.861 180.076 320.763C180.963 320.666 181.861 320.764 182.705 321.051C183.55 321.338 184.322 321.806 184.966 322.423L197.738 316.828L203.034 323.755L184.886 331.404C183.777 332.417 182.335 332.987 180.833 333.008C179.331 333.029 177.873 332.499 176.736 331.517C175.6 330.536 174.862 329.172 174.665 327.684C174.467 326.196 174.822 324.687 175.663 323.444Z" fill="#A0616A"/>
<path d="M205.23 327.417L192.068 328.963L188.198 318.444L196.711 316.328L202.455 311.425L211.733 305.358C210.541 302.708 201.726 282.46 208.841 278.679C209.653 278.206 210.559 277.913 211.495 277.822C212.431 277.731 213.376 277.844 214.264 278.152C218.49 279.656 220.869 285.213 220.956 285.422L227.697 298.092C228.237 298.643 233.767 304.404 233.684 309.251C233.686 309.946 233.543 310.633 233.265 311.27C232.987 311.907 232.579 312.479 232.068 312.95C222.922 321.549 214.889 326.453 208.567 327.339C207.462 327.503 206.341 327.529 205.23 327.417Z" fill="#212121"/>
<path d="M213.782 245.709C222.482 244.667 228.67 236.618 227.605 227.731C226.539 218.844 218.623 212.483 209.923 213.525C201.224 214.567 195.035 222.616 196.101 231.503C197.166 240.39 205.082 246.751 213.782 245.709Z" fill="#A0616A"/>
<path d="M253.167 217.591C250.115 214.792 248.346 210.804 245.781 207.517C243.215 204.23 239.11 201.505 235.274 202.801C232.63 203.694 230.82 206.337 230.078 209.131C229.337 211.925 229.491 214.889 229.65 217.793C229.006 211.864 224.414 206.592 218.811 205.346C215.972 204.789 213.029 205.147 210.406 206.368C207.784 207.589 205.616 209.61 204.216 212.14C202.578 210.951 200.56 210.403 198.545 210.602C196.53 210.8 194.658 211.731 193.284 213.217C191.972 214.832 191.246 216.844 191.225 218.924C191.204 221.005 191.889 223.031 193.168 224.672C194.485 226.214 196.319 227.222 198.327 227.508C200.336 227.793 202.379 227.336 204.074 226.223L205.46 227.221C205.284 228.487 205.558 229.775 206.235 230.859C206.913 231.943 207.95 232.754 209.165 233.152C211.113 233.679 213.721 233.24 214.65 235.105C215.299 236.409 214.565 237.971 213.725 239.133C212.884 240.295 211.867 241.512 211.924 242.974C212.011 245.179 214.453 246.439 216.562 246.654C219.14 246.856 221.719 246.284 223.97 245.012C226.221 243.74 228.041 241.826 229.197 239.515C229.241 239.424 229.291 239.333 229.346 239.241C230.701 237.003 231.586 234.512 231.946 231.921C232.307 229.33 232.134 226.692 231.44 224.17C231.158 223.18 231.23 222.41 231.898 222.087C234.784 220.694 243.476 221.853 246.263 223.507C249.05 225.161 251.404 227.51 254.112 229.301C256.821 231.093 260.146 232.327 263.199 231.385C264.42 230.934 265.537 230.244 266.485 229.354C267.434 228.464 268.194 227.393 268.722 226.204C269.799 223.779 270.513 221.208 270.841 218.575C268.22 220.439 265.043 221.357 261.831 221.178C258.62 220.999 255.564 219.734 253.167 217.591Z" fill="#212121"/>
<path d="M255.566 323.073L255.558 323.062L255.566 323.084V323.073Z" fill="#212121"/>
<path d="M152.366 247.38C145.539 248.426 138.556 247.426 132.298 244.506C126.04 241.586 120.79 236.877 117.21 230.975C113.63 225.073 111.882 218.242 112.188 211.347C112.493 204.452 114.837 197.803 118.924 192.239C123.01 186.676 128.656 182.448 135.148 180.091C141.639 177.734 148.684 177.354 155.391 178.998C162.099 180.642 168.168 184.237 172.831 189.328C177.494 194.419 180.542 200.777 181.589 207.599C182.284 212.128 182.079 216.75 180.987 221.201C179.894 225.652 177.936 229.844 175.222 233.538C172.508 237.232 169.093 240.355 165.172 242.731C161.25 245.106 156.899 246.686 152.366 247.38ZM142.032 180.039C135.53 181.035 129.47 183.936 124.618 188.374C119.767 192.812 116.341 198.588 114.774 204.972C113.207 211.355 113.569 218.06 115.816 224.238C118.062 230.416 122.091 235.789 127.393 239.679C132.696 243.568 139.033 245.799 145.604 246.089C152.175 246.38 158.685 244.716 164.31 241.31C169.935 237.903 174.423 232.906 177.206 226.95C179.989 220.994 180.942 214.348 179.945 207.851C179.283 203.537 177.777 199.396 175.514 195.663C173.25 191.931 170.273 188.681 166.752 186.098C163.232 183.516 159.237 181.651 154.995 180.612C150.753 179.572 146.349 179.377 142.032 180.039Z" fill="#212121"/>
<path d="M275.213 115.387C268.386 116.433 261.402 115.433 255.144 112.513C248.887 109.593 243.636 104.884 240.056 98.9816C236.477 93.0793 234.729 86.2489 235.034 79.354C235.339 72.4591 237.683 65.8095 241.77 60.2459C245.857 54.6824 251.503 50.4549 257.994 48.0979C264.485 45.741 271.53 45.3605 278.238 47.0046C284.945 48.6487 291.014 52.2435 295.677 57.3344C300.341 62.4254 303.388 68.7838 304.435 75.6057C305.13 80.1352 304.926 84.7572 303.833 89.2078C302.741 93.6584 300.782 97.8504 298.069 101.544C295.355 105.238 291.94 108.362 288.018 110.737C284.097 113.113 279.745 114.693 275.213 115.387ZM264.878 48.0457C258.377 49.0421 252.317 51.9426 247.465 56.3806C242.613 60.8186 239.187 66.5946 237.62 72.9784C236.053 79.3621 236.416 86.0668 238.662 92.2446C240.908 98.4224 244.938 103.796 250.24 107.685C255.542 111.575 261.879 113.806 268.451 114.096C275.022 114.387 281.531 112.723 287.156 109.316C292.781 105.91 297.269 100.912 300.052 94.9568C302.835 89.0011 303.789 82.3546 302.792 75.8575C301.455 67.1453 296.709 59.3207 289.599 54.105C282.489 48.8892 273.596 46.7096 264.878 48.0457Z" fill="#212121"/>
<path d="M416.562 194.159C409.735 195.205 402.752 194.205 396.494 191.285C390.236 188.364 384.985 183.655 381.406 177.753C377.826 171.851 376.078 165.021 376.383 158.126C376.688 151.231 379.033 144.581 383.119 139.018C387.206 133.454 392.852 129.226 399.344 126.87C405.835 124.513 412.88 124.132 419.587 125.776C426.295 127.42 432.364 131.015 437.027 136.106C441.69 141.197 444.738 147.555 445.785 154.377C446.48 158.907 446.275 163.529 445.183 167.979C444.09 172.43 442.132 176.622 439.418 180.316C436.704 184.01 433.289 187.134 429.368 189.509C425.446 191.884 421.095 193.464 416.562 194.159ZM406.228 126.817C399.726 127.814 393.666 130.714 388.814 135.152C383.962 139.59 380.536 145.366 378.97 151.75C377.403 158.134 377.765 164.838 380.012 171.016C382.258 177.194 386.287 182.567 391.589 186.457C396.891 190.347 403.229 192.578 409.8 192.868C416.371 193.158 422.881 191.495 428.506 188.088C434.131 184.681 438.619 179.684 441.402 173.728C444.185 167.773 445.138 161.126 444.141 154.629C442.804 145.917 438.058 138.092 430.948 132.877C423.838 127.661 414.946 125.481 406.228 126.817Z" fill="#212121"/>
<path d="M584.31 69.3921C577.483 70.4382 570.5 69.438 564.242 66.5178C557.984 63.5976 552.734 58.8887 549.154 52.9865C545.574 47.0842 543.827 40.2538 544.132 33.3589C544.437 26.464 546.781 19.8144 550.868 14.2508C554.954 8.68729 560.6 4.45975 567.092 2.10281C573.583 -0.254141 580.628 -0.634629 587.335 1.00945C594.043 2.65353 600.112 6.24834 604.775 11.3393C609.438 16.4303 612.486 22.7887 613.533 29.6106C614.228 34.1401 614.023 38.7621 612.931 43.2127C611.839 47.6633 609.88 51.8553 607.166 55.5493C604.452 59.2434 601.037 62.3672 597.116 64.7423C593.194 67.1174 588.843 68.6974 584.31 69.3921ZM573.976 2.0506C567.474 3.04695 561.414 5.94752 556.562 10.3855C551.711 14.8235 548.285 20.5996 546.718 26.9833C545.151 33.3671 545.513 40.0717 547.76 46.2495C550.006 52.4273 554.035 57.8008 559.337 61.6903C564.64 65.5799 570.977 67.8109 577.548 68.1012C584.119 68.3915 590.629 66.728 596.254 63.3212C601.879 59.9144 606.367 54.9172 609.15 48.9616C611.933 43.006 612.886 36.3594 611.889 29.8624C610.552 21.1502 605.807 13.3256 598.696 8.10984C591.586 2.8941 582.694 0.714535 573.976 2.0506Z" fill="#212121"/>
<path d="M743.32 129.92C736.494 130.966 729.51 129.965 723.252 127.045C716.994 124.125 711.744 119.416 708.164 113.514C704.585 107.612 702.837 100.781 703.142 93.8864C703.447 86.9915 705.791 80.3418 709.878 74.7783C713.965 69.2147 719.611 64.9872 726.102 62.6303C732.593 60.2733 739.638 59.8928 746.345 61.5369C753.053 63.181 759.122 66.7758 763.785 71.8668C768.448 76.9578 771.496 83.3162 772.543 90.1381C773.947 99.2859 771.657 108.616 766.176 116.077C760.696 123.537 752.474 128.517 743.32 129.92ZM732.986 62.5781C726.484 63.5744 720.425 66.475 715.573 70.913C710.721 75.3509 707.295 81.127 705.728 87.5107C704.161 93.8945 704.524 100.599 706.77 106.777C709.016 112.955 713.045 118.328 718.348 122.218C723.65 126.107 729.987 128.338 736.558 128.629C743.129 128.919 749.639 127.256 755.264 123.849C760.889 120.442 765.377 115.445 768.16 109.489C770.943 103.533 771.896 96.8869 770.899 90.3899C769.562 81.6777 764.817 73.853 757.707 68.6373C750.597 63.4216 741.704 61.242 732.986 62.5781Z" fill="#212121"/>
<g filter="url(#filter2_d_38_136)">
<path d="M418.051 141.163C420.351 140.818 422.695 141.396 424.57 142.771C426.445 144.147 427.699 146.208 428.059 148.504L430.72 165.845C431.066 168.143 430.487 170.485 429.111 172.359C427.734 174.233 425.672 175.486 423.373 175.845L406.021 178.505C403.721 178.85 401.377 178.272 399.502 176.896C397.627 175.521 396.373 173.46 396.014 171.163L393.352 153.823C393.007 151.524 393.585 149.182 394.962 147.309C396.338 145.435 398.401 144.181 400.699 143.822L418.051 141.163ZM417.519 137.695L400.167 140.354C396.949 140.857 394.062 142.612 392.135 145.235C390.208 147.858 389.398 151.137 389.882 154.355L392.543 171.695C393.046 174.91 394.802 177.796 397.427 179.721C400.052 181.647 403.333 182.456 406.553 181.972L423.906 179.313C427.123 178.811 430.01 177.056 431.937 174.433C433.864 171.809 434.674 168.531 434.19 165.313L431.529 147.973C431.026 144.757 429.27 141.872 426.645 139.946C424.02 138.021 420.739 137.211 417.519 137.695Z" fill="#212121"/>
</g>
<g filter="url(#filter3_d_38_136)">
<path d="M421.985 149.435C421.296 149.539 420.595 149.366 420.034 148.953C419.473 148.54 419.1 147.922 418.995 147.234C418.89 146.546 419.063 145.845 419.476 145.284C419.888 144.723 420.506 144.349 421.195 144.244C421.883 144.139 422.585 144.311 423.146 144.722C423.708 145.134 424.083 145.751 424.189 146.439C424.295 147.127 424.124 147.828 423.713 148.39C423.301 148.951 422.684 149.327 421.996 149.433L421.985 149.435Z" fill="#212121"/>
</g>
<g filter="url(#filter4_d_38_136)">
<path d="M410.972 152.897C412.345 152.687 413.749 152.888 415.007 153.475C416.266 154.062 417.322 155.01 418.042 156.196C418.762 157.383 419.113 158.757 419.052 160.144C418.991 161.53 418.519 162.868 417.697 163.987C416.875 165.105 415.74 165.956 414.434 166.43C413.129 166.904 411.712 166.98 410.363 166.649C409.014 166.319 407.794 165.596 406.856 164.572C405.918 163.548 405.305 162.27 405.095 160.898C404.955 159.987 404.996 159.057 405.216 158.162C405.435 157.267 405.829 156.424 406.375 155.681C406.921 154.938 407.608 154.31 408.396 153.832C409.185 153.355 410.06 153.037 410.972 152.897ZM410.439 149.429C408.38 149.745 406.461 150.664 404.924 152.069C403.387 153.475 402.302 155.304 401.806 157.326C401.31 159.348 401.425 161.472 402.136 163.429C402.847 165.385 404.124 167.087 405.803 168.319C407.482 169.551 409.49 170.258 411.571 170.35C413.652 170.442 415.714 169.915 417.496 168.836C419.277 167.757 420.699 166.174 421.58 164.288C422.462 162.401 422.764 160.296 422.448 158.238C422.024 155.479 420.521 153.001 418.269 151.349C416.017 149.697 413.201 149.006 410.439 149.429Z" fill="#212121"/>
</g>
<g filter="url(#filter5_d_38_136)">
<path d="M735.808 72.9036C730.61 73.7005 725.846 76.2604 722.314 80.1532C718.783 84.046 716.7 89.0347 716.414 94.2813C716.129 99.5279 717.659 104.713 720.747 108.965C723.836 113.218 728.294 116.279 733.374 117.634C733.012 115.909 732.877 114.143 732.972 112.383C733.124 110.479 733.99 99.6084 733.99 99.6084C733.323 98.558 732.888 97.3774 732.714 96.1454C732.2 92.7931 733.755 89.9916 736.18 89.62C738.242 89.3041 739.469 90.6973 739.753 92.5451C740.07 94.615 739.221 97.9077 738.984 100.879C738.93 101.431 739.008 101.988 739.209 102.504C739.411 103.021 739.731 103.483 740.144 103.853C740.557 104.223 741.052 104.491 741.587 104.635C742.123 104.78 742.685 104.796 743.229 104.683C747.513 104.026 749.558 98.0804 748.557 91.5575C747.796 86.5997 743.883 83.4065 737.81 84.3371C730.949 85.3885 727.451 91.1645 728.328 96.8796C728.508 98.5015 729.283 99.9992 730.504 101.083C730.707 101.205 730.867 101.387 730.96 101.605C731.053 101.823 731.074 102.065 731.021 102.296C730.973 102.727 730.884 103.764 730.835 104.185C730.834 104.31 730.804 104.433 730.746 104.544C730.688 104.655 730.604 104.75 730.502 104.823C730.4 104.895 730.282 104.942 730.158 104.959C730.034 104.977 729.908 104.965 729.79 104.923C726.429 104.116 724.423 100.888 723.825 96.9909C722.84 90.5689 727.084 82.0331 737.835 80.3855C746.474 79.0615 753.122 84.44 754.151 91.1447C755.513 100.02 751.588 107.401 744.313 108.516C741.868 108.891 739.371 107.92 738.354 106.546C738.354 106.546 737.84 111.958 737.712 113.011C737.452 114.807 736.937 116.556 736.182 118.206C739.436 118.648 742.747 118.385 745.891 117.436C749.034 116.486 751.937 114.872 754.401 112.704C756.866 110.535 758.835 107.862 760.175 104.865C761.515 101.869 762.194 98.6203 762.167 95.3387C762.14 92.0571 761.407 88.8197 760.017 85.8462C758.628 82.8726 756.615 80.2323 754.115 78.1044C751.615 75.9766 748.686 74.4109 745.528 73.5136C742.369 72.6162 739.054 72.4082 735.808 72.9036Z" fill="#212121"/>
</g>
<g filter="url(#filter6_d_38_136)">
<path d="M596.966 18.2523L566.481 13.7633C565.697 13.6088 564.884 13.7717 564.221 14.2162C563.557 14.6607 563.098 15.3503 562.943 16.1334L562.94 16.1466L558.438 46.6786C558.338 47.5032 558.558 48.3346 559.053 49.002C559.548 49.6693 560.28 50.1217 561.098 50.2662L591.575 54.7538C592.382 54.8405 593.19 54.6061 593.825 54.1013C594.46 53.5966 594.87 52.8622 594.967 52.0573L599.469 21.5252C599.59 20.785 599.413 20.0267 598.975 19.4171C598.538 18.8075 597.876 18.3966 597.135 18.2748C597.079 18.2656 597.023 18.2581 596.966 18.2523ZM570.196 45.398L564.963 44.6274L567.36 28.3681L572.593 29.1387L570.196 45.398ZM570.522 26.308L570.485 26.3025C569.733 26.1868 569.057 25.7778 568.606 25.1653C568.155 24.5527 567.966 23.7865 568.079 23.0344C568.192 22.2824 568.599 21.606 569.211 21.1533C569.822 20.7006 570.588 20.5085 571.341 20.6193C572.094 20.73 572.772 21.1345 573.227 21.7441C573.682 22.3537 573.877 23.1186 573.769 23.8714C573.66 24.6241 573.258 25.3033 572.649 25.76C572.041 26.2167 571.276 26.4138 570.522 26.308ZM589.321 48.2141L584.088 47.4436L585.399 38.5533C585.713 36.4234 585.166 34.8561 583.273 34.5773C582.68 34.4948 582.076 34.5982 581.544 34.8731C581.013 35.1481 580.58 35.5811 580.305 36.1124C580.104 36.5051 579.979 36.9315 579.934 37.3699L578.569 46.6309L573.336 45.8604L575.733 29.6011L580.966 30.3716L580.633 32.6343C581.231 31.8809 582.021 31.3024 582.92 30.9595C583.819 30.6167 584.793 30.5222 585.742 30.686C589.177 31.1918 591.442 33.8371 590.722 38.7153L589.321 48.2141Z" fill="#212121"/>
</g>
<g filter="url(#filter7_d_38_136)">
<path fill-rule="evenodd" clip-rule="evenodd" d="M169.657 209.566C168.995 205.257 167.112 201.228 164.229 197.956C161.347 194.684 157.587 192.305 153.394 191.102C149.201 189.899 144.751 189.922 140.571 191.167C136.391 192.413 132.655 194.83 129.806 198.131C126.958 201.432 125.115 205.48 124.497 209.796C123.879 214.111 124.511 218.513 126.319 222.48C128.126 226.448 131.034 229.814 134.696 232.182C138.359 234.549 142.624 235.819 146.986 235.839L144.569 220.084L138.838 220.962L137.837 214.442L143.568 213.564L142.806 208.595C141.938 202.945 144.829 199.305 149.982 198.516C151.678 198.28 153.389 198.169 155.101 198.182L155.953 203.732L153.106 204.168C150.305 204.597 149.695 206.469 149.969 208.255L150.618 212.485L156.876 211.526L156.877 218.199L151.619 219.004L154.037 234.761C159.216 233.107 163.634 229.661 166.498 225.043C169.361 220.424 170.482 214.936 169.657 209.566Z" fill="#212121"/>
</g>
<path d="M590.706 355.141L599.055 357.332L611.485 326.191L599.162 322.958L590.706 355.141Z" fill="#FFB6B6"/>
<path d="M588.124 363.768L613.8 370.506L613.885 370.181C614.581 367.533 614.195 364.716 612.814 362.351C611.432 359.987 609.166 358.267 606.516 357.572L602.76 352.785L593.075 354.045L590.833 353.456L588.124 363.768Z" fill="#212121"/>
<path d="M633.508 361.383H642.14L646.247 328.108L633.507 328.109L633.508 361.383Z" fill="#FFB6B6"/>
<path d="M633.204 370.382L659.75 370.381V370.046C659.75 367.308 658.662 364.681 656.724 362.745C654.786 360.809 652.158 359.721 649.418 359.721L644.568 356.044L635.521 359.721L633.204 359.721L633.204 370.382Z" fill="#212121"/>
<path d="M611.917 202.152C609.831 204.756 610.874 213.613 610.874 213.613C610.874 213.613 607.225 242.266 608.789 244.871C610.353 247.476 607.746 249.56 606.182 253.207C604.618 256.854 603.054 265.71 603.054 265.71C594.192 273.004 594.713 306.346 594.713 306.346L591.585 336.041C592.628 339.167 607.225 339.688 609.31 339.167C611.395 338.646 631.727 265.189 631.727 265.189C631.727 265.189 630.685 336.041 630.685 339.167C630.685 342.293 644.761 340.73 647.889 340.73C651.017 340.73 670.827 213.092 670.827 213.092V205.798L668.221 202.152C668.221 202.152 614.002 199.547 611.917 202.152Z" fill="#212121"/>
<path d="M634.855 106.814C643.781 106.814 651.017 99.5832 651.017 90.6638C651.017 81.7443 643.781 74.5136 634.855 74.5136C625.93 74.5136 618.694 81.7443 618.694 90.6638C618.694 99.5832 625.93 106.814 634.855 106.814Z" fill="#FFB6B6"/>
<path d="M613.142 213.673L613.054 213.55C608.347 206.963 615.427 191.136 616.495 188.842C615.227 188.431 614.141 187.593 613.421 186.471C612.702 185.349 612.394 184.013 612.55 182.69L613.01 178.779L613.49 174.944L610.052 171.508L610.042 171.423L608.064 154.124L605.187 142.634C604.104 138.291 604.196 133.737 605.455 129.441C606.714 125.145 609.095 121.261 612.352 118.188L619.001 117.133L627.082 109.353H640.112L644.581 113.619C653.365 120.814 655.45 117.688 665.355 131.234L658.263 149.906L662.227 177.446L662.23 182.43L664.295 184.723C665.038 185.549 665.579 186.537 665.873 187.609C666.167 188.68 666.206 189.806 665.988 190.895L665.717 192.252C666.766 192.701 667.693 193.396 668.418 194.277C669.143 195.158 669.647 196.2 669.886 197.316L670.611 200.697C671.232 201.515 675.327 206.972 675.327 208.463C675.327 208.687 675.161 208.904 674.806 209.144C672.016 211.032 656.591 214.882 649.764 212.152C642.491 209.247 613.584 213.606 613.293 213.65L613.142 213.673Z" fill="#0095B7"/>
<path d="M604.932 148.16L618.37 145.532C623.339 152.948 626.007 173.228 626.007 173.228L640.864 204.018C641.777 204.572 642.527 205.358 643.037 206.296C643.547 207.235 643.8 208.291 643.768 209.358C643.737 210.426 643.423 211.466 642.859 212.372C642.294 213.279 641.499 214.02 640.555 214.52C639.611 215.019 638.551 215.26 637.483 215.217C636.416 215.175 635.378 214.85 634.477 214.276C633.576 213.703 632.843 212.9 632.353 211.952C631.863 211.003 631.633 209.941 631.688 208.875L612.31 172.394L604.932 148.16Z" fill="#FFB6B6"/>
<path d="M604.857 151.346L604.475 131.388L610.798 122.934C612.046 121.278 613.732 120.005 615.666 119.257C617.599 118.509 619.704 118.317 621.742 118.701C624.5 119.241 626.95 120.808 628.597 123.084C630.244 125.36 630.965 128.177 630.613 130.964C629.54 139.415 627.103 149.991 621.59 152.384L621.534 152.408L627.248 172.377L606.058 175.335L604.857 151.346Z" fill="#0095B7"/>
<path d="M691.559 134.474C691.559 134.474 671.508 130.366 662.87 132.636L660.965 146.187L685.423 148.356L727.17 140.773C728.162 141.165 729.24 141.288 730.295 141.129C731.35 140.969 732.343 140.534 733.175 139.867C734.008 139.2 734.648 138.325 735.032 137.331C735.417 136.336 735.531 135.258 735.363 134.205C735.195 133.152 734.752 132.163 734.078 131.337C733.404 130.51 732.523 129.877 731.524 129.501C730.526 129.125 729.446 129.02 728.394 129.196C727.342 129.372 726.355 129.823 725.534 130.504L691.559 134.474Z" fill="#FFB6B6"/>
<path d="M667.28 149.36L647.425 147.172L639.848 139.818C638.366 138.368 637.319 136.534 636.825 134.521C636.332 132.509 636.411 130.398 637.055 128.429C637.946 125.764 639.815 123.537 642.286 122.198C644.757 120.859 647.645 120.507 650.365 121.214C658.614 123.364 666.868 121.358 668.534 127.129L671.507 126.157L691.031 129.874L691.241 151.254L667.28 149.36Z" fill="#0095B7"/>
<path d="M616.524 80.052C618.339 77.2465 621.744 75.3767 625.046 75.9021C625.353 73.7967 626.232 71.8158 627.588 70.1753C628.944 68.5347 630.724 67.2974 632.735 66.5979C634.746 65.8984 636.91 65.7636 638.992 66.2081C641.074 66.6527 642.995 67.6596 644.544 69.1193C645.053 68.7608 645.647 68.5399 646.267 68.4779C646.887 68.4159 647.512 68.5149 648.082 68.7653C649.219 69.2816 650.207 70.0745 650.957 71.0714C652.852 73.4322 654.07 76.2621 654.483 79.2599C654.895 82.2577 654.487 85.3112 653.301 88.0954C653.704 86.6297 652.234 85.2507 650.749 84.9218C649.264 84.5929 647.706 84.9041 646.2 84.6899C644.27 84.4154 642.534 83.2964 640.601 83.0446C638.962 82.938 637.317 83.1492 635.758 83.6665C634.199 84.1838 632.557 84.4041 630.916 84.3162C629.289 84.1231 627.193 90.2855 627.221 94.6259C627.227 95.4484 627.057 96.5045 626.253 96.679C625.262 96.8939 624.688 95.5277 623.745 95.1554C623.31 95.0309 622.845 95.0799 622.445 95.292C622.046 95.5041 621.745 95.8627 621.606 96.2923C621.487 96.7291 621.474 97.1879 621.568 97.6306C621.663 98.0732 621.862 98.4869 622.148 98.8373C622.728 99.5318 623.416 100.128 624.186 100.604L623.798 100.926C623.429 101.315 622.936 101.564 622.404 101.631C621.872 101.697 621.333 101.576 620.881 101.288C619.991 100.686 619.27 99.8654 618.787 98.9054C616.967 96.0932 615.666 92.978 614.945 89.7073C614.235 86.405 614.799 82.9565 616.524 80.052Z" fill="#212121"/>
<g filter="url(#filter8_d_38_136)">
<path d="M752.112 357.245L745.702 346.951L744.421 352.834C744.197 353.864 743.972 354.911 743.764 355.949C741.944 354.396 740.006 352.958 738.111 351.579C732.291 347.358 726.474 343.132 720.659 338.901L722.48 349.452C723.603 355.949 724.775 362.579 727.552 368.52C727.86 369.193 728.192 369.858 728.55 370.506H755.604C755.822 369.904 755.972 369.279 756.053 368.644C756.06 368.603 756.062 368.562 756.061 368.52C756.485 364.49 754.257 360.693 752.112 357.245Z" fill="#1BBB99"/>
</g>
<g filter="url(#filter9_d_38_136)">
<path d="M775.01 371.517L545.748 371.773C545.618 371.773 545.489 371.748 545.368 371.698C545.248 371.649 545.138 371.576 545.046 371.484C544.954 371.392 544.881 371.283 544.831 371.163C544.781 371.042 544.755 370.913 544.755 370.783C544.755 370.653 544.781 370.524 544.831 370.404C544.881 370.284 544.954 370.175 545.046 370.083C545.138 369.991 545.248 369.918 545.368 369.869C545.489 369.819 545.618 369.794 545.748 369.794L775.01 369.539C775.273 369.539 775.524 369.643 775.71 369.828C775.896 370.014 776 370.266 776 370.528C776 370.79 775.896 371.042 775.71 371.228C775.524 371.413 775.273 371.517 775.01 371.517Z" fill="#C6C6C6"/>
</g>
<g filter="url(#filter10_d_38_136)">
<path d="M284.708 66.9414C282.837 65.0506 280.607 63.5515 278.15 62.5315C275.693 61.5114 273.057 60.9909 270.396 61.0001C259.249 61.0001 250.163 70.0855 250.163 81.233C250.163 84.806 251.103 88.2768 252.858 91.3393L250.455 100.164C250.253 100.906 250.93 101.589 251.674 101.393L260.719 99.016C263.679 100.629 267.007 101.486 270.396 101.486C281.544 101.486 290.629 92.401 290.629 81.2535C290.629 75.843 288.526 70.7593 284.708 66.9414ZM270.396 98.0564C267.375 98.0564 264.414 97.2397 261.821 95.7085L261.209 95.341L254.839 97.0151L256.533 90.8085L256.125 90.1755C254.446 87.4948 253.555 84.3961 253.553 81.233C253.553 71.9639 261.107 64.4097 270.376 64.4097C274.868 64.4097 279.094 66.1655 282.258 69.3505C283.825 70.9103 285.067 72.7656 285.912 74.8088C286.756 76.852 287.187 79.0426 287.179 81.2535C287.22 90.5226 279.665 98.0564 270.396 98.0564ZM279.625 85.4797C279.114 85.2347 276.623 84.0097 276.174 83.826C275.705 83.6626 275.378 83.581 275.031 84.071C274.684 84.5814 273.724 85.7247 273.438 86.0514C273.153 86.3985 272.846 86.4393 272.336 86.1739C271.825 85.9289 270.192 85.3776 268.273 83.6626C266.762 82.3151 265.762 80.6614 265.455 80.151C265.17 79.6405 265.415 79.3751 265.68 79.1097C265.905 78.8851 266.19 78.5176 266.435 78.2318C266.68 77.946 266.783 77.7214 266.946 77.3947C267.109 77.0476 267.028 76.7618 266.905 76.5168C266.783 76.2718 265.762 73.781 265.353 72.7601C264.945 71.7801 264.516 71.9026 264.21 71.8822H263.23C262.883 71.8822 262.352 72.0047 261.882 72.5151C261.433 73.0255 260.127 74.2505 260.127 76.7414C260.127 79.2322 261.944 81.6414 262.189 81.968C262.434 82.3151 265.762 87.4193 270.825 89.6039C272.03 90.1347 272.969 90.441 273.704 90.6655C274.908 91.0535 276.011 90.9922 276.889 90.8697C277.869 90.7268 279.89 89.6447 280.298 88.4605C280.727 87.2764 280.727 86.276 280.584 86.0514C280.441 85.8268 280.135 85.7247 279.625 85.4797Z" fill="#212121"/>
</g>
</g>
<defs>
<filter id="filter0_d_38_136" x="-6.98593" y="231.152" width="93.8822" height="149.309" filterUnits="userSpaceOnUse" color-interpolation-filters="sRGB">
<feFlood flood-opacity="0" result="BackgroundImageFix"/>
<feColorMatrix in="SourceAlpha" type="matrix" values="0 0 0 0 0 0 0 0 0 0 0 0 0 0 0 0 0 0 127 0" result="hardAlpha"/>
<feOffset dx="3"/>
<feGaussianBlur stdDeviation="5"/>
<feComposite in2="hardAlpha" operator="out"/>
<feColorMatrix type="matrix" values="0 0 0 0 0.105882 0 0 0 0 0.733333 0 0 0 0 0.6 0 0 0 0.3 0"/>
<feBlend mode="normal" in2="BackgroundImageFix" result="effect1_dropShadow_38_136"/>
<feBlend mode="normal" in="SourceGraphic" in2="effect1_dropShadow_38_136" result="shape"/>
</filter>
<filter id="filter1_d_38_136" x="-5.92964" y="361.795" width="381.547" height="17.9774" filterUnits="userSpaceOnUse" color-interpolation-filters="sRGB">
<feFlood flood-opacity="0" result="BackgroundImageFix"/>
<feColorMatrix in="SourceAlpha" type="matrix" values="0 0 0 0 0 0 0 0 0 0 0 0 0 0 0 0 0 0 127 0" result="hardAlpha"/>
<feOffset dx="2"/>
<feGaussianBlur stdDeviation="4"/>
<feComposite in2="hardAlpha" operator="out"/>
<feColorMatrix type="matrix" values="0 0 0 0 0 0 0 0 0 0 0 0 0 0 0 0 0 0 0.2 0"/>
<feBlend mode="normal" in2="BackgroundImageFix" result="effect1_dropShadow_38_136"/>
<feBlend mode="normal" in="SourceGraphic" in2="effect1_dropShadow_38_136" result="shape"/>
</filter>
<filter id="filter2_d_38_136" x="385.745" y="137.558" width="52.582" height="52.5512" filterUnits="userSpaceOnUse" color-interpolation-filters="sRGB">
<feFlood flood-opacity="0" result="BackgroundImageFix"/>
<feColorMatrix in="SourceAlpha" type="matrix" values="0 0 0 0 0 0 0 0 0 0 0 0 0 0 0 0 0 0 127 0" result="hardAlpha"/>
<feOffset dy="4"/>
<feGaussianBlur stdDeviation="2"/>
<feComposite in2="hardAlpha" operator="out"/>
<feColorMatrix type="matrix" values="0 0 0 0 0 0 0 0 0 0 0 0 0 0 0 0 0 0 0.15 0"/>
<feBlend mode="normal" in2="BackgroundImageFix" result="effect1_dropShadow_38_136"/>
<feBlend mode="normal" in="SourceGraphic" in2="effect1_dropShadow_38_136" result="shape"/>
</filter>
<filter id="filter3_d_38_136" x="414.965" y="144.214" width="13.2545" height="13.2508" filterUnits="userSpaceOnUse" color-interpolation-filters="sRGB">
<feFlood flood-opacity="0" result="BackgroundImageFix"/>
<feColorMatrix in="SourceAlpha" type="matrix" values="0 0 0 0 0 0 0 0 0 0 0 0 0 0 0 0 0 0 127 0" result="hardAlpha"/>
<feOffset dy="4"/>
<feGaussianBlur stdDeviation="2"/>
<feComposite in2="hardAlpha" operator="out"/>
<feColorMatrix type="matrix" values="0 0 0 0 0 0 0 0 0 0 0 0 0 0 0 0 0 0 0.15 0"/>
<feBlend mode="normal" in2="BackgroundImageFix" result="effect1_dropShadow_38_136"/>
<feBlend mode="normal" in="SourceGraphic" in2="effect1_dropShadow_38_136" result="shape"/>
</filter>
<filter id="filter4_d_38_136" x="397.503" y="149.308" width="29.0668" height="29.0523" filterUnits="userSpaceOnUse" color-interpolation-filters="sRGB">
<feFlood flood-opacity="0" result="BackgroundImageFix"/>
<feColorMatrix in="SourceAlpha" type="matrix" values="0 0 0 0 0 0 0 0 0 0 0 0 0 0 0 0 0 0 127 0" result="hardAlpha"/>
<feOffset dy="4"/>
<feGaussianBlur stdDeviation="2"/>
<feComposite in2="hardAlpha" operator="out"/>
<feColorMatrix type="matrix" values="0 0 0 0 0 0 0 0 0 0 0 0 0 0 0 0 0 0 0.15 0"/>
<feBlend mode="normal" in2="BackgroundImageFix" result="effect1_dropShadow_38_136"/>
<feBlend mode="normal" in="SourceGraphic" in2="effect1_dropShadow_38_136" result="shape"/>
</filter>
<filter id="filter5_d_38_136" x="712.38" y="72.6413" width="53.7872" height="53.773" filterUnits="userSpaceOnUse" color-interpolation-filters="sRGB">
<feFlood flood-opacity="0" result="BackgroundImageFix"/>
<feColorMatrix in="SourceAlpha" type="matrix" values="0 0 0 0 0 0 0 0 0 0 0 0 0 0 0 0 0 0 127 0" result="hardAlpha"/>
<feOffset dy="4"/>
<feGaussianBlur stdDeviation="2"/>
<feComposite in2="hardAlpha" operator="out"/>
<feColorMatrix type="matrix" values="0 0 0 0 0 0 0 0 0 0 0 0 0 0 0 0 0 0 0.15 0"/>
<feBlend mode="normal" in2="BackgroundImageFix" result="effect1_dropShadow_38_136"/>
<feBlend mode="normal" in="SourceGraphic" in2="effect1_dropShadow_38_136" result="shape"/>
</filter>
<filter id="filter6_d_38_136" x="551.415" y="12.7064" width="49.0913" height="49.0651" filterUnits="userSpaceOnUse" color-interpolation-filters="sRGB">
<feFlood flood-opacity="0" result="BackgroundImageFix"/>
<feColorMatrix in="SourceAlpha" type="matrix" values="0 0 0 0 0 0 0 0 0 0 0 0 0 0 0 0 0 0 127 0" result="hardAlpha"/>
<feOffset dx="-3" dy="3"/>
<feGaussianBlur stdDeviation="2"/>
<feComposite in2="hardAlpha" operator="out"/>
<feColorMatrix type="matrix" values="0 0 0 0 0 0 0 0 0 0 0 0 0 0 0 0 0 0 0.15 0"/>
<feBlend mode="normal" in2="BackgroundImageFix" result="effect1_dropShadow_38_136"/>
<feBlend mode="normal" in="SourceGraphic" in2="effect1_dropShadow_38_136" result="shape"/>
</filter>
<filter id="filter7_d_38_136" x="120.267" y="190.216" width="53.6545" height="53.6231" filterUnits="userSpaceOnUse" color-interpolation-filters="sRGB">
<feFlood flood-opacity="0" result="BackgroundImageFix"/>
<feColorMatrix in="SourceAlpha" type="matrix" values="0 0 0 0 0 0 0 0 0 0 0 0 0 0 0 0 0 0 127 0" result="hardAlpha"/>
<feOffset dy="4"/>
<feGaussianBlur stdDeviation="2"/>
<feComposite in2="hardAlpha" operator="out"/>
<feColorMatrix type="matrix" values="0 0 0 0 0 0 0 0 0 0 0 0 0 0 0 0 0 0 0.15 0"/>
<feBlend mode="normal" in2="BackgroundImageFix" result="effect1_dropShadow_38_136"/>
<feBlend mode="normal" in="SourceGraphic" in2="effect1_dropShadow_38_136" result="shape"/>
</filter>
<filter id="filter8_d_38_136" x="708.659" y="326.901" width="55.454" height="51.6052" filterUnits="userSpaceOnUse" color-interpolation-filters="sRGB">
<feFlood flood-opacity="0" result="BackgroundImageFix"/>
<feColorMatrix in="SourceAlpha" type="matrix" values="0 0 0 0 0 0 0 0 0 0 0 0 0 0 0 0 0 0 127 0" result="hardAlpha"/>
<feOffset dx="-2" dy="-2"/>
<feGaussianBlur stdDeviation="5"/>
<feComposite in2="hardAlpha" operator="out"/>
<feColorMatrix type="matrix" values="0 0 0 0 0.105882 0 0 0 0 0.733333 0 0 0 0 0.6 0 0 0 0.3 0"/>
<feBlend mode="normal" in2="BackgroundImageFix" result="effect1_dropShadow_38_136"/>
<feBlend mode="normal" in="SourceGraphic" in2="effect1_dropShadow_38_136" result="shape"/>
</filter>
<filter id="filter9_d_38_136" x="534.755" y="361.539" width="247.245" height="18.2338" filterUnits="userSpaceOnUse" color-interpolation-filters="sRGB">
<feFlood flood-opacity="0" result="BackgroundImageFix"/>
<feColorMatrix in="SourceAlpha" type="matrix" values="0 0 0 0 0 0 0 0 0 0 0 0 0 0 0 0 0 0 127 0" result="hardAlpha"/>
<feOffset dx="-2"/>
<feGaussianBlur stdDeviation="4"/>
<feComposite in2="hardAlpha" operator="out"/>
<feColorMatrix type="matrix" values="0 0 0 0 0 0 0 0 0 0 0 0 0 0 0 0 0 0 0.2 0"/>
<feBlend mode="normal" in2="BackgroundImageFix" result="effect1_dropShadow_38_136"/>
<feBlend mode="normal" in="SourceGraphic" in2="effect1_dropShadow_38_136" result="shape"/>
</filter>
<filter id="filter10_d_38_136" x="246.163" y="61" width="48.4658" height="48.4864" filterUnits="userSpaceOnUse" color-interpolation-filters="sRGB">
<feFlood flood-opacity="0" result="BackgroundImageFix"/>
<feColorMatrix in="SourceAlpha" type="matrix" values="0 0 0 0 0 0 0 0 0 0 0 0 0 0 0 0 0 0 127 0" result="hardAlpha"/>
<feOffset dy="4"/>
<feGaussianBlur stdDeviation="2"/>
<feComposite in2="hardAlpha" operator="out"/>
<feColorMatrix type="matrix" values="0 0 0 0 0 0 0 0 0 0 0 0 0 0 0 0 0 0 0.15 0"/>
<feBlend mode="normal" in2="BackgroundImageFix" result="effect1_dropShadow_38_136"/>
<feBlend mode="normal" in="SourceGraphic" in2="effect1_dropShadow_38_136" result="shape"/>
</filter>
<clipPath id="clip0_38_136">
<rect width="776" height="447" fill="white"/>
</clipPath>
</defs>
</svg>
