<svg width="20" height="20" viewBox="0 0 20 20" fill="none" xmlns="http://www.w3.org/2000/svg">
<g clip-path="url(#clip0_54_747)">
<path d="M4.56763 2.17848C4.49384 2.08699 4.40069 2.01168 4.29438 1.95755C4.18807 1.90342 4.07103 1.87171 3.95103 1.86453C3.83103 1.85735 3.71082 1.87487 3.59838 1.91591C3.48594 1.95695 3.38384 2.02058 3.29888 2.10258L2.00638 3.34956C1.40263 3.9327 1.18013 4.758 1.44388 5.4821C2.53856 8.47919 4.31925 11.2003 6.65388 13.4435C8.98129 15.6938 11.8044 17.4101 14.9139 18.4652C15.6651 18.7194 16.5214 18.505 17.1264 17.9231L18.4189 16.6773C18.504 16.5954 18.57 16.497 18.6126 16.3886C18.6551 16.2802 18.6733 16.1644 18.6659 16.0487C18.6584 15.933 18.6255 15.8202 18.5694 15.7178C18.5132 15.6153 18.4351 15.5255 18.3401 15.4544L15.4564 13.2929C15.355 13.2171 15.237 13.1645 15.1114 13.139C14.9858 13.1136 14.8559 13.1159 14.7314 13.146L11.9939 13.805C11.6285 13.893 11.2457 13.8883 10.8827 13.7914C10.5197 13.6945 10.189 13.5087 9.92263 13.252L6.85263 10.2917C6.58609 10.0352 6.39304 9.71641 6.29227 9.36655C6.19151 9.01669 6.18646 8.64764 6.27763 8.29535L6.96263 5.65679C6.99377 5.53679 6.99622 5.41154 6.9698 5.29048C6.94338 5.16943 6.88879 5.05575 6.81013 4.958L4.56763 2.17848ZM2.35513 1.19414C2.57387 0.983239 2.83667 0.819601 3.12606 0.714096C3.41544 0.608591 3.72481 0.563633 4.03361 0.582207C4.34241 0.600781 4.64357 0.682462 4.91711 0.821826C5.19064 0.96119 5.43029 1.15505 5.62013 1.39053L7.86263 4.16884C8.27388 4.67848 8.41888 5.34234 8.25638 5.96884L7.57263 8.6074C7.53728 8.74406 7.53919 8.88721 7.57818 9.02295C7.61716 9.15869 7.6919 9.28241 7.79513 9.3821L10.8664 12.3423C10.9699 12.442 11.0985 12.5142 11.2396 12.5518C11.3806 12.5894 11.5294 12.5911 11.6714 12.5568L14.4076 11.8978C14.7284 11.8205 15.0632 11.8145 15.3867 11.8802C15.7103 11.9459 16.014 12.0817 16.2751 12.2773L19.1576 14.4387C20.1939 15.2158 20.2889 16.6917 19.3614 17.5845L18.0689 18.8303C17.1439 19.7219 15.7614 20.1134 14.4726 19.6761C11.1741 18.5574 8.17922 16.7373 5.71013 14.3508C3.23424 11.9713 1.34589 9.08506 0.185131 5.90619C-0.267369 4.66523 0.138881 3.33149 1.06388 2.43993L2.35638 1.19414H2.35513Z" fill="white"/>
</g>
<defs>
<clipPath id="clip0_54_747">
<rect width="20" height="19.2771" fill="white" transform="translate(0 0.578369)"/>
</clipPath>
</defs>
</svg>
