<svg width="1000px" viewBox="0 0 320 189" fill="none" xmlns="http://www.w3.org/2000/svg">
<g clip-path="url(#clip0_119_321)">
<path d="M309.804 159.372C306.739 170.003 297.791 177.446 288.457 183.768C287.154 184.65 285.85 185.513 284.546 186.355C284.537 186.359 284.528 186.367 284.519 186.371C284.456 186.412 284.394 186.452 284.335 186.493C284.066 186.666 283.797 186.84 283.53 187.011L283.676 187.077C283.676 187.077 283.82 187.154 283.663 187.089C283.616 187.07 283.567 187.052 283.52 187.032C278.098 184.845 272.579 182.497 268.423 178.4C264.112 174.146 261.593 167.473 263.927 161.884C264.234 161.152 264.622 160.456 265.083 159.81C265.272 159.539 265.476 159.28 265.688 159.025C266.976 157.454 268.659 156.254 270.564 155.548C272.469 154.843 274.528 154.658 276.529 155.011C278.529 155.365 280.399 156.246 281.947 157.562C283.494 158.878 284.663 160.583 285.333 162.501C286.019 156.116 280.754 150.768 275.688 146.822C270.619 142.877 264.859 138.582 263.879 132.233C263.332 128.7 264.561 125.276 266.798 122.528C266.868 122.444 266.937 122.361 267.008 122.28C269.732 119.079 273.564 117.023 277.737 116.524C285.51 115.716 293.059 119.83 298.706 125.234C307.794 133.929 313.288 147.284 309.804 159.372Z" fill="#F2F2F2"/>
<path d="M295.195 145.466C296.686 147.787 297.832 150.313 298.594 152.964C299.239 155.334 299.526 157.787 299.446 160.242C299.238 165.292 297.82 170.22 295.311 174.608C293.422 177.938 291.119 181.016 288.457 183.768C287.154 184.65 285.85 185.513 284.546 186.355C284.537 186.359 284.528 186.367 284.519 186.371C284.457 186.412 284.394 186.452 284.335 186.493C284.066 186.666 283.797 186.84 283.53 187.011C283.53 187.011 283.82 187.154 283.663 187.089C283.616 187.07 283.567 187.052 283.52 187.032C284.006 183.048 283.53 179.005 282.132 175.242C280.733 171.48 278.454 168.107 275.483 165.407C272.506 162.748 268.942 160.83 265.083 159.81C265.272 159.539 265.476 159.28 265.689 159.025C267.179 159.443 268.63 159.992 270.024 160.666C275.006 163.059 279.086 166.992 281.659 171.884C283.968 176.326 284.962 181.335 284.524 186.322C284.747 186.12 284.97 185.913 285.186 185.709C289.307 181.867 292.967 177.458 295.443 172.369C297.592 168.059 298.648 163.287 298.519 158.473C298.317 153.224 296.225 148.362 293.197 144.13C289.878 139.614 285.958 135.574 281.544 132.12C277.096 128.558 272.229 125.553 267.051 123.173C266.934 123.118 266.843 123.021 266.796 122.901C266.749 122.781 266.75 122.647 266.798 122.528C266.833 122.421 266.908 122.332 267.008 122.28C267.06 122.258 267.115 122.247 267.171 122.25C267.227 122.252 267.282 122.267 267.331 122.294C267.971 122.588 268.605 122.886 269.235 123.197C274.48 125.79 279.383 129.024 283.831 132.826C288.128 136.489 292.173 140.674 295.195 145.466Z" fill="white"/>
<path d="M185.585 96.3341C186.219 96.1041 186.795 95.7379 187.273 95.2611C187.75 94.7844 188.117 94.2089 188.348 93.5749C188.579 92.941 188.668 92.2642 188.609 91.5921C188.55 90.92 188.344 90.2691 188.007 89.685L198.727 77.2741L190.276 76.1741L181.391 88.1284C180.448 88.7609 179.769 89.7175 179.484 90.8169C179.199 91.9164 179.327 93.0823 179.843 94.0938C180.36 95.1052 181.23 95.892 182.288 96.3049C183.347 96.7178 184.52 96.7282 185.585 96.3341Z" fill="#FFB8B8"/>
<path d="M246.009 98.9566C246.454 98.4493 246.782 97.8507 246.97 97.2029C247.159 96.555 247.203 95.8738 247.099 95.2071C246.996 94.5404 246.748 93.9045 246.372 93.3441C245.996 92.7838 245.502 92.3126 244.925 91.9638L248.332 75.9221L240.398 79.033L238.379 93.7896C237.857 94.7986 237.724 95.9639 238.004 97.0647C238.284 98.1655 238.958 99.1253 239.899 99.7622C240.839 100.399 241.981 100.669 243.107 100.52C244.233 100.372 245.266 99.8155 246.009 98.9566Z" fill="#FFB8B8"/>
<path d="M207.613 182.56L201.987 182.56L199.31 160.858L207.614 160.859L207.613 182.56Z" fill="#FFB8B8"/>
<path d="M209.048 188.014L190.906 188.014V187.784C190.906 186.857 191.089 185.939 191.444 185.082C191.799 184.225 192.319 183.447 192.975 182.791C193.63 182.135 194.409 181.615 195.266 181.26C196.122 180.906 197.04 180.723 197.968 180.723L209.048 180.723L209.048 188.014Z" fill="#2F2E41"/>
<path d="M235.149 182.56L229.522 182.56L226.846 160.858L235.15 160.859L235.149 182.56Z" fill="#FFB8B8"/>
<path d="M236.584 188.014L218.442 188.014V187.784C218.442 186.857 218.625 185.939 218.98 185.082C219.334 184.225 219.855 183.447 220.51 182.791C221.166 182.135 221.944 181.615 222.801 181.26C223.658 180.906 224.576 180.723 225.503 180.723L236.584 180.723L236.584 188.014Z" fill="#2F2E41"/>
<path d="M208.199 171.228L200.235 170.91C199.691 170.886 199.179 170.65 198.808 170.252C198.438 169.854 198.238 169.327 198.253 168.783L200.497 95.181L200.644 95.1282C214.602 90.0786 226.15 90.4605 235.947 96.2938L236.057 96.3593L237.401 168.045C237.406 168.319 237.356 168.592 237.255 168.847C237.154 169.102 237.002 169.334 236.81 169.53C236.618 169.726 236.388 169.882 236.135 169.988C235.882 170.094 235.61 170.149 235.336 170.149H228.62C228.142 170.148 227.678 169.981 227.309 169.678C226.939 169.374 226.687 168.951 226.593 168.482L217.445 121.943C217.413 121.782 217.325 121.637 217.197 121.536C217.068 121.434 216.908 121.381 216.744 121.387C216.58 121.393 216.424 121.458 216.303 121.569C216.183 121.68 216.106 121.83 216.086 121.993L210.332 169.414C210.269 169.914 210.026 170.374 209.648 170.708C209.271 171.042 208.785 171.227 208.281 171.23C208.254 171.23 208.227 171.229 208.199 171.228Z" fill="#2F2E41"/>
<path d="M215.948 30.6342C222.173 30.6342 227.219 25.5877 227.219 19.3625C227.219 13.1373 222.173 8.09079 215.948 8.09079C209.723 8.09079 204.676 13.1373 204.676 19.3625C204.676 25.5877 209.723 30.6342 215.948 30.6342Z" fill="#FFB8B8"/>
<path d="M189.394 87.375C189.003 87.2206 188.668 86.9508 188.435 86.6014L186.257 83.3423C186.022 82.9888 185.901 82.5718 185.911 82.1475C185.92 81.7232 186.06 81.3121 186.311 80.9699L195.091 69.0526L200.592 42.6593C200.908 41.8442 201.382 41.0994 201.987 40.4675C202.591 39.8357 203.314 39.3291 204.114 38.9769C204.914 38.6246 205.776 38.4335 206.65 38.4146C207.524 38.3956 208.394 38.5492 209.208 38.8664C210.023 39.1837 210.767 39.6584 211.398 40.2635C212.03 40.8686 212.535 41.5921 212.887 42.3928C213.238 43.1934 213.428 44.0555 213.446 44.9296C213.464 45.8037 213.309 46.6728 212.991 47.4872L210.391 64.2846C209.603 69.3828 206.99 74.0212 203.037 77.3368L191.479 87.036C191.257 87.2223 190.998 87.3598 190.719 87.4395C190.44 87.5192 190.147 87.5393 189.86 87.4984C189.701 87.4758 189.544 87.4344 189.394 87.375Z" fill="#0095B7"/>
<path d="M245.528 88.5709C245.132 88.7134 244.703 88.7319 244.296 88.6241L240.508 87.6167C240.098 87.5067 239.732 87.2734 239.459 86.9485C239.186 86.6235 239.019 86.2226 238.982 85.7999L237.698 71.0532L224.388 47.6071C224.088 46.7863 223.951 45.9143 223.988 45.0409C224.024 44.1674 224.232 43.3097 224.6 42.5168C224.968 41.7238 225.489 41.0111 226.132 40.4195C226.776 39.8278 227.53 39.3688 228.351 39.0687C229.172 38.7686 230.044 38.6332 230.917 38.6703C231.791 38.7074 232.648 38.9163 233.441 39.285C234.233 39.6537 234.946 40.175 235.537 40.8192C236.128 41.4633 236.586 42.2175 236.885 43.0389L246.032 57.3652C248.809 61.7129 249.912 66.9213 249.136 72.0214L246.869 86.9386C246.825 87.2254 246.721 87.4998 246.565 87.7439C246.408 87.988 246.202 88.1964 245.959 88.3555C245.824 88.4441 245.679 88.5164 245.528 88.5709Z" fill="#0095B7"/>
<path d="M203.619 39.3796C205.555 37.2565 207.943 35.5951 210.607 34.5181C213.271 33.441 216.142 32.9758 219.01 33.1568C219.198 33.1684 219.386 33.1816 219.573 33.1962C222.291 33.4111 224.932 34.2038 227.319 35.5212C229.706 36.8387 231.784 38.6506 233.414 40.8357C235.072 43.0514 236.237 45.5955 236.833 48.2978C237.429 51 237.44 53.7983 236.868 56.5056C234.682 66.8516 235.235 77.589 238.472 87.6557L241.496 97.0448C241.593 97.3457 241.62 97.6648 241.574 97.9775C241.528 98.2903 241.411 98.5883 241.232 98.8487C241.052 99.1091 240.816 99.3248 240.54 99.4793C240.264 99.6338 239.957 99.7228 239.641 99.7397L224.182 100.571L220.226 93.7375V100.783L201.437 101.794C201.4 101.796 201.363 101.797 201.326 101.797C201.041 101.797 200.759 101.738 200.497 101.623C200.236 101.509 200.002 101.341 199.808 101.132C199.615 100.922 199.467 100.675 199.374 100.405C199.281 100.136 199.245 99.85 199.268 99.5658L201.392 73.2317L198.728 55.3461C198.297 52.4884 198.512 49.5704 199.359 46.807C200.205 44.0437 201.661 41.5056 203.619 39.3796Z" fill="#0095B7"/>
<path d="M223.782 30.1229C222.738 30.7234 218.613 31.1216 218.319 29.9539L218.313 29.9283C218.108 29.0728 218.278 28.1794 218.337 27.3018C218.396 26.4241 218.31 25.46 217.712 24.8147C216.598 23.6118 214.615 24.2495 213.004 23.9453C212.06 23.7347 211.226 23.1873 210.656 22.4057C210.087 21.6241 209.822 20.6618 209.911 19.6989C209.934 19.5165 209.97 19.3339 210.01 19.1513C210.111 18.6889 210.103 18.2094 209.987 17.7505C209.872 17.2916 209.651 16.8657 209.343 16.5063C209.035 16.147 208.648 15.8639 208.212 15.6794C207.776 15.4948 207.304 15.4138 206.831 15.4426C205.203 15.5357 203.445 16.0291 202.098 14.823C201.056 13.8904 200.802 11.4626 201.26 10.1414C202.029 7.92093 206.957 6.75849 209.108 6.11948C211.769 5.35063 214.568 5.18442 217.301 5.6329C220.035 6.08139 222.634 7.13331 224.909 8.7122C226.268 9.67009 227.537 10.8737 228.117 12.4322C228.696 13.9906 228.416 15.9568 227.11 16.9856C228.123 18.0576 228.836 19.3767 229.178 20.8109C229.52 22.2451 229.479 23.7441 229.059 25.1575C228.414 27.2362 225.335 29.2291 223.782 30.1229Z" fill="#2F2E41"/>
<path d="M122.075 63.3319H20.6518C20.5301 63.3319 20.4134 63.2835 20.3273 63.1974C20.2412 63.1114 20.1929 62.9946 20.1929 62.8729C20.1929 62.7512 20.2412 62.6345 20.3273 62.5484C20.4134 62.4624 20.5301 62.414 20.6518 62.414H122.075C122.196 62.414 122.313 62.4624 122.399 62.5484C122.485 62.6345 122.533 62.7512 122.533 62.8729C122.533 62.9946 122.485 63.1114 122.399 63.1974C122.313 63.2835 122.196 63.3319 122.075 63.3319Z" fill="#C7C7C7"/>
<path d="M99.8615 63.3319H42.2211C42.0994 63.3319 41.9827 63.2835 41.8966 63.1974C41.8106 63.1114 41.7622 62.9946 41.7622 62.8729C41.7622 62.7512 41.8106 62.6345 41.8966 62.5484C41.9827 62.4624 42.0994 62.414 42.2211 62.414H99.8615C99.9833 62.414 100.1 62.4624 100.186 62.5484C100.272 62.6345 100.32 62.7512 100.32 62.8729C100.32 62.9946 100.272 63.1114 100.186 63.1974C100.1 63.2835 99.9833 63.3319 99.8615 63.3319Z" fill="#A098FF"/>
<path d="M71.5925 63.3319C71.4708 63.3319 71.354 63.2835 71.268 63.1974C71.1819 63.1114 71.1335 62.9946 71.1335 62.8729V33.9606C71.1335 33.8388 71.1819 33.7221 71.268 33.6361C71.354 33.55 71.4708 33.5016 71.5925 33.5016C71.7142 33.5016 71.8309 33.55 71.917 33.6361C72.0031 33.7221 72.0514 33.8388 72.0514 33.9606V62.8729C72.0514 62.9946 72.003 63.1114 71.917 63.1974C71.8309 63.2835 71.7142 63.3318 71.5925 63.3319Z" fill="#A098FF"/>
<path d="M100.505 63.3318C100.383 63.3318 100.266 63.2835 100.18 63.1974C100.094 63.1114 100.046 62.9946 100.046 62.8729V5.04819C100.046 4.92648 100.094 4.80975 100.18 4.72368C100.266 4.63761 100.383 4.58926 100.505 4.58926C100.627 4.58926 100.743 4.63761 100.829 4.72368C100.915 4.80975 100.964 4.92648 100.964 5.04819V62.8729C100.964 62.9946 100.915 63.1114 100.829 63.1974C100.743 63.2835 100.627 63.3318 100.505 63.3318Z" fill="#A098FF"/>
<path d="M5.04819 10.0964C7.83623 10.0964 10.0964 7.83623 10.0964 5.04819C10.0964 2.26015 7.83623 0 5.04819 0C2.26015 0 0 2.26015 0 5.04819C0 7.83623 2.26015 10.0964 5.04819 10.0964Z" fill="#C7C7C7"/>
<path d="M5.04819 39.0087C7.83623 39.0087 10.0964 36.7486 10.0964 33.9606C10.0964 31.1725 7.83623 28.9124 5.04819 28.9124C2.26015 28.9124 0 31.1725 0 33.9606C0 36.7486 2.26015 39.0087 5.04819 39.0087Z" fill="#C7C7C7"/>
<path d="M5.04819 67.9211C7.83623 67.9211 10.0964 65.661 10.0964 62.8729C10.0964 60.0849 7.83623 57.8247 5.04819 57.8247C2.26015 57.8247 0 60.0849 0 62.8729C0 65.661 2.26015 67.9211 5.04819 67.9211Z" fill="#C7C7C7"/>
<path d="M122.075 5.50712H20.6518C20.5301 5.50712 20.4134 5.45876 20.3273 5.37269C20.2412 5.28663 20.1929 5.16991 20.1929 5.04819C20.1929 4.92648 20.2412 4.80975 20.3273 4.72368C20.4134 4.63761 20.5301 4.58926 20.6518 4.58926H122.075C122.196 4.58926 122.313 4.63761 122.399 4.72368C122.485 4.80975 122.533 4.92648 122.533 5.04819C122.533 5.16991 122.485 5.28663 122.399 5.37269C122.313 5.45876 122.196 5.50712 122.075 5.50712Z" fill="#C7C7C7"/>
<path d="M122.075 34.4195H20.6518C20.5301 34.4195 20.4134 34.3711 20.3273 34.2851C20.2412 34.199 20.1929 34.0823 20.1929 33.9606C20.1929 33.8388 20.2412 33.7221 20.3273 33.6361C20.4134 33.55 20.5301 33.5016 20.6518 33.5016H122.075C122.196 33.5016 122.313 33.55 122.399 33.6361C122.485 33.7221 122.533 33.8388 122.533 33.9606C122.533 34.0823 122.485 34.199 122.399 34.2851C122.313 34.3711 122.196 34.4195 122.075 34.4195Z" fill="#C7C7C7"/>
<path d="M42.4508 67.9211C45.2388 67.9211 47.499 65.661 47.499 62.8729C47.499 60.0849 45.2388 57.8247 42.4508 57.8247C39.6627 57.8247 37.4026 60.0849 37.4026 62.8729C37.4026 65.661 39.6627 67.9211 42.4508 67.9211Z" fill="#0095B7"/>
<path d="M71.5926 39.0087C74.3807 39.0087 76.6408 36.7486 76.6408 33.9606C76.6408 31.1725 74.3807 28.9124 71.5926 28.9124C68.8046 28.9124 66.5444 31.1725 66.5444 33.9606C66.5444 36.7486 68.8046 39.0087 71.5926 39.0087Z" fill="#0095B7"/>
<path d="M71.5926 67.9211C74.3807 67.9211 76.6408 65.661 76.6408 62.8729C76.6408 60.0849 74.3807 57.8247 71.5926 57.8247C68.8046 57.8247 66.5444 60.0849 66.5444 62.8729C66.5444 65.661 68.8046 67.9211 71.5926 67.9211Z" fill="#0095B7"/>
<path d="M100.505 10.0964C103.293 10.0964 105.553 7.83623 105.553 5.04819C105.553 2.26015 103.293 0 100.505 0C97.7169 0 95.4568 2.26015 95.4568 5.04819C95.4568 7.83623 97.7169 10.0964 100.505 10.0964Z" fill="#0095B7"/>
<path d="M100.505 39.0087C103.293 39.0087 105.553 36.7486 105.553 33.9606C105.553 31.1725 103.293 28.9124 100.505 28.9124C97.7169 28.9124 95.4568 31.1725 95.4568 33.9606C95.4568 36.7486 97.7169 39.0087 100.505 39.0087Z" fill="#0095B7"/>
<path d="M100.505 67.9211C103.293 67.9211 105.553 65.661 105.553 62.8729C105.553 60.0849 103.293 57.8247 100.505 57.8247C97.7169 57.8247 95.4568 60.0849 95.4568 62.8729C95.4568 65.661 97.7169 67.9211 100.505 67.9211Z" fill="#0095B7"/>
<path d="M319.541 188.16H118.072C117.951 188.16 117.834 188.111 117.748 188.025C117.662 187.939 117.614 187.823 117.614 187.701C117.614 187.579 117.662 187.462 117.748 187.376C117.834 187.29 117.951 187.242 118.072 187.242H319.541C319.663 187.242 319.78 187.29 319.866 187.376C319.952 187.462 320 187.579 320 187.701C320 187.823 319.952 187.939 319.866 188.025C319.78 188.111 319.663 188.16 319.541 188.16Z" fill="#C9C5EE"/>
<path d="M149.151 147.34C148.847 147.324 148.541 147.316 148.233 147.315C143.608 147.315 139.172 149.153 135.902 152.423C132.631 155.694 130.794 160.129 130.794 164.755H149.151V147.34Z" fill="#0095B7"/>
<path d="M152.822 188.16C148.077 188.154 143.528 186.267 140.172 182.912C136.817 179.556 134.93 175.007 134.924 170.262C134.924 170.14 134.973 170.023 135.059 169.937C135.145 169.851 135.262 169.803 135.383 169.803H153.281V152.847C153.281 152.784 153.294 152.723 153.319 152.666C153.343 152.608 153.379 152.557 153.424 152.514C153.469 152.471 153.523 152.437 153.581 152.415C153.639 152.394 153.702 152.385 153.764 152.388C158.423 152.634 162.802 154.689 165.968 158.115C169.134 161.542 170.837 166.069 170.714 170.733C170.592 175.396 168.653 179.828 165.311 183.083C161.969 186.338 157.488 188.16 152.822 188.16ZM135.848 170.721C135.937 174 136.974 177.183 138.833 179.885C140.692 182.588 143.294 184.694 146.324 185.949C149.355 187.204 152.684 187.555 155.91 186.958C159.135 186.362 162.119 184.844 164.5 182.588C166.881 180.333 168.558 177.435 169.328 174.247C170.098 171.058 169.928 167.715 168.839 164.621C167.749 161.527 165.787 158.815 163.189 156.812C160.591 154.81 157.469 153.603 154.199 153.337V170.262C154.199 170.383 154.151 170.5 154.065 170.586C153.979 170.672 153.862 170.721 153.74 170.721H135.848Z" fill="#D4D1F8"/>
</g>
<defs>
<clipPath id="clip0_119_321">
<rect width="320" height="188.16" fill="white"/>
</clipPath>
</defs>
</svg>
