<svg width="1000px" viewBox="0 0 320 219" fill="none" xmlns="http://www.w3.org/2000/svg">
<g clip-path="url(#clip0_119_355)">
<path d="M72.6818 5.66547C74.2468 5.66547 75.5155 4.39721 75.5155 2.83273C75.5155 1.26826 74.2468 0 72.6818 0C71.1168 0 69.8481 1.26826 69.8481 2.83273C69.8481 4.39721 71.1168 5.66547 72.6818 5.66547Z" fill="#E6E6E6"/>
<path d="M87.0258 5.66547C88.5908 5.66547 89.8595 4.39721 89.8595 2.83273C89.8595 1.26826 88.5908 0 87.0258 0C85.4608 0 84.1921 1.26826 84.1921 2.83273C84.1921 4.39721 85.4608 5.66547 87.0258 5.66547Z" fill="#E6E6E6"/>
<path d="M101.37 5.66547C102.935 5.66547 104.204 4.39721 104.204 2.83273C104.204 1.26826 102.935 0 101.37 0C99.8051 0 98.5364 1.26826 98.5364 2.83273C98.5364 4.39721 99.8051 5.66547 101.37 5.66547Z" fill="#E6E6E6"/>
<path d="M115.714 5.66547C117.279 5.66547 118.548 4.39721 118.548 2.83273C118.548 1.26826 117.279 0 115.714 0C114.149 0 112.88 1.26826 112.88 2.83273C112.88 4.39721 114.149 5.66547 115.714 5.66547Z" fill="#E6E6E6"/>
<path d="M130.058 5.66547C131.623 5.66547 132.892 4.39721 132.892 2.83273C132.892 1.26826 131.623 0 130.058 0C128.493 0 127.225 1.26826 127.225 2.83273C127.225 4.39721 128.493 5.66547 130.058 5.66547Z" fill="#E6E6E6"/>
<path d="M72.6818 20.1847C74.2468 20.1847 75.5155 18.9164 75.5155 17.352C75.5155 15.7875 74.2468 14.5192 72.6818 14.5192C71.1168 14.5192 69.8481 15.7875 69.8481 17.352C69.8481 18.9164 71.1168 20.1847 72.6818 20.1847Z" fill="#E6E6E6"/>
<path d="M87.0258 20.1847C88.5908 20.1847 89.8595 18.9164 89.8595 17.352C89.8595 15.7875 88.5908 14.5192 87.0258 14.5192C85.4608 14.5192 84.1921 15.7875 84.1921 17.352C84.1921 18.9164 85.4608 20.1847 87.0258 20.1847Z" fill="#E6E6E6"/>
<path d="M101.37 20.1847C102.935 20.1847 104.204 18.9164 104.204 17.352C104.204 15.7875 102.935 14.5192 101.37 14.5192C99.8051 14.5192 98.5364 15.7875 98.5364 17.352C98.5364 18.9164 99.8051 20.1847 101.37 20.1847Z" fill="#E6E6E6"/>
<path d="M115.714 20.1847C117.279 20.1847 118.548 18.9164 118.548 17.352C118.548 15.7875 117.279 14.5192 115.714 14.5192C114.149 14.5192 112.88 15.7875 112.88 17.352C112.88 18.9164 114.149 20.1847 115.714 20.1847Z" fill="#0095B7"/>
<path d="M130.058 20.1847C131.623 20.1847 132.892 18.9164 132.892 17.352C132.892 15.7875 131.623 14.5192 130.058 14.5192C128.493 14.5192 127.225 15.7875 127.225 17.352C127.225 18.9164 128.493 20.1847 130.058 20.1847Z" fill="#E6E6E6"/>
<path d="M158.746 20.1847C160.311 20.1847 161.58 18.9164 161.58 17.352C161.58 15.7875 160.311 14.5192 158.746 14.5192C157.181 14.5192 155.913 15.7875 155.913 17.352C155.913 18.9164 157.181 20.1847 158.746 20.1847Z" fill="#E6E6E6"/>
<path d="M72.6818 34.7039C74.2468 34.7039 75.5155 33.4357 75.5155 31.8712C75.5155 30.3067 74.2468 29.0385 72.6818 29.0385C71.1168 29.0385 69.8481 30.3067 69.8481 31.8712C69.8481 33.4357 71.1168 34.7039 72.6818 34.7039Z" fill="#E6E6E6"/>
<path d="M87.0258 34.7039C88.5908 34.7039 89.8595 33.4357 89.8595 31.8712C89.8595 30.3067 88.5908 29.0385 87.0258 29.0385C85.4608 29.0385 84.1921 30.3067 84.1921 31.8712C84.1921 33.4357 85.4608 34.7039 87.0258 34.7039Z" fill="#E6E6E6"/>
<path d="M101.37 34.7039C102.935 34.7039 104.204 33.4357 104.204 31.8712C104.204 30.3067 102.935 29.0385 101.37 29.0385C99.8051 29.0385 98.5364 30.3067 98.5364 31.8712C98.5364 33.4357 99.8051 34.7039 101.37 34.7039Z" fill="#E6E6E6"/>
<path d="M115.714 34.7039C117.279 34.7039 118.548 33.4357 118.548 31.8712C118.548 30.3067 117.279 29.0385 115.714 29.0385C114.149 29.0385 112.88 30.3067 112.88 31.8712C112.88 33.4357 114.149 34.7039 115.714 34.7039Z" fill="#E6E6E6"/>
<path d="M130.058 34.7039C131.623 34.7039 132.892 33.4357 132.892 31.8712C132.892 30.3067 131.623 29.0385 130.058 29.0385C128.493 29.0385 127.225 30.3067 127.225 31.8712C127.225 33.4357 128.493 34.7039 130.058 34.7039Z" fill="#E6E6E6"/>
<path d="M72.6818 49.2231C74.2468 49.2231 75.5155 47.9549 75.5155 46.3904C75.5155 44.8259 74.2468 43.5577 72.6818 43.5577C71.1168 43.5577 69.8481 44.8259 69.8481 46.3904C69.8481 47.9549 71.1168 49.2231 72.6818 49.2231Z" fill="#E6E6E6"/>
<path d="M87.0258 49.2231C88.5908 49.2231 89.8595 47.9549 89.8595 46.3904C89.8595 44.8259 88.5908 43.5577 87.0258 43.5577C85.4608 43.5577 84.1921 44.8259 84.1921 46.3904C84.1921 47.9549 85.4608 49.2231 87.0258 49.2231Z" fill="#E6E6E6"/>
<path d="M101.37 49.2231C102.935 49.2231 104.204 47.9549 104.204 46.3904C104.204 44.8259 102.935 43.5577 101.37 43.5577C99.8051 43.5577 98.5364 44.8259 98.5364 46.3904C98.5364 47.9549 99.8051 49.2231 101.37 49.2231Z" fill="#E6E6E6"/>
<path d="M115.714 49.2231C117.279 49.2231 118.548 47.9549 118.548 46.3904C118.548 44.8259 117.279 43.5577 115.714 43.5577C114.149 43.5577 112.88 44.8259 112.88 46.3904C112.88 47.9549 114.149 49.2231 115.714 49.2231Z" fill="#E6E6E6"/>
<path d="M130.058 49.2231C131.623 49.2231 132.892 47.9549 132.892 46.3904C132.892 44.8259 131.623 43.5577 130.058 43.5577C128.493 43.5577 127.225 44.8259 127.225 46.3904C127.225 47.9549 128.493 49.2231 130.058 49.2231Z" fill="#E6E6E6"/>
<path d="M144.402 49.2231C145.967 49.2231 147.236 47.9549 147.236 46.3904C147.236 44.8259 145.967 43.5577 144.402 43.5577C142.837 43.5577 141.569 44.8259 141.569 46.3904C141.569 47.9549 142.837 49.2231 144.402 49.2231Z" fill="#E6E6E6"/>
<path d="M158.746 49.2231C160.311 49.2231 161.58 47.9549 161.58 46.3904C161.58 44.8259 160.311 43.5577 158.746 43.5577C157.181 43.5577 155.913 44.8259 155.913 46.3904C155.913 47.9549 157.181 49.2231 158.746 49.2231Z" fill="#E6E6E6"/>
<path d="M173.09 49.2231C174.655 49.2231 175.924 47.9549 175.924 46.3904C175.924 44.8259 174.655 43.5577 173.09 43.5577C171.525 43.5577 170.257 44.8259 170.257 46.3904C170.257 47.9549 171.525 49.2231 173.09 49.2231Z" fill="#E6E6E6"/>
<path d="M187.435 49.2231C189 49.2231 190.268 47.9549 190.268 46.3904C190.268 44.8259 189 43.5577 187.435 43.5577C185.87 43.5577 184.601 44.8259 184.601 46.3904C184.601 47.9549 185.87 49.2231 187.435 49.2231Z" fill="#E6E6E6"/>
<path d="M201.779 49.2231C203.344 49.2231 204.612 47.9549 204.612 46.3904C204.612 44.8259 203.344 43.5577 201.779 43.5577C200.214 43.5577 198.945 44.8259 198.945 46.3904C198.945 47.9549 200.214 49.2231 201.779 49.2231Z" fill="#E6E6E6"/>
<path d="M130.058 63.7424C131.623 63.7424 132.892 62.4741 132.892 60.9096C132.892 59.3452 131.623 58.0769 130.058 58.0769C128.493 58.0769 127.225 59.3452 127.225 60.9096C127.225 62.4741 128.493 63.7424 130.058 63.7424Z" fill="#E6E6E6"/>
<path d="M144.402 63.7424C145.967 63.7424 147.236 62.4741 147.236 60.9096C147.236 59.3452 145.967 58.0769 144.402 58.0769C142.837 58.0769 141.569 59.3452 141.569 60.9096C141.569 62.4741 142.837 63.7424 144.402 63.7424Z" fill="#0095B7"/>
<path d="M158.746 63.7424C160.311 63.7424 161.58 62.4741 161.58 60.9096C161.58 59.3452 160.311 58.0769 158.746 58.0769C157.181 58.0769 155.913 59.3452 155.913 60.9096C155.913 62.4741 157.181 63.7424 158.746 63.7424Z" fill="#E6E6E6"/>
<path d="M173.09 63.7424C174.655 63.7424 175.924 62.4741 175.924 60.9096C175.924 59.3452 174.655 58.0769 173.09 58.0769C171.525 58.0769 170.257 59.3452 170.257 60.9096C170.257 62.4741 171.525 63.7424 173.09 63.7424Z" fill="#E6E6E6"/>
<path d="M187.435 63.7424C189 63.7424 190.268 62.4741 190.268 60.9096C190.268 59.3452 189 58.0769 187.435 58.0769C185.87 58.0769 184.601 59.3452 184.601 60.9096C184.601 62.4741 185.87 63.7424 187.435 63.7424Z" fill="#E6E6E6"/>
<path d="M201.779 63.7424C203.344 63.7424 204.612 62.4741 204.612 60.9096C204.612 59.3452 203.344 58.0769 201.779 58.0769C200.214 58.0769 198.945 59.3452 198.945 60.9096C198.945 62.4741 200.214 63.7424 201.779 63.7424Z" fill="#E6E6E6"/>
<path d="M130.058 78.2616C131.623 78.2616 132.892 76.9933 132.892 75.4289C132.892 73.8644 131.623 72.5961 130.058 72.5961C128.493 72.5961 127.225 73.8644 127.225 75.4289C127.225 76.9933 128.493 78.2616 130.058 78.2616Z" fill="#E6E6E6"/>
<path d="M144.402 78.2616C145.967 78.2616 147.236 76.9933 147.236 75.4289C147.236 73.8644 145.967 72.5961 144.402 72.5961C142.837 72.5961 141.569 73.8644 141.569 75.4289C141.569 76.9933 142.837 78.2616 144.402 78.2616Z" fill="#E6E6E6"/>
<path d="M158.746 78.2616C160.311 78.2616 161.58 76.9933 161.58 75.4289C161.58 73.8644 160.311 72.5961 158.746 72.5961C157.181 72.5961 155.913 73.8644 155.913 75.4289C155.913 76.9933 157.181 78.2616 158.746 78.2616Z" fill="#E6E6E6"/>
<path d="M173.09 78.2616C174.655 78.2616 175.924 76.9933 175.924 75.4289C175.924 73.8644 174.655 72.5961 173.09 72.5961C171.525 72.5961 170.257 73.8644 170.257 75.4289C170.257 76.9933 171.525 78.2616 173.09 78.2616Z" fill="#E6E6E6"/>
<path d="M187.435 78.2616C189 78.2616 190.268 76.9933 190.268 75.4289C190.268 73.8644 189 72.5961 187.435 72.5961C185.87 72.5961 184.601 73.8644 184.601 75.4289C184.601 76.9933 185.87 78.2616 187.435 78.2616Z" fill="#0095B7"/>
<path d="M201.779 78.2616C203.344 78.2616 204.612 76.9933 204.612 75.4289C204.612 73.8644 203.344 72.5961 201.779 72.5961C200.214 72.5961 198.945 73.8644 198.945 75.4289C198.945 76.9933 200.214 78.2616 201.779 78.2616Z" fill="#E6E6E6"/>
<path d="M130.058 92.7809C131.623 92.7809 132.892 91.5126 132.892 89.9481C132.892 88.3836 131.623 87.1154 130.058 87.1154C128.493 87.1154 127.225 88.3836 127.225 89.9481C127.225 91.5126 128.493 92.7809 130.058 92.7809Z" fill="#E6E6E6"/>
<path d="M144.402 92.7809C145.967 92.7809 147.236 91.5126 147.236 89.9481C147.236 88.3836 145.967 87.1154 144.402 87.1154C142.837 87.1154 141.569 88.3836 141.569 89.9481C141.569 91.5126 142.837 92.7809 144.402 92.7809Z" fill="#E6E6E6"/>
<path d="M158.746 92.7809C160.311 92.7809 161.58 91.5126 161.58 89.9481C161.58 88.3836 160.311 87.1154 158.746 87.1154C157.181 87.1154 155.913 88.3836 155.913 89.9481C155.913 91.5126 157.181 92.7809 158.746 92.7809Z" fill="#E6E6E6"/>
<path d="M173.09 92.7809C174.655 92.7809 175.924 91.5126 175.924 89.9481C175.924 88.3836 174.655 87.1154 173.09 87.1154C171.525 87.1154 170.257 88.3836 170.257 89.9481C170.257 91.5126 171.525 92.7809 173.09 92.7809Z" fill="#E6E6E6"/>
<path d="M187.435 92.7809C189 92.7809 190.268 91.5126 190.268 89.9481C190.268 88.3836 189 87.1154 187.435 87.1154C185.87 87.1154 184.601 88.3836 184.601 89.9481C184.601 91.5126 185.87 92.7809 187.435 92.7809Z" fill="#E6E6E6"/>
<path d="M201.779 92.7809C203.344 92.7809 204.612 91.5126 204.612 89.9481C204.612 88.3836 203.344 87.1154 201.779 87.1154C200.214 87.1154 198.945 88.3836 198.945 89.9481C198.945 91.5126 200.214 92.7809 201.779 92.7809Z" fill="#E6E6E6"/>
<path d="M72.6818 107.3C74.2468 107.3 75.5155 106.032 75.5155 104.467C75.5155 102.903 74.2468 101.635 72.6818 101.635C71.1168 101.635 69.8481 102.903 69.8481 104.467C69.8481 106.032 71.1168 107.3 72.6818 107.3Z" fill="#E6E6E6"/>
<path d="M87.0258 107.3C88.5908 107.3 89.8595 106.032 89.8595 104.467C89.8595 102.903 88.5908 101.635 87.0258 101.635C85.4608 101.635 84.1921 102.903 84.1921 104.467C84.1921 106.032 85.4608 107.3 87.0258 107.3Z" fill="#E6E6E6"/>
<path d="M101.37 107.3C102.935 107.3 104.204 106.032 104.204 104.467C104.204 102.903 102.935 101.635 101.37 101.635C99.8051 101.635 98.5364 102.903 98.5364 104.467C98.5364 106.032 99.8051 107.3 101.37 107.3Z" fill="#E6E6E6"/>
<path d="M115.714 107.3C117.279 107.3 118.548 106.032 118.548 104.467C118.548 102.903 117.279 101.635 115.714 101.635C114.149 101.635 112.88 102.903 112.88 104.467C112.88 106.032 114.149 107.3 115.714 107.3Z" fill="#E6E6E6"/>
<path d="M130.058 107.3C131.623 107.3 132.892 106.032 132.892 104.467C132.892 102.903 131.623 101.635 130.058 101.635C128.493 101.635 127.225 102.903 127.225 104.467C127.225 106.032 128.493 107.3 130.058 107.3Z" fill="#E6E6E6"/>
<path d="M144.402 107.3C145.967 107.3 147.236 106.032 147.236 104.467C147.236 102.903 145.967 101.635 144.402 101.635C142.837 101.635 141.569 102.903 141.569 104.467C141.569 106.032 142.837 107.3 144.402 107.3Z" fill="#E6E6E6"/>
<path d="M158.746 107.3C160.311 107.3 161.58 106.032 161.58 104.467C161.58 102.903 160.311 101.635 158.746 101.635C157.181 101.635 155.913 102.903 155.913 104.467C155.913 106.032 157.181 107.3 158.746 107.3Z" fill="#E6E6E6"/>
<path d="M173.09 107.3C174.655 107.3 175.924 106.032 175.924 104.467C175.924 102.903 174.655 101.635 173.09 101.635C171.525 101.635 170.257 102.903 170.257 104.467C170.257 106.032 171.525 107.3 173.09 107.3Z" fill="#E6E6E6"/>
<path d="M187.435 107.3C189 107.3 190.268 106.032 190.268 104.467C190.268 102.903 189 101.635 187.435 101.635C185.87 101.635 184.601 102.903 184.601 104.467C184.601 106.032 185.87 107.3 187.435 107.3Z" fill="#E6E6E6"/>
<path d="M201.779 107.3C203.344 107.3 204.612 106.032 204.612 104.467C204.612 102.903 203.344 101.635 201.779 101.635C200.214 101.635 198.945 102.903 198.945 104.467C198.945 106.032 200.214 107.3 201.779 107.3Z" fill="#E6E6E6"/>
<path d="M72.6801 121.819C74.2451 121.819 75.5138 120.551 75.5138 118.986C75.5138 117.422 74.2451 116.153 72.6801 116.153C71.1151 116.153 69.8464 117.422 69.8464 118.986C69.8464 120.551 71.1151 121.819 72.6801 121.819Z" fill="#E6E6E6"/>
<path d="M87.0258 121.819C88.5908 121.819 89.8595 120.551 89.8595 118.987C89.8595 117.422 88.5908 116.154 87.0258 116.154C85.4608 116.154 84.1921 117.422 84.1921 118.987C84.1921 120.551 85.4608 121.819 87.0258 121.819Z" fill="#E6E6E6"/>
<path d="M72.6801 136.338C74.2451 136.338 75.5138 135.07 75.5138 133.505C75.5138 131.941 74.2451 130.673 72.6801 130.673C71.1151 130.673 69.8464 131.941 69.8464 133.505C69.8464 135.07 71.1151 136.338 72.6801 136.338Z" fill="#E6E6E6"/>
<path d="M87.0258 136.339C88.5908 136.339 89.8595 135.07 89.8595 133.506C89.8595 131.941 88.5908 130.673 87.0258 130.673C85.4608 130.673 84.1921 131.941 84.1921 133.506C84.1921 135.07 85.4608 136.339 87.0258 136.339Z" fill="#E6E6E6"/>
<path d="M115.714 136.339C117.279 136.339 118.548 135.07 118.548 133.506C118.548 131.941 117.279 130.673 115.714 130.673C114.149 130.673 112.88 131.941 112.88 133.506C112.88 135.07 114.149 136.339 115.714 136.339Z" fill="#E6E6E6"/>
<path d="M258.691 33.4206H146.398C145.846 33.42 145.318 33.2007 144.928 32.811C144.538 32.4213 144.319 31.8929 144.318 31.3418V3.49588C144.319 2.94474 144.538 2.41637 144.928 2.02665C145.318 1.63694 145.846 1.41771 146.398 1.41707H258.691C259.243 1.41771 259.771 1.63694 260.161 2.02665C260.551 2.41637 260.77 2.94474 260.771 3.49588V31.3418C260.77 31.8929 260.551 32.4213 260.161 32.811C259.771 33.2007 259.243 33.42 258.691 33.4206ZM146.398 2.24859C146.067 2.24895 145.75 2.38048 145.516 2.61431C145.282 2.84815 145.15 3.16519 145.15 3.49588V31.3418C145.15 31.6725 145.282 31.9895 145.516 32.2234C145.75 32.4572 146.067 32.5887 146.398 32.5891H258.691C259.022 32.5887 259.339 32.4572 259.573 32.2234C259.807 31.9895 259.939 31.6725 259.939 31.3418V3.49588C259.939 3.16519 259.807 2.84815 259.573 2.61431C259.339 2.38048 259.022 2.24895 258.691 2.24859H146.398Z" fill="#E6E6E6"/>
<path d="M160.954 26.1497C165.778 26.1497 169.688 22.2407 169.688 17.4187C169.688 12.5967 165.778 8.68771 160.954 8.68771C156.131 8.68771 152.22 12.5967 152.22 17.4187C152.22 22.2407 156.131 26.1497 160.954 26.1497Z" fill="#0095B7"/>
<path d="M181.125 11.5981C180.739 11.5981 180.369 11.7514 180.096 12.0243C179.823 12.2972 179.67 12.6673 179.67 13.0532C179.67 13.4392 179.823 13.8093 180.096 14.0822C180.369 14.3551 180.739 14.5084 181.125 14.5084H219.804C220.19 14.5084 220.561 14.3551 220.834 14.0822C221.107 13.8093 221.26 13.4392 221.26 13.0532C221.26 12.6673 221.107 12.2972 220.834 12.0243C220.561 11.7514 220.19 11.5981 219.804 11.5981H181.125Z" fill="#E6E6E6"/>
<path d="M181.125 20.3291C180.739 20.3291 180.369 20.4824 180.096 20.7553C179.823 21.0282 179.67 21.3983 179.67 21.7842C179.67 22.1702 179.823 22.5403 180.096 22.8132C180.369 23.0861 180.739 23.2394 181.125 23.2394H249.749C250.135 23.2394 250.506 23.0861 250.779 22.8132C251.052 22.5403 251.205 22.1702 251.205 21.7842C251.205 21.3983 251.052 21.0282 250.779 20.7553C250.506 20.4824 250.135 20.3291 249.749 20.3291H181.125Z" fill="#E6E6E6"/>
<path d="M114.373 89.9643H2.07951C1.52819 89.9636 0.999634 89.7444 0.60979 89.3547C0.219946 88.965 0.000646115 88.4366 0 87.8855V60.0396C0.000646115 59.4884 0.219946 58.9601 0.60979 58.5703C0.999634 58.1806 1.52819 57.9614 2.07951 57.9608H114.373C114.925 57.9614 115.453 58.1806 115.843 58.5703C116.233 58.9601 116.452 59.4884 116.453 60.0396V87.8855C116.452 88.4366 116.233 88.965 115.843 89.3547C115.453 89.7444 114.925 89.9636 114.373 89.9643ZM2.07951 58.7923C1.74871 58.7926 1.43156 58.9242 1.19765 59.158C0.963736 59.3918 0.832166 59.7089 0.831805 60.0396V87.8855C0.832166 88.2162 0.963736 88.5332 1.19765 88.7671C1.43156 89.0009 1.74871 89.1324 2.07951 89.1328H114.373C114.704 89.1324 115.021 89.0009 115.255 88.7671C115.489 88.5332 115.621 88.2162 115.621 87.8855V60.0396C115.621 59.7089 115.489 59.3918 115.255 59.158C115.021 58.9242 114.704 58.7926 114.373 58.7923H2.07951Z" fill="#E6E6E6"/>
<path d="M16.636 82.6934C21.4597 82.6934 25.37 78.7844 25.37 73.9624C25.37 69.1404 21.4597 65.2314 16.636 65.2314C11.8124 65.2314 7.9021 69.1404 7.9021 73.9624C7.9021 78.7844 11.8124 82.6934 16.636 82.6934Z" fill="#0095B7"/>
<path d="M36.8075 68.1417C36.4214 68.1417 36.0511 68.295 35.7782 68.5679C35.5052 68.8408 35.3518 69.211 35.3518 69.5969C35.3518 69.9828 35.5052 70.353 35.7782 70.6259C36.0511 70.8988 36.4214 71.0521 36.8075 71.0521H77.15C77.5361 71.0521 77.9063 70.8988 78.1793 70.6259C78.4523 70.353 78.6056 69.9828 78.6056 69.5969C78.6056 69.211 78.4523 68.8408 78.1793 68.5679C77.9063 68.295 77.5361 68.1417 77.15 68.1417H36.8075Z" fill="#E6E6E6"/>
<path d="M36.8075 76.8727C36.4214 76.8727 36.0511 77.0261 35.7782 77.299C35.5052 77.5719 35.3518 77.942 35.3518 78.3279C35.3518 78.7138 35.5052 79.084 35.7782 79.3569C36.0511 79.6298 36.4214 79.7831 36.8075 79.7831H105.431C105.817 79.7831 106.188 79.6298 106.461 79.3569C106.734 79.084 106.887 78.7138 106.887 78.3279C106.887 77.942 106.734 77.5719 106.461 77.299C106.188 77.0261 105.817 76.8727 105.431 76.8727H36.8075Z" fill="#E6E6E6"/>
<path d="M215.854 151.081H103.56C103.008 151.081 102.48 150.861 102.09 150.472C101.7 150.082 101.481 149.554 101.48 149.003V121.157C101.481 120.605 101.7 120.077 102.09 119.687C102.48 119.298 103.008 119.078 103.56 119.078H215.854C216.405 119.078 216.933 119.298 217.323 119.687C217.713 120.077 217.932 120.605 217.933 121.157V149.003C217.932 149.554 217.713 150.082 217.323 150.472C216.933 150.861 216.405 151.081 215.854 151.081ZM103.56 119.909C103.229 119.91 102.912 120.041 102.678 120.275C102.444 120.509 102.312 120.826 102.312 121.157V149.003C102.312 149.333 102.444 149.65 102.678 149.884C102.912 150.118 103.229 150.249 103.56 150.25H215.854C216.184 150.249 216.502 150.118 216.735 149.884C216.969 149.65 217.101 149.333 217.101 149.003V121.157C217.101 120.826 216.969 120.509 216.735 120.275C216.502 120.041 216.184 119.91 215.854 119.909H103.56Z" fill="#3F3D56"/>
<path d="M118.116 143.81C122.94 143.81 126.85 139.901 126.85 135.079C126.85 130.257 122.94 126.348 118.116 126.348C113.293 126.348 109.382 130.257 109.382 135.079C109.382 139.901 113.293 143.81 118.116 143.81Z" fill="#0095B7"/>
<path d="M138.287 129.259C137.901 129.259 137.531 129.412 137.258 129.685C136.985 129.958 136.832 130.328 136.832 130.714C136.832 131.1 136.985 131.47 137.258 131.743C137.531 132.016 137.901 132.169 138.287 132.169H175.303C175.689 132.169 176.059 132.016 176.332 131.743C176.605 131.47 176.758 131.1 176.758 130.714C176.758 130.328 176.605 129.958 176.332 129.685C176.059 129.412 175.689 129.259 175.303 129.259H138.287Z" fill="#E6E6E6"/>
<path d="M138.287 137.99C137.901 137.99 137.531 138.143 137.258 138.416C136.985 138.689 136.832 139.059 136.832 139.445C136.832 139.831 136.985 140.201 137.258 140.474C137.531 140.747 137.901 140.9 138.287 140.9H206.911C207.297 140.9 207.668 140.747 207.941 140.474C208.214 140.201 208.367 139.831 208.367 139.445C208.367 139.059 208.214 138.689 207.941 138.416C207.668 138.143 207.297 137.99 206.911 137.99H138.287Z" fill="#E6E6E6"/>
<path d="M276.263 144.019C271.386 158.645 251.436 143.133 251.436 143.133L256.756 87.7337C264.736 81.5289 273.159 86.8473 273.159 86.8473L276.263 144.019Z" fill="#E6E6E6"/>
<path d="M275.216 193.104L282.013 193.176L280.315 212.764L275.216 212.765L275.216 193.104Z" fill="#FFB8B8"/>
<path d="M273.916 211.1H283.957C285.654 211.102 287.28 211.777 288.48 212.976C289.68 214.175 290.354 215.801 290.356 217.497V217.705H273.916V211.1Z" fill="#2F2E41"/>
<path d="M256.787 193.104L249.261 193.104L251.687 212.764L256.786 212.765L256.787 193.104Z" fill="#FFB8B8"/>
<path d="M241.645 217.705V217.497C241.645 215.801 242.32 214.173 243.52 212.974C244.72 211.774 246.348 211.1 248.045 211.1L258.086 211.101L258.086 217.706L241.645 217.705Z" fill="#2F2E41"/>
<path d="M274.757 209.371L265.851 157.475L257.6 208.702L249.24 209.167L247.01 140.53L247.179 140.492C248.561 140.183 281.09 133.041 286.422 143.258L286.45 143.31L281.999 209.605L274.757 209.371Z" fill="#2F2E41"/>
<path d="M265.318 81.2414C270.96 81.2414 275.533 76.6696 275.533 71.0299C275.533 65.3902 270.96 60.8183 265.318 60.8183C259.676 60.8183 255.103 65.3902 255.103 71.0299C255.103 76.6696 259.676 81.2414 265.318 81.2414Z" fill="#FFB8B8"/>
<path d="M273.9 148.396C272.703 148.064 271.84 146.69 271.184 144.07C271.071 143.618 260.466 98.4558 269.435 90.2735L271.502 84.5326L274.331 86.4182C275.332 86.4275 285.569 86.6865 286.444 93.2462C287.301 99.6669 289.632 142.686 287.289 145.362C287.243 145.421 287.184 145.469 287.118 145.502C287.051 145.536 286.978 145.555 286.903 145.557C284.528 145.557 283.807 142.922 283.638 142.083C283.073 142.316 281.391 143.176 278.627 145.939C276.914 147.651 275.572 148.471 274.463 148.471C274.272 148.472 274.083 148.446 273.9 148.396Z" fill="#2F2E41"/>
<path d="M251.732 145.939C248.967 143.175 247.285 142.316 246.721 142.083C246.552 142.922 245.831 145.557 243.455 145.557C243.381 145.555 243.307 145.536 243.241 145.502C243.174 145.469 243.116 145.421 243.07 145.362C240.726 142.686 243.058 99.6671 243.914 93.2462C244.789 86.6865 255.026 86.4275 256.027 86.4182L258.856 84.5326L260.924 90.2735C269.892 98.4552 259.287 143.618 259.174 144.07C258.519 146.69 257.656 148.064 256.459 148.396C256.275 148.446 256.086 148.472 255.896 148.471C254.787 148.471 253.444 147.651 251.732 145.939Z" fill="#2F2E41"/>
<path d="M273.752 76.8629C275.48 75.6203 276.788 73.8812 277.504 71.8769C278.219 69.8726 278.307 67.6982 277.755 65.6428C277.204 63.5874 276.04 61.7484 274.418 60.3705C272.796 58.9926 270.793 58.141 268.674 57.9291C267.734 57.835 266.721 57.849 265.942 57.3151C265.249 56.8408 264.876 56.0182 264.239 55.471C263.835 55.1583 263.371 54.9324 262.875 54.8075C262.379 54.6826 261.863 54.6613 261.359 54.745C260.352 54.9185 259.376 55.239 258.463 55.6961C256.198 56.7056 253.79 57.9481 252.76 60.203C251.867 62.1561 252.261 64.5646 253.525 66.301C254.854 68.0195 256.791 69.1632 258.938 69.4965C261.073 69.8152 263.252 69.619 265.295 68.9242C266.643 68.5001 267.974 67.9222 269.387 67.875C270.489 67.8382 271.578 68.13 272.514 68.7134C273.45 69.2967 274.192 70.1453 274.644 71.151C275.096 72.1568 275.239 73.2743 275.054 74.3615C274.87 75.4487 274.366 76.4564 273.606 77.2563" fill="#2F2E41"/>
<path d="M218.075 137.61C218.665 137.596 219.246 137.466 219.785 137.228C220.325 136.99 220.813 136.648 221.22 136.221C221.627 135.795 221.947 135.292 222.16 134.742C222.373 134.192 222.475 133.606 222.462 133.016L228.419 122.969L223.816 118.75L217.541 128.65C216.383 128.761 215.314 129.317 214.557 130.2C213.801 131.084 213.417 132.226 213.486 133.387C213.556 134.548 214.072 135.636 214.928 136.424C215.784 137.211 216.912 137.636 218.075 137.61Z" fill="#FFB8B8"/>
<path d="M287.186 148.617C287.681 148.295 288.107 147.878 288.44 147.392C288.773 146.905 289.007 146.358 289.129 145.781C289.25 145.204 289.257 144.608 289.149 144.029C289.04 143.449 288.818 142.897 288.496 142.403L288.268 130.725L282.133 129.562L282.013 141.281C281.088 141.985 280.471 143.02 280.294 144.17C280.116 145.319 280.391 146.492 281.062 147.442C281.732 148.393 282.745 149.046 283.887 149.265C285.029 149.484 286.212 149.252 287.186 148.617Z" fill="#FFB8B8"/>
<path d="M219.887 121.454L219.818 121.344L219.886 121.233C228.821 106.89 247.577 88.9727 247.765 88.7933L247.825 88.7369L250.141 88.7132L252.645 94.9496C251.866 96.4489 230.854 125.762 228.079 127.706C227.858 127.859 227.608 127.964 227.344 128.013C227.08 128.063 226.808 128.057 226.547 127.994C226.084 127.888 225.644 127.701 225.247 127.441C222.687 125.856 220.018 121.661 219.887 121.454Z" fill="#2F2E41"/>
<path d="M280.966 137.821C280.717 137.736 280.489 137.601 280.295 137.423C280.101 137.245 279.946 137.029 279.84 136.788C278.503 133.668 284.236 94.2549 284.481 92.5787L284.527 92.2616L286.465 93.4894L286.484 93.573C286.542 93.8247 292.187 118.933 290.657 135.617L290.646 135.737L290.537 135.787C290.304 135.895 285.601 138.054 282.467 138.054C281.957 138.067 281.448 137.989 280.966 137.821Z" fill="#2F2E41"/>
<path d="M319.584 218.015H208.954C208.844 218.015 208.738 217.971 208.66 217.894C208.582 217.816 208.538 217.71 208.538 217.6C208.538 217.489 208.582 217.384 208.66 217.306C208.738 217.228 208.844 217.184 208.954 217.184H319.584C319.694 217.184 319.8 217.228 319.878 217.306C319.956 217.384 320 217.489 320 217.6C320 217.71 319.956 217.816 319.878 217.894C319.8 217.971 319.694 218.015 319.584 218.015Z" fill="#3F3D56"/>
</g>
<defs>
<clipPath id="clip0_119_355">
<rect width="320" height="218.015" fill="white"/>
</clipPath>
</defs>
</svg>
