<svg width="1000px" viewBox="0 0 765 441" fill="none" xmlns="http://www.w3.org/2000/svg">
<g clip-path="url(#clip0_38_136)">
<path d="M70.8082 344.491C70.2016 344.519 69.6011 344.36 69.0881 344.035C68.575 343.71 68.1742 343.235 67.94 342.675C67.7057 342.115 67.6494 341.496 67.7785 340.902C67.9076 340.309 68.216 339.77 68.6619 339.358C68.7366 339.061 68.7902 338.848 68.8648 338.551C68.8381 338.486 68.8112 338.422 68.7842 338.357C68.1731 336.914 67.1491 335.683 65.8409 334.819C64.5326 333.956 62.9984 333.499 61.431 333.504C59.8636 333.51 58.3329 333.979 57.0311 334.852C55.7293 335.725 54.7145 336.964 54.1141 338.412C51.7147 344.191 48.6599 349.98 47.9078 356.09C47.5765 358.791 47.7162 361.529 48.3208 364.183C42.6853 351.889 39.759 338.527 39.7402 325.003C39.739 321.609 39.9275 318.218 40.3049 314.845C40.6168 312.08 41.0495 309.335 41.603 306.609C44.6235 291.821 51.1086 277.96 60.5257 266.165C65.0836 263.678 68.7696 259.853 71.0871 255.206C71.9266 253.536 72.52 251.753 72.8487 249.913C72.3346 249.98 71.812 250.022 71.2979 250.056C71.1377 250.064 70.9691 250.073 70.8089 250.081L70.7485 250.084C70.1835 250.109 69.6231 249.971 69.1349 249.685C68.6467 249.399 68.2515 248.979 67.9969 248.474C67.7423 247.968 67.6391 247.4 67.6997 246.838C67.7604 246.276 67.9823 245.743 68.3388 245.303C68.5607 245.03 68.7829 244.757 69.0051 244.484C69.3423 244.063 69.6879 243.65 70.025 243.228C70.0639 243.188 70.1005 243.146 70.1346 243.102C70.5224 242.621 70.91 242.149 71.2978 241.669C70.59 240.57 69.6381 239.65 68.5163 238.98C64.6306 236.704 59.2698 238.28 56.4629 241.795C53.6477 245.31 53.1167 250.242 54.0944 254.633C55.0559 258.37 56.6464 261.916 58.7978 265.119C58.587 265.389 58.3679 265.651 58.1572 265.92C54.3051 270.874 50.9478 276.193 48.1333 281.802C48.8178 275.518 48.0009 269.162 45.7499 263.257C43.4685 257.753 39.1923 253.117 35.4267 248.359C30.9035 242.644 21.6283 245.138 20.8314 252.383C20.8237 252.453 20.8162 252.523 20.8088 252.593C21.3682 252.909 21.9157 253.244 22.4514 253.598C23.1243 254.048 23.6458 254.69 23.9474 255.441C24.249 256.193 24.3168 257.017 24.1417 257.807C23.9666 258.598 23.5569 259.317 22.9663 259.87C22.3757 260.424 21.6317 260.786 20.8318 260.909L20.7499 260.922C20.9491 262.938 21.3013 264.936 21.8035 266.898C23.2584 272.377 25.8295 277.496 29.3555 281.935C32.8815 286.374 37.2864 290.036 42.294 292.692C42.6227 292.861 42.9431 293.029 43.2718 293.19C40.4441 301.204 38.6704 309.551 37.9953 318.023C37.6131 323.021 37.6357 328.041 38.0628 333.036L38.0375 332.859C36.9585 327.305 33.9962 322.294 29.6507 318.672C23.1967 313.37 14.0783 311.417 7.1155 307.155C6.37552 306.68 5.51511 306.427 4.63575 306.424C3.75638 306.422 2.89475 306.672 2.15246 307.143C1.41018 307.615 0.818202 308.289 0.446361 309.086C0.0745194 309.883 -0.0616861 310.769 0.0538187 311.641C0.063157 311.703 0.0726517 311.765 0.082296 311.827C1.12024 312.25 2.13085 312.737 3.10824 313.285C3.66756 313.601 4.21507 313.936 4.75077 314.29C5.42374 314.74 5.9452 315.382 6.24682 316.133C6.54844 316.885 6.61615 317.709 6.44109 318.5C6.26602 319.29 5.85634 320.009 5.26572 320.562C4.67511 321.116 3.9311 321.478 3.13119 321.601L3.04922 321.614C2.9902 321.622 2.93965 321.631 2.88073 321.639C4.6542 325.874 7.14331 329.772 10.2391 333.162C14.0634 337.266 18.6856 340.545 23.8222 342.799C28.9589 345.053 34.5017 346.234 40.111 346.27H40.1194C41.6421 352.887 43.8483 359.328 46.7024 365.489H70.2189C70.3032 365.228 70.3791 364.958 70.455 364.697C68.2782 364.834 66.0929 364.703 63.9478 364.309C65.6926 362.168 67.4373 360.01 69.1821 357.869C69.2211 357.829 69.2576 357.787 69.2917 357.742C70.1767 356.647 71.0702 355.559 71.9552 354.463L71.9557 354.462C72.0029 351.103 71.6168 347.752 70.8082 344.491Z" fill="#F2F2F2"/>
<path d="M360.435 365.807C360.435 365.935 360.41 366.062 360.362 366.181C360.313 366.299 360.241 366.407 360.15 366.498C360.06 366.588 359.952 366.66 359.833 366.709C359.715 366.758 359.588 366.783 359.46 366.782H1.04473C0.786044 366.782 0.537955 366.68 0.35504 366.497C0.172126 366.314 0.0693665 366.066 0.0693665 365.807C0.0693665 365.548 0.172126 365.3 0.35504 365.117C0.537955 364.934 0.786044 364.831 1.04473 364.831H359.46C359.588 364.831 359.715 364.856 359.833 364.905C359.952 364.954 360.06 365.026 360.15 365.116C360.241 365.207 360.313 365.315 360.362 365.433C360.41 365.552 360.435 365.679 360.435 365.807Z" fill="#CCCCCC"/>
<path d="M169.143 237.142C169.977 237.421 170.74 237.879 171.378 238.485C172.016 239.091 172.513 239.829 172.835 240.648C173.157 241.466 173.295 242.345 173.241 243.223C173.186 244.101 172.939 244.956 172.518 245.729L181.146 256.434L175.92 263.264L163.948 247.975C162.697 247.182 161.781 245.957 161.373 244.534C160.966 243.11 161.094 241.586 161.734 240.251C162.375 238.916 163.483 237.862 164.848 237.289C166.214 236.716 167.742 236.664 169.143 237.142Z" fill="#A0616A"/>
<path d="M173.001 266.3L168.128 254.177L177.142 247.775L181.356 255.327L187.509 259.524L195.681 266.782C197.897 264.963 214.895 251.34 220.333 257.132C220.994 257.782 221.506 258.568 221.835 259.435C222.163 260.302 222.3 261.23 222.236 262.155C221.897 266.564 217.221 270.265 217.044 270.402L206.724 280.092C206.34 280.749 202.284 287.499 197.648 288.674C196.987 288.855 196.295 288.897 195.617 288.797C194.939 288.697 194.289 288.458 193.709 288.093C183.159 281.615 176.414 275.24 173.937 269.455C173.496 268.446 173.182 267.386 173.001 266.3Z" fill="#212121"/>
<path d="M167.893 424.961L159.956 425.332L154.748 394.892L166.463 394.344L167.893 424.961Z" fill="#A0616A"/>
<path d="M172.149 439.867L166.516 440.13L165.263 434.86L162.936 440.298L147.999 440.996C147.283 441.03 146.575 440.834 145.978 440.436C145.382 440.039 144.928 439.461 144.683 438.788C144.438 438.114 144.414 437.379 144.616 436.692C144.818 436.004 145.234 435.398 145.805 434.964L157.348 426.167L157.097 420.791L169.679 420.953L172.149 439.867Z" fill="#212121"/>
<path d="M85.0241 359.602L82.1324 352.201L109.304 337.524L123.029 346.152L85.0241 359.602Z" fill="#A0616A"/>
<path d="M72.2653 368.404L70.2133 363.152L74.8052 360.277L68.909 359.814L63.4667 345.884C63.2058 345.217 63.1651 344.483 63.3506 343.791C63.5361 343.098 63.9381 342.483 64.4978 342.036C65.0576 341.588 65.7458 341.331 66.462 341.302C67.1783 341.273 67.885 341.474 68.479 341.875L80.5069 349.997L85.5194 348.038L89.3924 360.011L72.2653 368.404Z" fill="#212121"/>
<path d="M241.116 337.573C241.116 337.573 237.82 358.619 222.237 360.178C206.655 361.736 192.291 354.715 192.291 354.715L148.661 341.277C148.661 341.277 102.253 354.464 94.4618 356.542C94.4618 356.542 89.0877 344.343 89.2677 343.555C90.9248 336.305 93.0835 341.21 93.0835 341.21L142.428 319.393C142.428 319.393 150.219 317.315 163.724 323.029C177.228 328.743 213.407 342.516 213.407 342.516L241.116 337.573Z" fill="#212121"/>
<path d="M240.936 336.283C240.936 336.283 243.535 361.495 228.356 365.347C213.927 369.008 194.024 365.252 194.024 365.252L170.296 362.775C170.296 362.775 169.257 393.264 169.257 408.328C164.436 408.984 159.579 409.331 154.714 409.367C153.675 409.367 153.606 408.823 153.606 408.823L151.594 356.128C151.453 353.837 151.793 351.542 152.592 349.39C153.391 347.238 154.632 345.278 156.235 343.634C157.837 341.991 159.766 340.701 161.897 339.849C164.028 338.996 166.314 338.598 168.607 338.682C169.727 338.725 170.902 338.804 172.132 338.92C186.729 340.32 204.85 337.344 204.85 337.344L240.936 336.283Z" fill="#212121"/>
<path d="M198.833 299.708C198.833 299.708 192.671 336.975 196.836 339.95C201 342.925 206.711 342.937 206.711 342.937L208.039 322.36L198.833 299.708Z" fill="#212121"/>
<path d="M209.111 253.938L200.872 261.768C197.042 265.408 194.504 270.197 193.641 275.409C192.779 280.621 193.64 285.973 196.093 290.651L200.032 298.163L209.111 253.938Z" fill="#212121"/>
<path d="M210.954 255.255L199.789 267.972C197.339 270.763 195.821 274.249 195.446 277.944C195.276 279.622 195.344 281.316 195.649 282.974L199.857 305.848L203.019 338.88C203.019 338.88 227.433 346.278 229.932 334.855C232.431 323.431 210.954 255.255 210.954 255.255Z" fill="#0095B7"/>
<path d="M204.588 328.072L201.019 319.861L197.99 298.456C197.825 297.211 201.215 276.832 206.122 254.967L212.088 246.616L215.528 243.462L225.329 249.887C228.864 251.758 236.595 276.17 231.837 293.445C230.2 299.387 233.061 306.786 233.502 312.246L240.295 328.938L241.903 338.592L241.658 338.685C241.413 338.779 237.482 339.31 221.433 341.985C208.135 344.201 215.417 333.297 204.588 328.072Z" fill="#212121"/>
<path d="M173.173 319.102C173.661 318.37 174.303 317.754 175.055 317.297C175.807 316.84 176.649 316.554 177.524 316.458C178.398 316.362 179.283 316.459 180.115 316.742C180.948 317.025 181.709 317.487 182.344 318.096L194.935 312.575L200.156 319.409L182.265 326.956C181.172 327.955 179.75 328.518 178.269 328.538C176.789 328.559 175.352 328.035 174.231 327.067C173.11 326.099 172.384 324.754 172.189 323.286C171.994 321.818 172.344 320.329 173.173 319.102Z" fill="#A0616A"/>
<path d="M202.321 323.022L189.345 324.547L185.531 314.169L193.922 312.082L199.585 307.245L208.732 301.26C207.556 298.645 198.866 278.668 205.88 274.939C206.681 274.471 207.574 274.183 208.497 274.093C209.42 274.003 210.351 274.115 211.227 274.419C215.392 275.902 217.738 281.385 217.824 281.591L224.47 294.091C225.002 294.634 230.453 300.318 230.371 305.1C230.373 305.785 230.232 306.464 229.958 307.092C229.684 307.72 229.282 308.285 228.779 308.749C219.762 317.233 211.843 322.071 205.61 322.945C204.521 323.107 203.416 323.132 202.321 323.022Z" fill="#212121"/>
<path d="M210.752 242.411C219.328 241.383 225.429 233.442 224.378 224.674C223.328 215.906 215.524 209.631 206.948 210.659C198.371 211.687 192.27 219.628 193.321 228.396C194.371 237.164 202.175 243.439 210.752 242.411Z" fill="#A0616A"/>
<path d="M249.578 214.671C246.57 211.908 244.826 207.975 242.297 204.732C239.768 201.489 235.721 198.8 231.939 200.079C229.332 200.96 227.548 203.567 226.817 206.324C226.086 209.08 226.238 212.005 226.395 214.869C225.76 209.02 221.233 203.819 215.709 202.59C212.91 202.04 210.009 202.393 207.424 203.598C204.838 204.802 202.702 206.796 201.322 209.292C199.707 208.119 197.717 207.579 195.731 207.775C193.744 207.971 191.899 208.889 190.544 210.355C189.251 211.948 188.535 213.933 188.515 215.986C188.494 218.038 189.169 220.037 190.43 221.657C191.728 223.178 193.537 224.172 195.516 224.454C197.496 224.736 199.51 224.285 201.181 223.187L202.548 224.172C202.374 225.42 202.644 226.69 203.312 227.76C203.98 228.829 205.002 229.63 206.2 230.022C208.121 230.542 210.692 230.109 211.607 231.95C212.247 233.236 211.524 234.777 210.695 235.923C209.867 237.069 208.864 238.27 208.92 239.713C209.006 241.888 211.414 243.131 213.492 243.343C216.034 243.542 218.576 242.978 220.795 241.723C223.014 240.469 224.808 238.58 225.948 236.3C225.992 236.21 226.041 236.12 226.095 236.029C227.431 233.821 228.304 231.364 228.659 228.808C229.014 226.251 228.844 223.649 228.159 221.161C227.882 220.184 227.952 219.424 228.611 219.106C231.455 217.732 240.024 218.875 242.772 220.507C245.519 222.139 247.841 224.456 250.51 226.223C253.18 227.991 256.459 229.209 259.468 228.28C260.671 227.835 261.773 227.153 262.708 226.275C263.643 225.397 264.393 224.341 264.913 223.168C265.975 220.775 266.679 218.239 267.001 215.641C264.418 217.48 261.286 218.385 258.12 218.209C254.954 218.033 251.942 216.785 249.578 214.671Z" fill="#212121"/>
<path d="M251.944 318.736L251.936 318.725L251.944 318.747V318.736Z" fill="#212121"/>
<path d="M150.206 244.06C143.476 245.092 136.592 244.105 130.423 241.224C124.254 238.343 119.077 233.697 115.548 227.874C112.02 222.051 110.297 215.313 110.597 208.51C110.898 201.708 113.209 195.148 117.238 189.659C121.267 184.17 126.833 179.999 133.232 177.674C139.631 175.348 146.576 174.973 153.188 176.595C159.801 178.217 165.784 181.764 170.381 186.786C174.978 191.809 177.983 198.082 179.015 204.812C179.7 209.281 179.498 213.841 178.421 218.232C177.344 222.623 175.413 226.758 172.738 230.403C170.063 234.047 166.696 237.129 162.83 239.472C158.964 241.816 154.675 243.374 150.206 244.06ZM140.018 177.622C133.609 178.605 127.635 181.467 122.852 185.845C118.069 190.224 114.691 195.922 113.147 202.22C111.602 208.518 111.96 215.133 114.174 221.228C116.388 227.323 120.36 232.624 125.587 236.461C130.815 240.299 137.062 242.5 143.54 242.786C150.018 243.073 156.435 241.432 161.981 238.07C167.526 234.709 171.95 229.779 174.694 223.904C177.437 218.028 178.377 211.471 177.394 205.061C176.742 200.805 175.257 196.719 173.026 193.037C170.794 189.355 167.859 186.148 164.389 183.6C160.918 181.052 156.979 179.213 152.798 178.187C148.617 177.162 144.274 176.97 140.018 177.622Z" fill="#212121"/>
<path d="M271.16 113.558C264.43 114.59 257.546 113.604 251.377 110.723C245.208 107.842 240.031 103.196 236.502 97.373C232.974 91.55 231.251 84.8112 231.551 78.0089C231.852 71.2066 234.163 64.6462 238.192 59.1573C242.221 53.6684 247.787 49.4976 254.186 47.1723C260.585 44.847 267.53 44.4716 274.142 46.0937C280.755 47.7157 286.738 51.2622 291.335 56.2848C295.932 61.3075 298.936 67.5806 299.969 74.3108C300.654 78.7796 300.452 83.3396 299.375 87.7304C298.298 92.1213 296.367 96.257 293.692 99.9014C291.017 103.546 287.65 106.628 283.784 108.971C279.918 111.314 275.629 112.873 271.16 113.558ZM260.972 47.1208C254.563 48.1038 248.589 50.9654 243.806 55.3438C239.023 59.7222 235.645 65.4208 234.101 71.7188C232.556 78.0169 232.914 84.6316 235.128 90.7265C237.342 96.8214 241.314 102.123 246.541 105.96C251.768 109.797 258.016 111.998 264.494 112.285C270.972 112.571 277.389 110.93 282.935 107.569C288.48 104.208 292.904 99.2779 295.648 93.4022C298.391 87.5265 299.331 80.9692 298.348 74.5593C297.03 65.9641 292.352 58.2445 285.343 53.0987C278.333 47.953 269.567 45.8027 260.972 47.1208Z" fill="#212121"/>
<path d="M410.657 191.553C403.927 192.585 397.043 191.598 390.873 188.717C384.704 185.836 379.528 181.19 375.999 175.367C372.47 169.544 370.747 162.805 371.048 156.003C371.349 149.201 373.66 142.64 377.689 137.152C381.718 131.663 387.284 127.492 393.683 125.167C400.082 122.841 407.027 122.466 413.639 124.088C420.252 125.71 426.235 129.256 430.832 134.279C435.429 139.302 438.433 145.575 439.465 152.305C440.151 156.774 439.949 161.334 438.872 165.725C437.795 170.116 435.864 174.251 433.189 177.896C430.514 181.54 427.147 184.622 423.281 186.965C419.415 189.309 415.125 190.867 410.657 191.553ZM400.469 125.115C394.06 126.098 388.086 128.96 383.303 133.338C378.52 137.717 375.142 143.415 373.598 149.713C372.053 156.011 372.41 162.626 374.625 168.721C376.839 174.816 380.811 180.117 386.038 183.954C391.265 187.792 397.513 189.993 403.991 190.279C410.469 190.565 416.886 188.924 422.432 185.563C427.977 182.202 432.401 177.272 435.145 171.396C437.888 165.521 438.828 158.963 437.845 152.554C436.527 143.958 431.849 136.239 424.84 131.093C417.83 125.947 409.064 123.797 400.469 125.115Z" fill="#212121"/>
<path d="M576.027 68.4606C569.297 69.4927 562.413 68.5059 556.244 65.6249C550.075 62.744 544.898 58.0982 541.37 52.2752C537.841 46.4522 536.118 39.7135 536.418 32.9111C536.719 26.1088 539.03 19.5484 543.059 14.0595C547.088 8.57069 552.654 4.39989 559.053 2.07458C565.452 -0.250725 572.397 -0.626106 579.01 0.995907C585.622 2.61792 591.605 6.16448 596.202 11.1871C600.799 16.2097 603.804 22.4828 604.836 29.2131C605.521 33.6819 605.319 38.2418 604.242 42.6327C603.166 47.0235 601.234 51.1592 598.559 54.8037C595.884 58.4482 592.518 61.53 588.651 63.8733C584.785 66.2165 580.496 67.7753 576.027 68.4606ZM565.839 2.02308C559.43 3.00606 553.456 5.86769 548.673 10.2461C543.89 14.6245 540.513 20.3231 538.968 26.6211C537.423 32.9192 537.781 39.5339 539.995 45.6287C542.21 51.7236 546.181 57.0249 551.409 60.8623C556.636 64.6996 562.883 66.9007 569.361 67.1871C575.839 67.4735 582.256 65.8324 587.802 62.4713C593.347 59.1102 597.771 54.1801 600.515 48.3044C603.259 42.4288 604.198 35.8714 603.215 29.4616C601.897 20.8663 597.219 13.1467 590.21 8.00098C583.2 2.85526 574.434 0.704948 565.839 2.02308Z" fill="#212121"/>
<path d="M732.784 128.176C726.054 129.208 719.169 128.221 713 125.34C706.831 122.459 701.655 117.813 698.126 111.99C694.597 106.167 692.874 99.4285 693.175 92.6261C693.475 85.8238 695.786 79.2634 699.815 73.7746C703.844 68.2857 709.41 64.1149 715.809 61.7896C722.208 59.4643 729.153 59.0889 735.766 60.7109C742.378 62.333 748.361 65.8795 752.958 70.9022C757.555 75.9248 760.56 82.1979 761.592 88.9282C762.976 97.9532 760.718 107.158 755.315 114.519C749.913 121.879 741.808 126.792 732.784 128.176ZM722.596 61.7381C716.186 62.7211 710.212 65.5827 705.429 69.9611C700.646 74.3395 697.269 80.0381 695.724 86.3361C694.179 92.6342 694.537 99.2489 696.751 105.344C698.966 111.439 702.938 116.74 708.165 120.577C713.392 124.415 719.639 126.616 726.117 126.902C732.595 127.188 739.013 125.547 744.558 122.186C750.103 118.825 754.528 113.895 757.271 108.019C760.015 102.144 760.955 95.5864 759.972 89.1766C758.654 80.5813 753.975 72.8617 746.966 67.716C739.957 62.5703 731.19 60.42 722.596 61.7381Z" fill="#212121"/>
<path d="M283.957 67.2281L287.883 65.7966C287.883 65.7966 285.064 70.1265 284.454 70.4689C284.517 71.2873 284.642 72.0997 284.826 72.8996C282.168 107.473 251.227 97.1257 251.227 97.1257C261.715 95.766 261.948 91.3352 261.948 91.3352C255.735 91.3758 253.911 87.5921 253.911 87.5921C254.5 87.7961 255.144 87.7756 255.719 87.5344C256.294 87.2931 256.76 86.8483 257.027 86.2849C250.204 85.5899 250.114 79.0525 250.114 79.0525C251.413 79.7177 252.861 80.0381 254.32 79.9831C253.454 79.2037 246.166 72.7751 249.309 68.3955C249.309 68.3955 255.088 75.8018 267.109 74.7045L267.895 74.4183C267.667 73.8558 267.521 73.2641 267.459 72.6606C267.113 70.4044 267.678 68.1031 269.028 66.263C270.379 64.4229 272.405 63.1948 274.661 62.8487C280.332 61.979 282.045 65.0335 282.045 65.0335L285.723 61.9816C285.642 61.994 285.858 66.1072 283.957 67.2281Z" fill="#212121"/>
<path d="M412.125 139.268C414.393 138.927 416.703 139.498 418.552 140.855C420.4 142.212 421.637 144.245 421.991 146.511L424.614 163.618C424.955 165.886 424.385 168.197 423.028 170.045C421.671 171.894 419.638 173.131 417.372 173.485L400.266 176.109C397.998 176.449 395.688 175.879 393.839 174.522C391.991 173.165 390.754 171.132 390.4 168.866L387.777 151.758C387.436 149.491 388.006 147.18 389.363 145.331C390.72 143.483 392.753 142.246 395.019 141.892L412.125 139.268ZM411.6 135.847L394.494 138.47C391.322 138.966 388.476 140.697 386.576 143.285C384.676 145.873 383.878 149.108 384.356 152.283L386.979 169.39C387.475 172.562 389.206 175.409 391.793 177.309C394.381 179.209 397.616 180.007 400.79 179.53L417.897 176.906C421.068 176.41 423.915 174.679 425.815 172.091C427.714 169.503 428.513 166.269 428.035 163.094L425.412 145.986C424.916 142.814 423.185 139.968 420.597 138.068C418.009 136.168 414.775 135.37 411.6 135.847Z" fill="#212121"/>
<path d="M416.003 147.429C415.324 147.532 414.632 147.361 414.08 146.953C413.527 146.546 413.159 145.936 413.056 145.258C412.953 144.579 413.123 143.887 413.53 143.334C413.936 142.781 414.546 142.412 415.224 142.308C415.903 142.204 416.595 142.374 417.148 142.78C417.702 143.186 418.071 143.795 418.176 144.473C418.281 145.152 418.112 145.844 417.706 146.398C417.301 146.952 416.692 147.322 416.014 147.428L416.003 147.429Z" fill="#212121"/>
<path d="M405.146 150.845C406.499 150.637 407.884 150.836 409.125 151.415C410.365 151.995 411.406 152.929 412.116 154.1C412.826 155.271 413.172 156.626 413.112 157.994C413.051 159.362 412.586 160.682 411.776 161.785C410.966 162.889 409.847 163.728 408.56 164.196C407.273 164.663 405.876 164.739 404.546 164.413C403.216 164.086 402.013 163.373 401.089 162.363C400.164 161.353 399.56 160.091 399.352 158.738C399.215 157.839 399.255 156.922 399.472 156.039C399.688 155.156 400.077 154.324 400.615 153.591C401.153 152.858 401.83 152.239 402.607 151.767C403.385 151.296 404.247 150.983 405.146 150.845ZM404.621 147.424C402.591 147.735 400.699 148.641 399.184 150.028C397.669 151.415 396.599 153.22 396.11 155.215C395.621 157.209 395.734 159.304 396.436 161.235C397.137 163.165 398.395 164.844 400.051 166.06C401.706 167.275 403.685 167.972 405.737 168.063C407.789 168.154 409.821 167.634 411.577 166.569C413.334 165.505 414.735 163.943 415.604 162.082C416.473 160.221 416.771 158.144 416.459 156.114C416.042 153.392 414.56 150.947 412.34 149.317C410.12 147.687 407.344 147.006 404.621 147.424Z" fill="#212121"/>
<path d="M725.377 71.9251C720.254 72.7113 715.557 75.2367 712.075 79.0773C708.594 82.9179 706.54 87.8396 706.259 93.0158C705.977 98.192 707.486 103.307 710.53 107.503C713.575 111.698 717.971 114.718 722.979 116.055C722.622 114.353 722.488 112.611 722.582 110.875C722.732 108.996 723.586 98.2714 723.586 98.2714C722.928 97.2351 722.499 96.0703 722.328 94.8549C721.82 91.5476 723.354 88.7837 725.745 88.4171C727.777 88.1054 728.987 89.4799 729.266 91.3029C729.58 93.3451 728.742 96.5935 728.508 99.5251C728.456 100.07 728.532 100.619 728.731 101.128C728.929 101.638 729.245 102.094 729.652 102.459C730.06 102.824 730.547 103.089 731.075 103.231C731.603 103.373 732.158 103.389 732.693 103.278C736.917 102.63 738.933 96.7639 737.946 90.3286C737.196 85.4373 733.338 82.2869 727.352 83.2051C720.588 84.2424 717.139 89.9408 718.004 95.5792C718.181 97.1794 718.945 98.6569 720.148 99.7264C720.349 99.8461 720.507 100.027 720.598 100.242C720.69 100.457 720.711 100.695 720.658 100.923C720.611 101.348 720.523 102.371 720.475 102.786C720.474 102.91 720.444 103.031 720.387 103.141C720.33 103.25 720.248 103.344 720.147 103.416C720.046 103.487 719.93 103.533 719.808 103.55C719.686 103.568 719.561 103.556 719.445 103.515C716.131 102.718 714.155 99.5343 713.565 95.689C712.593 89.3533 716.777 80.932 727.376 79.3065C735.892 78.0003 742.446 83.3066 743.46 89.9213C744.803 98.6778 740.934 105.96 733.762 107.06C731.352 107.429 728.89 106.471 727.887 105.116C727.887 105.116 727.381 110.455 727.255 111.494C726.999 113.266 726.491 114.992 725.746 116.619C728.954 117.055 732.219 116.796 735.318 115.859C738.417 114.923 741.278 113.331 743.707 111.191C746.137 109.051 748.078 106.414 749.399 103.458C750.72 100.502 751.39 97.2966 751.363 94.059C751.336 90.8215 750.614 87.6276 749.244 84.6939C747.874 81.7602 745.89 79.1554 743.425 77.0561C740.961 74.9568 738.074 73.4121 734.96 72.5268C731.845 71.6415 728.578 71.4363 725.377 71.9251Z" fill="#212121"/>
<path d="M588.504 18.0073L558.451 13.5786C557.678 13.4262 556.877 13.5869 556.223 14.0254C555.569 14.4639 555.115 15.1443 554.963 15.9169L554.961 15.9299L550.522 46.0521C550.424 46.8655 550.641 47.6859 551.128 48.3442C551.616 49.0026 552.338 49.449 553.145 49.5915L583.189 54.0189C583.984 54.1044 584.781 53.8731 585.407 53.3752C586.033 52.8772 586.437 52.1527 586.533 51.3586L590.971 21.2363C591.091 20.506 590.916 19.7579 590.485 19.1565C590.053 18.5551 589.401 18.1497 588.671 18.0295C588.615 18.0204 588.56 18.013 588.504 18.0073ZM562.113 44.7886L556.954 44.0284L559.318 27.9874L564.477 28.7476L562.113 44.7886ZM562.435 25.9549L562.398 25.9494C561.657 25.8353 560.991 25.4318 560.546 24.8275C560.101 24.2232 559.914 23.4672 560.026 22.7253C560.138 21.9834 560.539 21.316 561.142 20.8693C561.745 20.4227 562.5 20.2333 563.242 20.3425C563.984 20.4518 564.653 20.8509 565.102 21.4523C565.55 22.0536 565.742 22.8084 565.635 23.551C565.529 24.2936 565.132 24.9637 564.532 25.4142C563.932 25.8648 563.178 26.0592 562.435 25.9549ZM580.967 47.567L575.808 46.8068L577.101 38.0359C577.41 35.9345 576.871 34.3883 575.005 34.1132C574.42 34.0318 573.825 34.1338 573.301 34.405C572.777 34.6763 572.35 35.1035 572.079 35.6277C571.881 36.0151 571.757 36.4358 571.714 36.8683L570.367 46.005L565.209 45.2448L567.572 29.2038L572.731 29.964L572.402 32.1963C572.991 31.453 573.77 30.8822 574.657 30.544C575.543 30.2057 576.504 30.1125 577.439 30.2741C580.825 30.7731 583.058 33.383 582.349 38.1957L580.967 47.567Z" fill="#212121"/>
<path fill-rule="evenodd" clip-rule="evenodd" d="M167.252 206.753C166.6 202.502 164.743 198.527 161.901 195.299C159.06 192.071 155.353 189.724 151.22 188.537C147.086 187.35 142.7 187.372 138.578 188.601C134.457 189.83 130.775 192.215 127.966 195.472C125.158 198.729 123.342 202.722 122.732 206.98C122.123 211.237 122.746 215.58 124.528 219.494C126.31 223.408 129.176 226.73 132.787 229.065C136.398 231.401 140.602 232.653 144.903 232.674L142.519 217.13L136.87 217.996L135.884 211.564L141.533 210.697L140.781 205.795C139.926 200.221 142.776 196.63 147.856 195.851C149.528 195.618 151.215 195.509 152.903 195.522L153.742 200.997L150.936 201.428C148.174 201.851 147.573 203.698 147.843 205.459L148.483 209.632L154.652 208.686L154.653 215.27L149.47 216.065L151.853 231.61C156.959 229.978 161.315 226.579 164.138 222.022C166.961 217.466 168.065 212.051 167.252 206.753Z" fill="#212121"/>
<path d="M582.332 350.374L590.563 352.535L602.817 321.813L590.669 318.622L582.332 350.374Z" fill="#FFB6B6"/>
<path d="M579.787 358.885L605.099 365.532L605.183 365.212C605.869 362.599 605.489 359.821 604.127 357.488C602.764 355.155 600.531 353.458 597.919 352.772L594.216 348.05L584.668 349.292L582.458 348.712L579.787 358.885Z" fill="#212121"/>
<path d="M624.528 356.532H633.038L637.087 323.704L624.527 323.705L624.528 356.532Z" fill="#FFB6B6"/>
<path d="M624.228 365.411L650.398 365.41V365.079C650.398 362.377 649.325 359.786 647.415 357.876C645.504 355.966 642.914 354.892 640.212 354.892L635.431 351.265L626.512 354.893L624.228 354.893L624.228 365.411Z" fill="#212121"/>
<path d="M603.243 199.438C601.187 202.008 602.215 210.746 602.215 210.746C602.215 210.746 598.617 239.015 600.159 241.584C601.701 244.154 599.131 246.21 597.589 249.808C596.048 253.406 594.506 262.144 594.506 262.144C585.769 269.339 586.283 302.234 586.283 302.234L583.199 331.531C584.227 334.615 598.617 335.129 600.673 334.615C602.729 334.101 622.773 261.63 622.773 261.63C622.773 261.63 621.745 331.531 621.745 334.615C621.745 337.698 635.621 336.156 638.705 336.156C641.788 336.156 661.318 210.232 661.318 210.232V203.036L658.748 199.438C658.748 199.438 605.298 196.868 603.243 199.438Z" fill="#212121"/>
<path d="M625.856 105.38C634.655 105.38 641.788 98.2465 641.788 89.4468C641.788 80.6471 634.655 73.5135 625.856 73.5135C617.057 73.5135 609.924 80.6471 609.924 89.4468C609.924 98.2465 617.057 105.38 625.856 105.38Z" fill="#FFB6B6"/>
<path d="M604.451 210.805L604.364 210.683C599.723 204.185 606.703 188.571 607.756 186.307C606.506 185.901 605.435 185.075 604.726 183.968C604.017 182.861 603.713 181.543 603.866 180.238L604.32 176.38L604.793 172.595L601.404 169.206L601.395 169.122L599.445 152.055L596.609 140.72C595.54 136.434 595.631 131.942 596.873 127.704C598.114 123.465 600.461 119.634 603.672 116.602L610.227 115.561L618.193 107.885H631.039L635.443 112.094C644.103 119.193 646.159 116.109 655.924 129.472L648.932 147.894L652.84 175.064L652.843 179.981L654.878 182.244C655.611 183.059 656.144 184.033 656.434 185.091C656.724 186.148 656.763 187.258 656.548 188.333L656.28 189.672C657.315 190.115 658.228 190.8 658.943 191.669C659.658 192.538 660.154 193.566 660.39 194.667L661.105 198.003C661.717 198.81 665.754 204.194 665.754 205.665C665.754 205.886 665.591 206.1 665.241 206.337C662.49 208.2 647.283 211.998 640.553 209.305C633.384 206.438 604.886 210.739 604.599 210.782L604.451 210.805Z" fill="#0095B7"/>
<path d="M596.357 146.172L609.604 143.578C614.503 150.895 617.134 170.902 617.134 170.902L631.78 201.279C632.68 201.826 633.419 202.602 633.922 203.527C634.425 204.453 634.674 205.495 634.643 206.548C634.612 207.601 634.302 208.627 633.746 209.522C633.189 210.416 632.406 211.147 631.475 211.64C630.544 212.133 629.499 212.371 628.447 212.329C627.394 212.286 626.372 211.966 625.483 211.4C624.595 210.834 623.872 210.043 623.389 209.107C622.906 208.171 622.68 207.123 622.733 206.071L603.631 170.08L596.357 146.172Z" fill="#FFB6B6"/>
<path d="M596.283 149.315L595.906 129.624L602.14 121.284C603.37 119.651 605.032 118.394 606.938 117.656C608.845 116.918 610.92 116.728 612.928 117.108C615.648 117.641 618.063 119.186 619.687 121.432C621.31 123.678 622.021 126.456 621.674 129.206C620.616 137.544 618.214 147.978 612.779 150.338L612.723 150.362L618.356 170.064L597.467 172.982L596.283 149.315Z" fill="#0095B7"/>
<path d="M681.756 132.669C681.756 132.669 661.989 128.617 653.474 130.856L651.596 144.224L675.707 146.365L716.862 138.883C717.84 139.27 718.903 139.391 719.943 139.234C720.983 139.077 721.962 138.648 722.783 137.99C723.603 137.332 724.234 136.468 724.613 135.487C724.992 134.506 725.104 133.442 724.939 132.404C724.774 131.365 724.337 130.389 723.672 129.574C723.007 128.759 722.139 128.134 721.155 127.763C720.171 127.392 719.106 127.288 718.069 127.462C717.032 127.636 716.059 128.081 715.249 128.752L681.756 132.669Z" fill="#FFB6B6"/>
<path d="M657.822 147.355L638.247 145.196L630.778 137.941C629.317 136.511 628.285 134.701 627.798 132.716C627.312 130.73 627.39 128.648 628.025 126.705C628.903 124.076 630.746 121.879 633.182 120.558C635.617 119.236 638.464 118.889 641.146 119.587C649.278 121.708 657.415 119.729 659.057 125.423L661.988 124.464L681.235 128.131L681.443 149.224L657.822 147.355Z" fill="#0095B7"/>
<path d="M607.785 78.9775C609.574 76.2096 612.931 74.3649 616.185 74.8833C616.488 72.8061 617.355 70.8519 618.692 69.2333C620.028 67.6148 621.783 66.394 623.766 65.7039C625.748 65.0138 627.882 64.8808 629.934 65.3194C631.987 65.7581 633.88 66.7515 635.407 68.1915C635.909 67.8379 636.494 67.6199 637.106 67.5587C637.717 67.4975 638.333 67.5952 638.896 67.8423C640.016 68.3517 640.99 69.1339 641.73 70.1174C643.597 72.4465 644.799 75.2384 645.205 78.196C645.612 81.1536 645.209 84.1661 644.04 86.9129C644.438 85.4668 642.989 84.1064 641.524 83.7819C640.06 83.4574 638.525 83.7644 637.04 83.5531C635.137 83.2823 633.426 82.1783 631.52 81.9299C629.904 81.8247 628.283 82.0331 626.746 82.5435C625.209 83.0538 623.59 83.2712 621.973 83.1845C620.369 82.994 618.302 89.0736 618.33 93.3557C618.335 94.1672 618.168 95.2091 617.375 95.3813C616.399 95.5933 615.833 94.2454 614.903 93.8781C614.475 93.7554 614.016 93.8036 613.622 94.0129C613.229 94.2221 612.932 94.576 612.794 94.9998C612.677 95.4307 612.664 95.8834 612.757 96.3201C612.851 96.7568 613.047 97.165 613.329 97.5106C613.901 98.1958 614.579 98.7842 615.338 99.2531L614.955 99.5715C614.592 99.9555 614.106 100.201 613.581 100.266C613.057 100.332 612.526 100.212 612.08 99.9288C611.202 99.3343 610.491 98.525 610.015 97.5779C608.221 94.8034 606.939 91.7299 606.228 88.5031C605.528 85.2452 606.084 81.843 607.785 78.9775Z" fill="#212121"/>
<path d="M741.45 352.45L735.131 342.294L733.869 348.098C733.648 349.114 733.426 350.147 733.221 351.171C731.426 349.639 729.517 348.221 727.648 346.86C721.911 342.696 716.176 338.526 710.444 334.352L712.239 344.762C713.345 351.171 714.501 357.713 717.239 363.573C717.542 364.237 717.87 364.893 718.222 365.532H744.893C745.108 364.939 745.256 364.323 745.336 363.696C745.342 363.656 745.345 363.614 745.344 363.573C745.762 359.598 743.565 355.852 741.45 352.45Z" fill="#F0F0F0"/>
<path d="M764.024 366.53L538.012 366.782C537.883 366.783 537.756 366.758 537.637 366.709C537.519 366.66 537.411 366.588 537.32 366.497C537.229 366.407 537.157 366.299 537.108 366.181C537.058 366.062 537.033 365.935 537.033 365.806C537.033 365.678 537.058 365.551 537.108 365.432C537.157 365.314 537.229 365.206 537.32 365.115C537.411 365.025 537.519 364.953 537.637 364.904C537.756 364.855 537.883 364.83 538.012 364.83L764.024 364.578C764.283 364.578 764.531 364.681 764.714 364.864C764.897 365.047 765 365.296 765 365.554C765 365.813 764.897 366.062 764.714 366.245C764.531 366.428 764.283 366.53 764.024 366.53Z" fill="#CACACA"/>
</g>
<defs>
<clipPath id="clip0_38_136">
<rect width="765" height="441" fill="white"/>
</clipPath>
</defs>
</svg>
