<svg width="520" height="509" viewBox="0 0 520 509" fill="none" xmlns="http://www.w3.org/2000/svg">
<g clip-path="url(#clip0_80_322)">
<path d="M160.724 475.74L161.28 463.221C167.084 460.119 173.558 458.48 180.139 458.447C171.081 465.852 172.213 480.127 166.073 490.085C164.134 493.176 161.524 495.791 158.437 497.736C155.35 499.682 151.864 500.908 148.239 501.323L140.66 505.964C139.62 500.166 139.849 494.211 141.332 488.51C142.815 482.809 145.516 477.498 149.249 472.941C151.369 470.406 153.799 468.148 156.483 466.22C158.299 471.006 160.724 475.74 160.724 475.74Z" fill="#F2F2F2"/>
<path d="M474.021 293.336C494.456 277.772 504.216 251.617 498.106 226.668C497.954 226.048 497.794 225.429 497.625 224.812C493.574 210.002 483.552 195.927 468.946 191.194C456.682 187.221 443.295 190.277 430.5 188.696C405.383 185.595 385.91 165.272 372.209 143.994C358.507 122.716 347.977 98.8988 329.771 81.3201C299.761 52.3447 250.807 46.1062 213.599 64.9671C176.39 83.828 152.689 125.672 153.7 167.376C154.711 209.079 179.468 248.95 215.422 270.104C228.63 277.876 243.906 283.381 259.109 281.454C272.301 279.783 284.287 272.695 297.416 270.591C318.059 267.282 338.57 276.615 356.424 287.491C374.278 298.367 391.524 311.258 411.812 316.3C431.513 321.196 455.92 307.124 474.021 293.336Z" fill="#F2F2F2"/>
<path d="M312.332 107.093H108.756C104.511 107.098 100.44 108.787 97.438 111.789C94.4359 114.791 92.7471 118.862 92.7422 123.107V224.427C92.7471 228.673 94.4359 232.743 97.438 235.745C100.44 238.747 104.511 240.436 108.756 240.441H312.332C316.578 240.437 320.65 238.749 323.652 235.747C326.654 232.744 328.343 228.673 328.346 224.427V123.107C328.343 118.861 326.654 114.79 323.652 111.788C320.65 108.785 316.578 107.097 312.332 107.093Z" fill="white"/>
<path d="M312.333 241.23H108.76C104.305 241.225 100.034 239.453 96.8846 236.304C93.7348 233.154 91.963 228.883 91.958 224.429V123.106C91.963 118.651 93.7348 114.381 96.8846 111.231C100.034 108.081 104.305 106.309 108.76 106.304H312.333C316.787 106.309 321.058 108.081 324.208 111.231C327.358 114.381 329.13 118.651 329.135 123.106V224.429C329.13 228.883 327.358 233.154 324.208 236.304C321.058 239.453 316.787 241.225 312.333 241.23ZM108.76 107.879C104.723 107.884 100.852 109.489 97.9976 112.344C95.143 115.199 93.5373 119.069 93.5326 123.106V224.429C93.5373 228.466 95.143 232.336 97.9976 235.191C100.852 238.045 104.723 239.651 108.76 239.656H312.333C316.37 239.651 320.24 238.045 323.095 235.191C325.95 232.336 327.555 228.466 327.56 224.429V123.106C327.555 119.069 325.95 115.199 323.095 112.344C320.24 109.489 316.37 107.884 312.333 107.879H108.76Z" fill="#CCCCCC"/>
<path d="M321.697 269.24H126.61C124.923 269.24 123.306 268.57 122.114 267.378C120.921 266.186 120.251 264.568 120.251 262.882C120.251 261.196 120.921 259.579 122.114 258.386C123.306 257.194 124.923 256.524 126.61 256.524H321.697C323.384 256.524 325.001 257.194 326.193 258.386C327.386 259.579 328.056 261.196 328.056 262.882C328.056 264.568 327.386 266.186 326.193 267.378C325.001 268.57 323.384 269.24 321.697 269.24Z" fill="#E6E6E6"/>
<path d="M189.151 208.611C187.995 208.608 186.859 208.312 185.849 207.751C184.768 207.168 183.866 206.301 183.241 205.244C182.616 204.187 182.29 202.98 182.3 201.752V145.205C182.3 143.979 182.629 142.775 183.253 141.72C183.878 140.664 184.774 139.796 185.848 139.206C186.923 138.615 188.136 138.324 189.362 138.363C190.587 138.402 191.78 138.769 192.815 139.427L246.455 167.7C247.428 168.318 248.229 169.172 248.784 170.182C249.339 171.192 249.63 172.326 249.63 173.478C249.63 174.631 249.339 175.764 248.784 176.774C248.229 177.784 247.428 178.638 246.455 179.256L192.815 207.529C191.722 208.232 190.45 208.607 189.151 208.611Z" fill="#F2F2F2"/>
<path d="M504.159 180.419H419.088C417.313 180.417 415.612 179.711 414.358 178.456C413.103 177.202 412.397 175.501 412.396 173.726V131.385C412.397 129.61 413.103 127.909 414.358 126.655C415.612 125.4 417.313 124.694 419.088 124.693H504.159C505.933 124.694 507.634 125.4 508.889 126.655C510.143 127.909 510.849 129.61 510.851 131.385V173.726C510.849 175.501 510.143 177.202 508.889 178.456C507.634 179.711 505.933 180.417 504.159 180.419Z" fill="white"/>
<path d="M504.159 181.206H419.088C417.105 181.204 415.204 180.415 413.802 179.013C412.399 177.61 411.611 175.709 411.608 173.726V131.385C411.611 129.402 412.399 127.501 413.802 126.098C415.204 124.696 417.105 123.907 419.088 123.905H504.159C506.142 123.907 508.043 124.696 509.445 126.098C510.848 127.501 511.636 129.402 511.639 131.385V173.726C511.636 175.709 510.848 177.61 509.445 179.013C508.043 180.415 506.142 181.204 504.159 181.206ZM419.088 125.48C417.522 125.482 416.021 126.104 414.914 127.211C413.807 128.318 413.185 129.819 413.183 131.385V173.726C413.185 175.292 413.807 176.793 414.914 177.9C416.021 179.007 417.522 179.63 419.088 179.631H504.159C505.725 179.63 507.226 179.007 508.333 177.9C509.44 176.793 510.062 175.292 510.064 173.726V131.385C510.062 129.819 509.44 128.318 508.333 127.211C507.226 126.104 505.725 125.482 504.159 125.48H419.088Z" fill="#CCCCCC"/>
<path d="M490.183 201.137H432.875C431.19 201.136 429.575 200.465 428.384 199.273C427.193 198.081 426.524 196.464 426.524 194.779C426.524 193.094 427.193 191.478 428.384 190.286C429.575 189.094 431.19 188.423 432.875 188.421H490.183C491.869 188.421 493.487 189.091 494.679 190.284C495.871 191.476 496.541 193.093 496.541 194.779C496.541 196.466 495.871 198.083 494.679 199.275C493.487 200.468 491.869 201.137 490.183 201.137Z" fill="#E6E6E6"/>
<path d="M452.476 167.624C451.993 167.622 451.518 167.499 451.096 167.264C450.644 167.021 450.267 166.659 450.006 166.217C449.745 165.775 449.609 165.271 449.613 164.757V141.127C449.613 140.615 449.75 140.112 450.011 139.671C450.272 139.23 450.646 138.867 451.096 138.62C451.545 138.373 452.052 138.252 452.564 138.268C453.076 138.284 453.574 138.438 454.007 138.712L476.423 150.528C476.829 150.786 477.164 151.143 477.396 151.565C477.628 151.987 477.749 152.461 477.749 152.942C477.749 153.424 477.628 153.898 477.396 154.32C477.164 154.742 476.829 155.098 476.423 155.357L454.007 167.172C453.55 167.465 453.019 167.622 452.476 167.624Z" fill="#0095B7"/>
<path d="M449.834 362.569H364.763C362.989 362.567 361.288 361.861 360.033 360.606C358.779 359.352 358.073 357.651 358.071 355.876V313.535C358.073 311.761 358.778 310.06 360.033 308.805C361.288 307.55 362.989 306.845 364.763 306.843H449.834C451.608 306.845 453.31 307.55 454.564 308.805C455.819 310.06 456.524 311.761 456.526 313.535V355.876C456.524 357.651 455.819 359.352 454.564 360.606C453.309 361.861 451.608 362.567 449.834 362.569Z" fill="white"/>
<path d="M449.834 363.356H364.763C362.78 363.354 360.879 362.565 359.477 361.163C358.074 359.761 357.286 357.86 357.283 355.877V313.535C357.286 311.552 358.074 309.651 359.477 308.249C360.879 306.846 362.78 306.058 364.763 306.055H449.834C451.817 306.058 453.718 306.846 455.121 308.249C456.523 309.651 457.311 311.552 457.314 313.535V355.877C457.311 357.86 456.523 359.761 455.121 361.163C453.718 362.565 451.817 363.354 449.834 363.356ZM364.763 307.63C363.197 307.632 361.696 308.254 360.589 309.361C359.482 310.468 358.86 311.969 358.858 313.535V355.877C358.86 357.442 359.482 358.943 360.589 360.05C361.696 361.157 363.197 361.78 364.763 361.781H449.834C451.4 361.78 452.901 361.157 454.008 360.05C455.115 358.943 455.737 357.442 455.739 355.877V313.535C455.737 311.969 455.115 310.468 454.008 309.361C452.901 308.254 451.4 307.632 449.834 307.63H364.763Z" fill="#CCCCCC"/>
<path d="M435.858 383.401H378.551C376.865 383.399 375.25 382.728 374.059 381.536C372.868 380.344 372.199 378.728 372.199 377.043C372.199 375.358 372.868 373.742 374.059 372.55C375.25 371.357 376.865 370.687 378.551 370.685H435.858C437.544 370.685 439.162 371.355 440.354 372.547C441.546 373.739 442.216 375.357 442.216 377.043C442.216 378.729 441.546 380.346 440.354 381.539C439.162 382.731 437.544 383.401 435.858 383.401Z" fill="#E6E6E6"/>
<path d="M397.944 351.068C397.461 351.067 396.986 350.943 396.564 350.709C396.112 350.465 395.735 350.103 395.474 349.661C395.213 349.22 395.077 348.715 395.081 348.202V324.572C395.081 324.059 395.218 323.556 395.479 323.115C395.74 322.674 396.115 322.311 396.564 322.065C397.013 321.818 397.52 321.696 398.032 321.713C398.544 321.729 399.043 321.882 399.475 322.157L421.891 333.972C422.297 334.23 422.632 334.587 422.864 335.009C423.096 335.431 423.217 335.905 423.217 336.387C423.217 336.868 423.096 337.342 422.864 337.764C422.632 338.186 422.297 338.543 421.891 338.801L399.475 350.616C399.018 350.91 398.487 351.067 397.944 351.068Z" fill="#0095B7"/>
<path d="M160.96 216.077L117.418 216.37C117.418 216.37 92.6197 208.375 81.3735 210.046L77.0735 226.937L107.963 237.172L161.724 229.372C162.931 229.981 164.277 230.262 165.626 230.186C166.976 230.11 168.282 229.68 169.412 228.939C170.543 228.198 171.458 227.172 172.066 225.964C172.674 224.757 172.953 223.411 172.876 222.061C172.798 220.712 172.367 219.407 171.624 218.277C170.882 217.147 169.855 216.233 168.647 215.626C167.439 215.02 166.092 214.742 164.743 214.821C163.393 214.9 162.089 215.334 160.96 216.077Z" fill="#A0616A"/>
<path d="M107.595 238.808L55.9362 223.95L51.2332 206.427C50.008 204.089 49.4612 201.455 49.6545 198.822C49.8478 196.19 50.7735 193.664 52.327 191.53C56.7372 185.557 60.1844 191.49 66.4432 195.484C77.415 196.259 104.801 205.63 115.918 216.48L115.042 223.15L107.595 238.808Z" fill="#3F3D56"/>
<path d="M152.541 224.504C151.386 224.501 150.249 224.205 149.239 223.644C148.158 223.061 147.256 222.194 146.631 221.137C146.006 220.08 145.681 218.873 145.69 217.645V161.098C145.69 159.872 146.019 158.668 146.644 157.613C147.268 156.557 148.164 155.689 149.239 155.099C150.313 154.508 151.527 154.217 152.752 154.256C153.978 154.295 155.17 154.662 156.205 155.32L209.846 183.593C210.818 184.211 211.619 185.065 212.174 186.075C212.729 187.085 213.02 188.219 213.02 189.371C213.02 190.524 212.729 191.657 212.174 192.667C211.619 193.677 210.818 194.531 209.846 195.149L156.205 223.422C155.112 224.125 153.841 224.5 152.541 224.504Z" fill="#0095B7"/>
<path d="M116.505 496.866L127.496 496.866L132.723 454.476L116.504 454.477L116.505 496.866Z" fill="#A0616A"/>
<path d="M113.702 493.278L116.795 493.278L128.872 488.367L135.345 493.277H135.346C139.004 493.277 142.512 494.73 145.098 497.317C147.685 499.903 149.138 503.411 149.138 507.069V507.518L113.703 507.519L113.702 493.278Z" fill="#2F2E41"/>
<path d="M38.2463 486.52L48.6562 490.044L67.2038 451.572L51.8409 446.37L38.2463 486.52Z" fill="#A0616A"/>
<path d="M36.7419 482.222L39.6717 483.214L52.6857 482.436L57.2414 489.163L57.2423 489.164C60.7069 490.337 63.5634 492.839 65.1837 496.118C66.804 499.397 67.0553 503.186 65.8823 506.651L65.7385 507.075L32.1748 495.711L36.7419 482.222Z" fill="#2F2E41"/>
<path d="M50.985 314.281C50.985 314.281 49.7017 329.68 52.9098 344.438C56.118 359.195 63.0221 408.182 63.0221 408.182C49.038 431.167 40.9335 453.785 39.4026 476.679L59.0855 478.253L87.2686 411.383L90.1241 344.438L110.656 389.993L109.6 393.513C109.351 394.345 109.381 395.236 109.687 396.049C109.994 396.862 110.559 397.553 111.295 398.013C111.295 398.013 109.373 410.525 110.656 410.525C111.939 410.525 115.147 412.45 115.147 412.45C107.149 437.351 106.075 461.198 113.41 483.765L130.731 482.977L142.096 384.86L133.755 331.605L133.113 321.339L130.226 321.458L128.755 317.169L126.055 309.79L50.985 314.281Z" fill="#2F2E41"/>
<path d="M49.8758 317.516L49.7614 317.355C43.6541 308.805 52.8395 288.259 54.2249 285.28L48.3898 283.387L43.2875 240.21L39.5559 225.294C38.1499 219.656 38.2697 213.745 39.9031 208.168C41.5365 202.59 44.6246 197.549 48.8504 193.559L57.476 185.427L67.9588 169.916H84.8635L90.6597 180.864C96.2792 182.163 101.265 185.392 104.749 189.989C108.232 194.586 109.993 200.259 109.724 206.02L108.41 234.735L113.553 270.486L113.556 276.957L122.484 291.595L124.429 300.67C125.234 301.732 130.546 308.816 130.546 310.752C130.546 311.043 130.332 311.324 129.871 311.636C126.251 314.087 106.24 319.085 97.3836 315.541C87.9497 311.769 50.4485 317.428 50.0707 317.486L49.8758 317.516Z" fill="#3F3D56"/>
<path d="M222.551 507.235C222.551 507.357 222.527 507.479 222.481 507.592C222.434 507.706 222.365 507.809 222.279 507.896C222.193 507.983 222.09 508.052 221.977 508.099C221.863 508.147 221.742 508.171 221.619 508.172H0.936908C0.688425 508.172 0.450116 508.073 0.274412 507.897C0.0987081 507.721 0 507.483 0 507.235C0 506.986 0.0987081 506.748 0.274412 506.572C0.450116 506.396 0.688425 506.298 0.936908 506.298H221.614C221.861 506.297 222.099 506.395 222.275 506.569C222.451 506.744 222.55 506.981 222.551 507.229V507.235Z" fill="#CCCCCC"/>
<path d="M78.5949 164.909C90.9595 164.909 100.983 154.885 100.983 142.521C100.983 130.156 90.9595 120.133 78.5949 120.133C66.2303 120.133 56.2068 130.156 56.2068 142.521C56.2068 154.885 66.2303 164.909 78.5949 164.909Z" fill="#A0616A"/>
<path d="M161.704 159.709L127.162 186.22C127.162 186.22 102.564 194.812 94.6052 202.931L101.371 218.995L132.178 208.513L170.337 169.848C171.667 169.606 172.909 169.018 173.939 168.142C174.97 167.267 175.751 166.136 176.205 164.863C176.66 163.59 176.77 162.219 176.526 160.89C176.283 159.56 175.693 158.318 174.817 157.289C173.94 156.26 172.808 155.48 171.534 155.027C170.261 154.574 168.89 154.465 167.561 154.71C166.232 154.956 164.99 155.547 163.962 156.424C162.934 157.302 162.155 158.435 161.704 159.709Z" fill="#A0616A"/>
<path d="M132.871 210.04L84.8867 224.09L68.3885 218.236C66.0006 217.111 63.9749 215.341 62.5403 213.125C61.1057 210.909 60.3194 208.336 60.2702 205.697C60.1819 198.273 66.5111 200.923 73.9121 200.331C83.1286 194.328 110.62 185.272 126.032 187.214L129.359 193.06L132.871 210.04Z" fill="#3F3D56"/>
<path d="M93.9466 116.672C92.3421 116.624 92.8929 113.6 91.6001 112.635C91.5938 112.664 91.5873 112.693 91.5805 112.723C91.411 113.376 91.0363 113.957 90.5114 114.382C89.9865 114.806 89.3392 115.051 88.6649 115.079C87.9905 115.108 87.3248 114.92 86.7656 114.542C86.2065 114.164 85.7835 113.616 85.559 112.979C85.3446 112.243 84.9566 111.569 84.4274 111.014C83.8983 110.459 83.2436 110.039 82.5184 109.79C82.4379 112.593 80.3174 115.026 77.7878 116.237C75.2581 117.448 72.3737 117.649 69.5695 117.691C66.7653 117.732 63.9207 117.638 61.2014 118.324C58.4822 119.01 55.8372 120.624 54.6754 123.176C53.5136 125.729 54.3425 129.243 56.883 130.431C54.9149 130.442 53.245 132.066 52.5645 133.912C52.0067 135.807 51.8612 137.798 52.1377 139.753C52.6908 146.993 54.0394 154.787 59.3109 159.78C63.3286 163.585 69.0793 165.118 74.6128 165.096C80.1463 165.073 79.1733 164.565 84.5237 163.152C84.5237 163.152 89.6104 148.57 88.3295 147.136C87.0486 145.701 85.9847 143.866 86.2166 141.956C86.4484 140.047 88.5001 138.337 90.2806 139.064C89.9812 138.298 89.7556 138.153 89.6144 138.192C89.7043 137.974 89.7828 137.752 89.8496 137.526C90.1848 136.376 90.7882 135.322 91.6101 134.45C92.4321 133.579 93.4492 132.914 94.5778 132.512C95.7178 132.142 96.9437 132.13 98.0909 132.477C99.238 132.825 100.251 133.514 100.995 134.455C106.854 128.96 103.219 116.947 93.9466 116.672Z" fill="#2F2E41"/>
<path d="M472.915 27.15H115.243C114.871 27.142 114.517 26.9887 114.257 26.7228C113.996 26.4569 113.851 26.0997 113.851 25.7276C113.851 25.3555 113.996 24.9982 114.257 24.7324C114.517 24.4665 114.871 24.3132 115.243 24.3052H472.915C473.287 24.3132 473.641 24.4665 473.901 24.7324C474.162 24.9982 474.307 25.3555 474.307 25.7276C474.307 26.0997 474.162 26.4569 473.901 26.7228C473.641 26.9887 473.287 27.142 472.915 27.15Z" fill="#CACACA"/>
<path d="M139.59 17.0429C144.194 17.0429 147.926 13.2278 147.926 8.52147C147.926 3.81519 144.194 0 139.59 0C134.987 0 131.255 3.81519 131.255 8.52147C131.255 13.2278 134.987 17.0429 139.59 17.0429Z" fill="#3F3D56"/>
<path d="M168.386 17.0429C172.99 17.0429 176.722 13.2278 176.722 8.52147C176.722 3.81519 172.99 0 168.386 0C163.783 0 160.051 3.81519 160.051 8.52147C160.051 13.2278 163.783 17.0429 168.386 17.0429Z" fill="#3F3D56"/>
<path d="M197.182 17.0429C201.786 17.0429 205.518 13.2278 205.518 8.52147C205.518 3.81519 201.786 0 197.182 0C192.579 0 188.847 3.81519 188.847 8.52147C188.847 13.2278 192.579 17.0429 197.182 17.0429Z" fill="#3F3D56"/>
<path d="M455.577 2.11214H435.122C434.717 2.12016 434.33 2.28687 434.046 2.57646C433.763 2.86605 433.604 3.25542 433.604 3.66096C433.604 4.06651 433.763 4.45589 434.046 4.74548C434.33 5.03507 434.717 5.20177 435.122 5.20979H455.577C455.983 5.20177 456.369 5.03507 456.653 4.74548C456.937 4.45589 457.096 4.06651 457.096 3.66096C457.096 3.25542 456.937 2.86605 456.653 2.57646C456.369 2.28687 455.983 2.12016 455.577 2.11214Z" fill="#3F3D56"/>
<path d="M455.577 7.92599H435.122C434.717 7.93402 434.33 8.10072 434.046 8.3903C433.763 8.67989 433.604 9.06927 433.604 9.47482C433.604 9.88037 433.763 10.2697 434.046 10.5593C434.33 10.8489 434.717 11.0156 435.122 11.0236H455.577C455.983 11.0156 456.369 10.8489 456.653 10.5593C456.937 10.2697 457.096 9.88037 457.096 9.47482C457.096 9.06927 456.937 8.67989 456.653 8.3903C456.369 8.10072 455.983 7.93402 455.577 7.92599Z" fill="#3F3D56"/>
<path d="M455.577 13.7322H435.122C434.717 13.7402 434.33 13.9069 434.046 14.1965C433.763 14.4861 433.604 14.8754 433.604 15.281C433.604 15.6865 433.763 16.0759 434.046 16.3655C434.33 16.6551 434.717 16.8218 435.122 16.8298H455.577C455.983 16.8218 456.369 16.6551 456.653 16.3655C456.937 16.0759 457.096 15.6865 457.096 15.281C457.096 14.8754 456.937 14.4861 456.653 14.1965C456.369 13.9069 455.983 13.7402 455.577 13.7322Z" fill="#3F3D56"/>
<path d="M282.706 107.093V128.477C282.706 129.54 280.847 130.429 278.344 130.673C278.322 130.672 278.301 130.675 278.281 130.681C277.864 130.713 277.423 130.736 276.974 130.736C275.594 130.762 274.22 130.538 272.919 130.075C272.801 130.028 272.683 129.973 272.565 129.925C272.455 129.862 272.337 129.807 272.226 129.744C271.604 129.374 271.242 128.941 271.242 128.477V107.093H282.706Z" fill="#CCCCCC"/>
<path d="M456.722 370.163C462.101 370.163 466.463 365.802 466.463 360.422C466.463 355.042 462.101 350.681 456.722 350.681C451.342 350.681 446.981 355.042 446.981 360.422C446.981 365.802 451.342 370.163 456.722 370.163Z" fill="#3F3D56"/>
<path d="M455.992 364.315C455.971 364.315 455.951 364.314 455.93 364.313C455.746 364.304 455.567 364.256 455.404 364.171C455.241 364.086 455.098 363.968 454.986 363.823L453.358 361.73C453.255 361.598 453.179 361.447 453.135 361.285C453.09 361.124 453.078 360.955 453.099 360.789C453.12 360.623 453.173 360.463 453.256 360.317C453.338 360.172 453.449 360.044 453.581 359.941L453.64 359.896C453.772 359.793 453.923 359.717 454.084 359.672C454.246 359.628 454.414 359.616 454.58 359.637C454.747 359.657 454.907 359.711 455.053 359.793C455.198 359.876 455.326 359.987 455.429 360.119C455.511 360.225 455.615 360.311 455.734 360.373C455.852 360.434 455.983 360.47 456.117 360.476C456.25 360.483 456.384 360.46 456.508 360.411C456.632 360.361 456.744 360.285 456.836 360.188L460.142 356.698C460.374 356.453 460.695 356.31 461.032 356.301C461.37 356.292 461.698 356.417 461.944 356.649L461.998 356.701C462.119 356.816 462.217 356.954 462.285 357.107C462.353 357.26 462.391 357.424 462.395 357.592C462.4 357.759 462.371 357.926 462.311 358.082C462.252 358.238 462.162 358.381 462.046 358.503L456.917 363.917C456.798 364.043 456.655 364.143 456.496 364.211C456.337 364.28 456.165 364.315 455.992 364.315Z" fill="white"/>
<path d="M510.259 189.08C515.639 189.08 520 184.719 520 179.339C520 173.959 515.639 169.598 510.259 169.598C504.879 169.598 500.518 173.959 500.518 179.339C500.518 184.719 504.879 189.08 510.259 189.08Z" fill="#3F3D56"/>
<path d="M509.53 183.232C509.509 183.232 509.488 183.232 509.468 183.231C509.284 183.222 509.105 183.173 508.942 183.089C508.779 183.004 508.636 182.885 508.523 182.74L506.895 180.647C506.793 180.515 506.717 180.364 506.672 180.202C506.628 180.041 506.616 179.873 506.637 179.706C506.657 179.54 506.71 179.38 506.793 179.234C506.876 179.089 506.987 178.961 507.119 178.858L507.177 178.813C507.309 178.71 507.46 178.634 507.622 178.59C507.783 178.545 507.952 178.533 508.118 178.554C508.284 178.575 508.445 178.628 508.59 178.711C508.736 178.794 508.863 178.904 508.966 179.036C509.048 179.142 509.153 179.229 509.271 179.29C509.39 179.352 509.521 179.387 509.654 179.394C509.788 179.4 509.922 179.378 510.046 179.328C510.17 179.278 510.282 179.202 510.374 179.105L513.679 175.616C513.912 175.37 514.232 175.228 514.57 175.218C514.908 175.209 515.236 175.334 515.481 175.567L515.535 175.618C515.657 175.733 515.755 175.871 515.823 176.024C515.891 176.177 515.928 176.342 515.933 176.509C515.937 176.676 515.909 176.843 515.849 176.999C515.789 177.156 515.699 177.299 515.584 177.42L510.455 182.834C510.336 182.96 510.192 183.06 510.033 183.128C509.874 183.197 509.703 183.232 509.53 183.232Z" fill="white"/>
</g>
<defs>
<clipPath id="clip0_80_322">
<rect width="520" height="508.172" fill="white"/>
</clipPath>
</defs>
</svg>
