<svg width="30" height="30" viewBox="0 0 30 30" fill="none" xmlns="http://www.w3.org/2000/svg">
<path d="M15 18.75V2.5M15 2.5L18.75 6.875M15 2.5L11.25 6.875" stroke="#0095B7" stroke-width="1.5" stroke-linecap="round" stroke-linejoin="round"/>
<path d="M10 27.5H20C23.535 27.5 25.3038 27.5 26.4013 26.4025C27.5 25.3025 27.5 23.5363 27.5 20V18.75C27.5 15.215 27.5 13.4475 26.4013 12.3488C25.4413 11.3888 23.9687 11.2675 21.25 11.2525M8.75 11.2525C6.03125 11.2675 4.55875 11.3888 3.59875 12.3488C2.5 13.4475 2.5 15.215 2.5 18.75V20C2.5 23.5363 2.5 25.3038 3.59875 26.4025C3.97375 26.7775 4.42625 27.0238 5 27.1863" stroke="#0095B7" stroke-width="1.5" stroke-linecap="round"/>
</svg>
